<svg xmlns="http://www.w3.org/2000/svg" xmlns:xlink="http://www.w3.org/1999/xlink" width="500" zoomAndPan="magnify" viewBox="0 0 375 374.999991" height="500" preserveAspectRatio="xMidYMid meet" version="1.0"><defs><g/><clipPath id="11ccfa3e26"><path d="M 119 114 L 256 114 L 256 264.035156 L 119 264.035156 Z M 119 114 " clip-rule="nonzero"/></clipPath><clipPath id="9c7214c295"><path d="M 210 56.285156 L 223 56.285156 L 223 78 L 210 78 Z M 210 56.285156 " clip-rule="nonzero"/></clipPath></defs><g clip-path="url(#11ccfa3e26)"><path fill="#ff3131" d="M 153.246094 156.699219 C 154.292969 156.699219 155.339844 156.441406 156.285156 155.929688 C 157.964844 155.015625 159.148438 153.398438 159.507812 151.519531 C 161.226562 142.492188 163.613281 136.742188 165.914062 133.074219 L 165.914062 171.546875 C 161.726562 169.417969 153.839844 166.460938 148.222656 170.699219 C 141.515625 175.753906 158.765625 178.636719 165.914062 186.902344 L 165.914062 254.15625 C 165.914062 259.597656 170.328125 264.007812 175.765625 264.007812 C 181.207031 264.007812 185.621094 259.597656 185.621094 254.15625 L 185.621094 182.222656 L 189.3125 182.222656 L 189.3125 254.15625 C 189.3125 259.597656 193.726562 264.007812 199.164062 264.007812 C 204.605469 264.007812 209.015625 259.597656 209.015625 254.15625 L 209.015625 186.902344 C 216.167969 178.636719 233.417969 175.753906 226.710938 170.699219 C 221.09375 166.460938 213.207031 169.417969 209.015625 171.546875 L 209.015625 133.148438 C 211.316406 136.835938 213.71875 142.578125 215.425781 151.519531 C 215.785156 153.398438 216.96875 155.015625 218.648438 155.929688 C 219.59375 156.441406 220.640625 156.699219 221.6875 156.699219 C 222.503906 156.699219 223.324219 156.542969 224.101562 156.226562 C 229.140625 154.164062 241.445312 150.589844 247.308594 152.699219 C 250.621094 153.890625 254.273438 152.171875 255.464844 148.859375 C 256.65625 145.546875 254.9375 141.898438 251.625 140.703125 C 243.769531 137.875 233.246094 139.972656 226.320312 142 C 220.285156 119.730469 209.261719 115.070312 204.113281 114.136719 C 200.597656 119.625 194.453125 123.269531 187.464844 123.269531 C 180.476562 123.269531 174.328125 119.621094 170.816406 114.132812 C 165.664062 115.070312 154.644531 119.734375 148.613281 142.003906 C 141.6875 139.976562 131.160156 137.875 123.304688 140.703125 C 119.992188 141.898438 118.273438 145.546875 119.464844 148.859375 C 120.65625 152.171875 124.3125 153.890625 127.621094 152.699219 C 133.242188 150.675781 144.84375 153.789062 150.828125 156.226562 C 151.605469 156.542969 152.425781 156.699219 153.246094 156.699219 Z M 153.246094 156.699219 " fill-opacity="1" fill-rule="nonzero"/></g><path fill="#ff3131" d="M 187.464844 121.4375 C 197.371094 121.4375 205.394531 113.414062 205.394531 103.511719 C 205.394531 93.609375 197.371094 85.582031 187.464844 85.582031 C 177.566406 85.582031 169.539062 93.609375 169.539062 103.511719 C 169.539062 113.414062 177.566406 121.4375 187.464844 121.4375 Z M 197.414062 109.753906 L 196.15625 111.785156 C 187.457031 106.402344 179.394531 111.957031 179.054688 112.195312 L 177.671875 110.246094 C 177.765625 110.179688 187.34375 103.515625 197.414062 109.753906 Z M 197.414062 109.753906 " fill-opacity="1" fill-rule="nonzero"/><path fill="#ff3131" d="M 159.90625 111.59375 C 158.046875 113.027344 157.777344 115.367188 157.765625 115.46875 C 157.71875 115.902344 158.035156 116.292969 158.46875 116.34375 C 158.5 116.34375 158.53125 116.347656 158.558594 116.347656 C 158.957031 116.347656 159.304688 116.046875 159.351562 115.640625 C 159.351562 115.621094 159.570312 113.855469 160.890625 112.847656 C 161.738281 112.199219 162.886719 111.980469 164.300781 112.195312 C 164.738281 112.265625 165.140625 111.960938 165.207031 111.527344 C 165.273438 111.089844 164.976562 110.683594 164.539062 110.621094 C 162.667969 110.335938 161.113281 110.664062 159.90625 111.59375 Z M 159.90625 111.59375 " fill-opacity="1" fill-rule="nonzero"/><path fill="#ff3131" d="M 164.714844 107.074219 C 161.949219 106.546875 159.613281 106.929688 157.777344 108.21875 C 154.980469 110.175781 154.414062 113.496094 154.390625 113.636719 C 154.320312 114.070312 154.617188 114.480469 155.050781 114.550781 C 155.09375 114.558594 155.136719 114.5625 155.179688 114.5625 C 155.566406 114.5625 155.902344 114.28125 155.964844 113.890625 C 155.96875 113.863281 156.441406 111.097656 158.691406 109.523438 C 160.160156 108.492188 162.085938 108.195312 164.414062 108.640625 C 164.847656 108.71875 165.261719 108.4375 165.347656 108.007812 C 165.429688 107.574219 165.144531 107.15625 164.714844 107.074219 Z M 164.714844 107.074219 " fill-opacity="1" fill-rule="nonzero"/><path fill="#ff3131" d="M 210.921875 112.546875 C 210.9375 112.542969 212.667969 112.125 214.078125 113.003906 C 214.984375 113.566406 215.59375 114.558594 215.894531 115.960938 C 215.972656 116.335938 216.304688 116.589844 216.671875 116.589844 C 216.726562 116.589844 216.78125 116.585938 216.839844 116.574219 C 217.269531 116.480469 217.542969 116.058594 217.453125 115.628906 C 217.054688 113.777344 216.199219 112.4375 214.902344 111.636719 C 212.902344 110.40625 210.621094 110.980469 210.523438 111.003906 C 210.097656 111.117188 209.84375 111.550781 209.953125 111.972656 C 210.0625 112.398438 210.496094 112.652344 210.921875 112.546875 Z M 210.921875 112.546875 " fill-opacity="1" fill-rule="nonzero"/><path fill="#ff3131" d="M 220.042969 115.46875 C 220.089844 115.46875 220.136719 115.464844 220.179688 115.457031 C 220.613281 115.382812 220.90625 114.96875 220.828125 114.535156 C 220.34375 111.761719 219.160156 109.714844 217.308594 108.449219 C 214.488281 106.527344 211.179688 107.171875 211.039062 107.203125 C 210.609375 107.292969 210.332031 107.710938 210.417969 108.144531 C 210.507812 108.574219 210.925781 108.851562 211.359375 108.765625 C 211.386719 108.757812 214.140625 108.21875 216.410156 109.765625 C 217.894531 110.777344 218.851562 112.476562 219.257812 114.808594 C 219.328125 115.195312 219.664062 115.46875 220.042969 115.46875 Z M 220.042969 115.46875 " fill-opacity="1" fill-rule="nonzero"/><path fill="#ff3131" d="M 162.929688 82.589844 C 160.039062 76.050781 148.496094 73.285156 147.441406 79.390625 C 146.449219 85.140625 153.074219 81.148438 162.929688 82.589844 Z M 162.929688 82.589844 " fill-opacity="1" fill-rule="nonzero"/><path fill="#ff3131" d="M 170.914062 80.628906 C 173.101562 75.402344 168.394531 67.257812 164.308594 69.980469 C 160.464844 72.546875 166.371094 74.175781 170.914062 80.628906 Z M 170.914062 80.628906 " fill-opacity="1" fill-rule="nonzero"/><path fill="#ff3131" d="M 163.9375 92.960938 C 161.132812 88.878906 152.917969 88.476562 152.984375 92.769531 C 153.046875 96.8125 157.046875 93.242188 163.9375 92.960938 Z M 163.9375 92.960938 " fill-opacity="1" fill-rule="nonzero"/><path fill="#ff3131" d="M 210.261719 72.148438 C 209.359375 69.695312 207.421875 69.734375 205.277344 69.5625 L 204.464844 65.097656 C 204.882812 64.96875 205.222656 64.898438 205.453125 64.890625 C 205.839844 64.878906 205.929688 65.054688 205.996094 65.445312 L 206.277344 66.980469 L 208.433594 65.980469 L 207.773438 62.292969 C 206.882812 62.203125 205.726562 62.242188 204.050781 62.78125 L 203.695312 60.753906 L 202 61.378906 L 202.371094 63.453125 C 198.957031 65.128906 198.105469 67.546875 198.984375 69.929688 C 199.890625 72.382812 202.105469 72.320312 203.976562 72.386719 L 204.863281 77.261719 C 204.152344 77.523438 203.5 77.660156 203.125 77.695312 C 202.738281 77.707031 202.671875 77.523438 202.59375 77.109375 L 202.308594 75.550781 L 200.074219 76.554688 L 200.734375 80.398438 C 201.773438 80.457031 203.238281 80.332031 205.285156 79.605469 L 205.761719 82.238281 L 207.457031 81.613281 L 206.953125 78.910156 C 210.484375 77.191406 211.167969 74.597656 210.261719 72.148438 Z M 201.675781 68.339844 C 201.246094 67.171875 201.929688 66.34375 202.800781 65.816406 L 203.460938 69.503906 C 202.617188 69.476562 202.039062 69.324219 201.675781 68.339844 Z M 206.511719 76.445312 L 205.804688 72.542969 C 206.765625 72.683594 207.253906 73.023438 207.515625 73.734375 C 207.964844 74.945312 207.40625 75.828125 206.511719 76.445312 Z M 206.511719 76.445312 " fill-opacity="1" fill-rule="nonzero"/><g clip-path="url(#9c7214c295)"><path fill="#ff3131" d="M 222.359375 67.6875 C 221.453125 65.234375 219.519531 65.273438 217.371094 65.101562 L 216.558594 60.640625 C 216.980469 60.511719 217.316406 60.4375 217.546875 60.429688 C 217.933594 60.417969 218.023438 60.59375 218.089844 60.984375 L 218.371094 62.519531 L 220.527344 61.519531 L 219.871094 57.832031 C 218.976562 57.742188 217.820312 57.78125 216.144531 58.320312 L 215.789062 56.292969 L 214.09375 56.917969 L 214.46875 58.992188 C 211.054688 60.667969 210.203125 63.089844 211.082031 65.46875 C 211.984375 67.921875 214.199219 67.859375 216.070312 67.925781 L 216.957031 72.800781 C 216.246094 73.0625 215.59375 73.199219 215.21875 73.234375 C 214.832031 73.246094 214.765625 73.0625 214.691406 72.648438 L 214.402344 71.089844 L 212.171875 72.09375 L 212.832031 75.9375 C 213.867188 75.996094 215.332031 75.875 217.378906 75.144531 L 217.855469 77.777344 L 219.550781 77.152344 L 219.050781 74.449219 C 222.578125 72.730469 223.261719 70.136719 222.359375 67.6875 Z M 213.773438 63.878906 C 213.339844 62.710938 214.027344 61.886719 214.898438 61.355469 L 215.554688 65.042969 C 214.710938 65.015625 214.136719 64.863281 213.773438 63.878906 Z M 218.609375 71.984375 L 217.898438 68.082031 C 218.859375 68.222656 219.351562 68.5625 219.613281 69.273438 C 220.058594 70.484375 219.5 71.367188 218.609375 71.984375 Z M 218.609375 71.984375 " fill-opacity="1" fill-rule="nonzero"/></g><g fill="#000000" fill-opacity="1"><g transform="translate(52.494142, 309.288788)"><g><path d="M 9.5 -5.90625 L 17.15625 -5.90625 L 17.15625 0 L 2.5 0 L 2.5 -32.34375 L 9.5 -32.34375 Z M 9.5 -5.90625 "/></g></g></g><g fill="#000000" fill-opacity="1"><g transform="translate(70.44136, 309.288788)"><g><path d="M 21.546875 -26.25 L 21.546875 -6.09375 C 21.546875 -1.695312 19.476562 0.5 15.34375 0.5 L 8.703125 0.5 C 4.566406 0.5 2.5 -1.695312 2.5 -6.09375 L 2.5 -26.25 C 2.5 -30.644531 4.566406 -32.84375 8.703125 -32.84375 L 15.34375 -32.84375 C 19.476562 -32.84375 21.546875 -30.644531 21.546875 -26.25 Z M 14.546875 -5.296875 L 14.546875 -27.09375 C 14.546875 -27.363281 14.453125 -27.597656 14.265625 -27.796875 C 14.085938 -27.992188 13.863281 -28.09375 13.59375 -28.09375 L 10.453125 -28.09375 C 10.179688 -28.09375 9.953125 -27.992188 9.765625 -27.796875 C 9.585938 -27.597656 9.5 -27.363281 9.5 -27.09375 L 9.5 -5.296875 C 9.5 -5.035156 9.585938 -4.800781 9.765625 -4.59375 C 9.953125 -4.394531 10.179688 -4.296875 10.453125 -4.296875 L 13.59375 -4.296875 C 13.863281 -4.296875 14.085938 -4.394531 14.265625 -4.59375 C 14.453125 -4.800781 14.546875 -5.035156 14.546875 -5.296875 Z M 14.546875 -5.296875 "/></g></g></g><g fill="#000000" fill-opacity="1"><g transform="translate(94.637613, 309.288788)"><g><path d="M 20.453125 -23.84375 L 13.796875 -23.84375 L 13.796875 -26.40625 C 13.796875 -26.664062 13.703125 -26.894531 13.515625 -27.09375 C 13.335938 -27.300781 13.113281 -27.40625 12.84375 -27.40625 L 10.09375 -27.40625 C 9.832031 -27.40625 9.609375 -27.300781 9.421875 -27.09375 C 9.242188 -26.894531 9.15625 -26.664062 9.15625 -26.40625 L 9.15625 -20.65625 C 9.15625 -20.382812 9.242188 -20.148438 9.421875 -19.953125 C 9.609375 -19.753906 9.832031 -19.65625 10.09375 -19.65625 L 14.59375 -19.65625 C 18.726562 -19.582031 20.796875 -17.378906 20.796875 -13.046875 L 20.796875 -6.09375 C 20.796875 -1.695312 18.726562 0.5 14.59375 0.5 L 8.703125 0.5 C 4.566406 0.5 2.5 -1.695312 2.5 -6.09375 L 2.5 -9.453125 L 9.15625 -9.453125 L 9.15625 -5.84375 C 9.15625 -5.582031 9.242188 -5.347656 9.421875 -5.140625 C 9.609375 -4.941406 9.832031 -4.84375 10.09375 -4.84375 L 13.203125 -4.84375 C 13.460938 -4.84375 13.6875 -4.941406 13.875 -5.140625 C 14.0625 -5.347656 14.15625 -5.582031 14.15625 -5.84375 L 14.15625 -12.203125 C 14.15625 -12.460938 14.0625 -12.691406 13.875 -12.890625 C 13.6875 -13.097656 13.460938 -13.203125 13.203125 -13.203125 L 8.703125 -13.203125 C 4.566406 -13.203125 2.5 -15.398438 2.5 -19.796875 L 2.5 -26.25 C 2.5 -30.644531 4.566406 -32.84375 8.703125 -32.84375 L 14.25 -32.84375 C 18.382812 -32.84375 20.453125 -30.644531 20.453125 -26.25 Z M 20.453125 -23.84375 "/></g></g></g><g fill="#000000" fill-opacity="1"><g transform="translate(117.534069, 309.288788)"><g><path d="M 20.453125 -23.84375 L 13.796875 -23.84375 L 13.796875 -26.40625 C 13.796875 -26.664062 13.703125 -26.894531 13.515625 -27.09375 C 13.335938 -27.300781 13.113281 -27.40625 12.84375 -27.40625 L 10.09375 -27.40625 C 9.832031 -27.40625 9.609375 -27.300781 9.421875 -27.09375 C 9.242188 -26.894531 9.15625 -26.664062 9.15625 -26.40625 L 9.15625 -20.65625 C 9.15625 -20.382812 9.242188 -20.148438 9.421875 -19.953125 C 9.609375 -19.753906 9.832031 -19.65625 10.09375 -19.65625 L 14.59375 -19.65625 C 18.726562 -19.582031 20.796875 -17.378906 20.796875 -13.046875 L 20.796875 -6.09375 C 20.796875 -1.695312 18.726562 0.5 14.59375 0.5 L 8.703125 0.5 C 4.566406 0.5 2.5 -1.695312 2.5 -6.09375 L 2.5 -9.453125 L 9.15625 -9.453125 L 9.15625 -5.84375 C 9.15625 -5.582031 9.242188 -5.347656 9.421875 -5.140625 C 9.609375 -4.941406 9.832031 -4.84375 10.09375 -4.84375 L 13.203125 -4.84375 C 13.460938 -4.84375 13.6875 -4.941406 13.875 -5.140625 C 14.0625 -5.347656 14.15625 -5.582031 14.15625 -5.84375 L 14.15625 -12.203125 C 14.15625 -12.460938 14.0625 -12.691406 13.875 -12.890625 C 13.6875 -13.097656 13.460938 -13.203125 13.203125 -13.203125 L 8.703125 -13.203125 C 4.566406 -13.203125 2.5 -15.398438 2.5 -19.796875 L 2.5 -26.25 C 2.5 -30.644531 4.566406 -32.84375 8.703125 -32.84375 L 14.25 -32.84375 C 18.382812 -32.84375 20.453125 -30.644531 20.453125 -26.25 Z M 20.453125 -23.84375 "/></g></g></g><g fill="#000000" fill-opacity="1"><g transform="translate(140.430525, 309.288788)"><g/></g></g><g fill="#000000" fill-opacity="1"><g transform="translate(150.528963, 309.288788)"><g><path d="M 15.34375 -32.84375 C 19.476562 -32.84375 21.546875 -30.644531 21.546875 -26.25 L 21.546875 0 L 14.546875 0 L 14.546875 -10.84375 L 9.5 -10.84375 L 9.5 0 L 2.5 0 L 2.5 -26.25 C 2.5 -30.644531 4.566406 -32.84375 8.703125 -32.84375 Z M 9.5 -16.25 L 14.546875 -16.25 L 14.546875 -27.09375 C 14.546875 -27.363281 14.453125 -27.597656 14.265625 -27.796875 C 14.085938 -27.992188 13.863281 -28.09375 13.59375 -28.09375 L 10.453125 -28.09375 C 10.179688 -28.09375 9.953125 -27.992188 9.765625 -27.796875 C 9.585938 -27.597656 9.5 -27.363281 9.5 -27.09375 Z M 9.5 -16.25 "/></g></g></g><g fill="#000000" fill-opacity="1"><g transform="translate(174.775204, 309.288788)"><g><path d="M 15.546875 -32.34375 L 22.296875 -32.34375 L 15.59375 0 L 7.546875 0 L 0.84375 -32.34375 L 7.65625 -32.34375 L 11.59375 -8.75 Z M 15.546875 -32.34375 "/></g></g></g><g fill="#000000" fill-opacity="1"><g transform="translate(198.021609, 309.288788)"><g><path d="M 9.5 -5.796875 L 17.25 -5.796875 L 17.25 0 L 2.5 0 L 2.5 -32.34375 L 17.25 -32.34375 L 17.25 -26.65625 L 9.5 -26.65625 L 9.5 -19.046875 L 16.75 -19.046875 L 16.75 -13.546875 L 9.5 -13.546875 Z M 9.5 -5.796875 "/></g></g></g><g fill="#000000" fill-opacity="1"><g transform="translate(216.8187, 309.288788)"><g><path d="M 9.5 -13.25 L 9.5 0 L 2.5 0 L 2.5 -32.34375 L 14.953125 -32.34375 C 19.085938 -32.34375 21.15625 -30.144531 21.15625 -25.75 L 21.15625 -22 C 21.15625 -19.332031 20.203125 -17.632812 18.296875 -16.90625 C 19.960938 -16.300781 20.796875 -14.929688 20.796875 -12.796875 L 20.796875 0 L 13.796875 0 L 13.796875 -12.25 C 13.796875 -12.914062 13.476562 -13.25 12.84375 -13.25 Z M 9.5 -27.59375 L 9.5 -18.15625 L 13.203125 -18.15625 C 13.460938 -18.15625 13.6875 -18.253906 13.875 -18.453125 C 14.0625 -18.648438 14.15625 -18.882812 14.15625 -19.15625 L 14.15625 -26.59375 C 14.15625 -26.863281 14.0625 -27.097656 13.875 -27.296875 C 13.6875 -27.492188 13.460938 -27.59375 13.203125 -27.59375 Z M 9.5 -27.59375 "/></g></g></g><g fill="#000000" fill-opacity="1"><g transform="translate(239.965118, 309.288788)"><g><path d="M 20.453125 -23.84375 L 13.796875 -23.84375 L 13.796875 -26.40625 C 13.796875 -26.664062 13.703125 -26.894531 13.515625 -27.09375 C 13.335938 -27.300781 13.113281 -27.40625 12.84375 -27.40625 L 10.09375 -27.40625 C 9.832031 -27.40625 9.609375 -27.300781 9.421875 -27.09375 C 9.242188 -26.894531 9.15625 -26.664062 9.15625 -26.40625 L 9.15625 -20.65625 C 9.15625 -20.382812 9.242188 -20.148438 9.421875 -19.953125 C 9.609375 -19.753906 9.832031 -19.65625 10.09375 -19.65625 L 14.59375 -19.65625 C 18.726562 -19.582031 20.796875 -17.378906 20.796875 -13.046875 L 20.796875 -6.09375 C 20.796875 -1.695312 18.726562 0.5 14.59375 0.5 L 8.703125 0.5 C 4.566406 0.5 2.5 -1.695312 2.5 -6.09375 L 2.5 -9.453125 L 9.15625 -9.453125 L 9.15625 -5.84375 C 9.15625 -5.582031 9.242188 -5.347656 9.421875 -5.140625 C 9.609375 -4.941406 9.832031 -4.84375 10.09375 -4.84375 L 13.203125 -4.84375 C 13.460938 -4.84375 13.6875 -4.941406 13.875 -5.140625 C 14.0625 -5.347656 14.15625 -5.582031 14.15625 -5.84375 L 14.15625 -12.203125 C 14.15625 -12.460938 14.0625 -12.691406 13.875 -12.890625 C 13.6875 -13.097656 13.460938 -13.203125 13.203125 -13.203125 L 8.703125 -13.203125 C 4.566406 -13.203125 2.5 -15.398438 2.5 -19.796875 L 2.5 -26.25 C 2.5 -30.644531 4.566406 -32.84375 8.703125 -32.84375 L 14.25 -32.84375 C 18.382812 -32.84375 20.453125 -30.644531 20.453125 -26.25 Z M 20.453125 -23.84375 "/></g></g></g><g fill="#000000" fill-opacity="1"><g transform="translate(262.861574, 309.288788)"><g><path d="M 9.5 -32.34375 L 9.5 0 L 2.5 0 L 2.5 -32.34375 Z M 9.5 -32.34375 "/></g></g></g><g fill="#000000" fill-opacity="1"><g transform="translate(275.059694, 309.288788)"><g><path d="M 21.546875 -26.25 L 21.546875 -6.09375 C 21.546875 -1.695312 19.476562 0.5 15.34375 0.5 L 8.703125 0.5 C 4.566406 0.5 2.5 -1.695312 2.5 -6.09375 L 2.5 -26.25 C 2.5 -30.644531 4.566406 -32.84375 8.703125 -32.84375 L 15.34375 -32.84375 C 19.476562 -32.84375 21.546875 -30.644531 21.546875 -26.25 Z M 14.546875 -5.296875 L 14.546875 -27.09375 C 14.546875 -27.363281 14.453125 -27.597656 14.265625 -27.796875 C 14.085938 -27.992188 13.863281 -28.09375 13.59375 -28.09375 L 10.453125 -28.09375 C 10.179688 -28.09375 9.953125 -27.992188 9.765625 -27.796875 C 9.585938 -27.597656 9.5 -27.363281 9.5 -27.09375 L 9.5 -5.296875 C 9.5 -5.035156 9.585938 -4.800781 9.765625 -4.59375 C 9.953125 -4.394531 10.179688 -4.296875 10.453125 -4.296875 L 13.59375 -4.296875 C 13.863281 -4.296875 14.085938 -4.394531 14.265625 -4.59375 C 14.453125 -4.800781 14.546875 -5.035156 14.546875 -5.296875 Z M 14.546875 -5.296875 "/></g></g></g><g fill="#000000" fill-opacity="1"><g transform="translate(299.255935, 309.288788)"><g><path d="M 21.046875 0 L 14.046875 0 L 14.046875 -26.84375 C 14.046875 -27.113281 13.953125 -27.347656 13.765625 -27.546875 C 13.585938 -27.742188 13.363281 -27.84375 13.09375 -27.84375 L 10.40625 -27.84375 C 10.132812 -27.84375 9.90625 -27.742188 9.71875 -27.546875 C 9.539062 -27.347656 9.453125 -27.113281 9.453125 -26.84375 L 9.453125 0 L 2.453125 0 L 2.453125 -26.25 C 2.453125 -30.644531 4.519531 -32.84375 8.65625 -32.84375 L 14.84375 -32.84375 C 18.976562 -32.84375 21.046875 -30.644531 21.046875 -26.25 Z M 21.046875 0 "/></g></g></g></svg>