<svg xmlns="http://www.w3.org/2000/svg" xmlns:xlink="http://www.w3.org/1999/xlink" width="500" zoomAndPan="magnify" viewBox="0 0 375 374.999991" height="500" preserveAspectRatio="xMidYMid meet" version="1.0"><defs><g/><clipPath id="a724db21d6"><path d="M 117.472656 162.230469 L 185.746094 162.230469 L 185.746094 230.5 L 117.472656 230.5 Z M 117.472656 162.230469 " clip-rule="nonzero"/></clipPath><clipPath id="292003faeb"><path d="M 117.472656 196.367188 C 117.472656 215.21875 132.753906 230.5 151.605469 230.5 C 170.457031 230.5 185.738281 215.21875 185.738281 196.367188 L 185.738281 162.234375 L 151.605469 162.234375 C 132.753906 162.230469 117.472656 177.515625 117.472656 196.367188 Z M 117.472656 196.367188 " clip-rule="nonzero"/></clipPath><clipPath id="bbdd98e82b"><path d="M 189.253906 90.449219 L 257.527344 90.449219 L 257.527344 158.71875 L 189.253906 158.71875 Z M 189.253906 90.449219 " clip-rule="nonzero"/></clipPath><clipPath id="3c1cc90225"><path d="M 257.527344 124.582031 C 257.527344 105.730469 242.246094 90.449219 223.394531 90.449219 C 204.542969 90.449219 189.261719 105.730469 189.261719 124.582031 L 189.261719 158.714844 L 223.394531 158.714844 C 242.246094 158.71875 257.527344 143.433594 257.527344 124.582031 Z M 257.527344 124.582031 " clip-rule="nonzero"/></clipPath><clipPath id="0405a931c0"><path d="M 117.472656 90.449219 L 185.746094 90.449219 L 185.746094 158.71875 L 117.472656 158.71875 Z M 117.472656 90.449219 " clip-rule="nonzero"/></clipPath><clipPath id="bc35103737"><path d="M 151.605469 90.449219 C 132.753906 90.449219 117.472656 105.730469 117.472656 124.582031 C 117.472656 143.433594 132.753906 158.714844 151.605469 158.714844 L 185.738281 158.714844 L 185.738281 124.582031 C 185.746094 105.730469 170.457031 90.449219 151.605469 90.449219 Z M 151.605469 90.449219 " clip-rule="nonzero"/></clipPath><clipPath id="383d6a713b"><path d="M 189.253906 162.230469 L 257.527344 162.230469 L 257.527344 230.5 L 189.253906 230.5 Z M 189.253906 162.230469 " clip-rule="nonzero"/></clipPath><clipPath id="63396c620c"><path d="M 223.394531 230.5 C 242.246094 230.5 257.527344 215.21875 257.527344 196.367188 C 257.527344 177.515625 242.246094 162.234375 223.394531 162.234375 L 189.261719 162.234375 L 189.261719 196.367188 C 189.253906 215.21875 204.542969 230.5 223.394531 230.5 Z M 223.394531 230.5 " clip-rule="nonzero"/></clipPath><clipPath id="8cfdc4d818"><path d="M 168 141 L 207 141 L 207 180 L 168 180 Z M 168 141 " clip-rule="nonzero"/></clipPath><clipPath id="81dd391149"><path d="M 160.210938 160.46875 L 187.503906 133.175781 L 214.792969 160.46875 L 187.503906 187.761719 Z M 160.210938 160.46875 " clip-rule="nonzero"/></clipPath><clipPath id="8652a1e9b1"><path d="M 173.855469 146.824219 C 166.320312 154.359375 166.320312 166.578125 173.855469 174.117188 C 181.390625 181.652344 193.613281 181.652344 201.148438 174.117188 C 208.683594 166.578125 208.683594 154.359375 201.148438 146.824219 C 193.613281 139.285156 181.390625 139.285156 173.855469 146.824219 Z M 173.855469 146.824219 " clip-rule="nonzero"/></clipPath></defs><g fill="#000000" fill-opacity="1"><g transform="translate(105.451171, 275.999953)"><g><path d="M 9.5 -32.34375 L 9.5 0 L 2.5 0 L 2.5 -32.34375 Z M 9.5 -32.34375 "/></g></g></g><g fill="#000000" fill-opacity="1"><g transform="translate(117.649278, 275.999953)"><g><path d="M 9.5 -5.90625 L 17.15625 -5.90625 L 17.15625 0 L 2.5 0 L 2.5 -32.34375 L 9.5 -32.34375 Z M 9.5 -5.90625 "/></g></g></g><g fill="#000000" fill-opacity="1"><g transform="translate(135.596497, 275.999953)"><g><path d="M 9.5 -5.90625 L 17.15625 -5.90625 L 17.15625 0 L 2.5 0 L 2.5 -32.34375 L 9.5 -32.34375 Z M 9.5 -5.90625 "/></g></g></g><g fill="#000000" fill-opacity="1"><g transform="translate(153.543715, 275.999953)"><g><path d="M 14.046875 -32.34375 L 21.046875 -32.34375 L 21.046875 -6.09375 C 21.046875 -1.695312 18.976562 0.5 14.84375 0.5 L 8.65625 0.5 C 4.519531 0.5 2.453125 -1.695312 2.453125 -6.09375 L 2.453125 -32.34375 L 9.453125 -32.34375 L 9.453125 -5.5 C 9.453125 -5.226562 9.539062 -4.992188 9.71875 -4.796875 C 9.90625 -4.597656 10.132812 -4.5 10.40625 -4.5 L 13.09375 -4.5 C 13.363281 -4.5 13.585938 -4.597656 13.765625 -4.796875 C 13.953125 -4.992188 14.046875 -5.226562 14.046875 -5.5 Z M 14.046875 -32.34375 "/></g></g></g><g fill="#000000" fill-opacity="1"><g transform="translate(176.890096, 275.999953)"><g><path d="M 20.453125 -23.84375 L 13.796875 -23.84375 L 13.796875 -26.40625 C 13.796875 -26.664062 13.703125 -26.894531 13.515625 -27.09375 C 13.335938 -27.300781 13.113281 -27.40625 12.84375 -27.40625 L 10.09375 -27.40625 C 9.832031 -27.40625 9.609375 -27.300781 9.421875 -27.09375 C 9.242188 -26.894531 9.15625 -26.664062 9.15625 -26.40625 L 9.15625 -20.65625 C 9.15625 -20.382812 9.242188 -20.148438 9.421875 -19.953125 C 9.609375 -19.753906 9.832031 -19.65625 10.09375 -19.65625 L 14.59375 -19.65625 C 18.726562 -19.582031 20.796875 -17.378906 20.796875 -13.046875 L 20.796875 -6.09375 C 20.796875 -1.695312 18.726562 0.5 14.59375 0.5 L 8.703125 0.5 C 4.566406 0.5 2.5 -1.695312 2.5 -6.09375 L 2.5 -9.453125 L 9.15625 -9.453125 L 9.15625 -5.84375 C 9.15625 -5.582031 9.242188 -5.347656 9.421875 -5.140625 C 9.609375 -4.941406 9.832031 -4.84375 10.09375 -4.84375 L 13.203125 -4.84375 C 13.460938 -4.84375 13.6875 -4.941406 13.875 -5.140625 C 14.0625 -5.347656 14.15625 -5.582031 14.15625 -5.84375 L 14.15625 -12.203125 C 14.15625 -12.460938 14.0625 -12.691406 13.875 -12.890625 C 13.6875 -13.097656 13.460938 -13.203125 13.203125 -13.203125 L 8.703125 -13.203125 C 4.566406 -13.203125 2.5 -15.398438 2.5 -19.796875 L 2.5 -26.25 C 2.5 -30.644531 4.566406 -32.84375 8.703125 -32.84375 L 14.25 -32.84375 C 18.382812 -32.84375 20.453125 -30.644531 20.453125 -26.25 Z M 20.453125 -23.84375 "/></g></g></g><g fill="#000000" fill-opacity="1"><g transform="translate(199.786552, 275.999953)"><g><path d="M 9.5 -32.34375 L 9.5 0 L 2.5 0 L 2.5 -32.34375 Z M 9.5 -32.34375 "/></g></g></g><g fill="#000000" fill-opacity="1"><g transform="translate(211.98466, 275.999953)"><g><path d="M 21.546875 -26.25 L 21.546875 -6.09375 C 21.546875 -1.695312 19.476562 0.5 15.34375 0.5 L 8.703125 0.5 C 4.566406 0.5 2.5 -1.695312 2.5 -6.09375 L 2.5 -26.25 C 2.5 -30.644531 4.566406 -32.84375 8.703125 -32.84375 L 15.34375 -32.84375 C 19.476562 -32.84375 21.546875 -30.644531 21.546875 -26.25 Z M 14.546875 -5.296875 L 14.546875 -27.09375 C 14.546875 -27.363281 14.453125 -27.597656 14.265625 -27.796875 C 14.085938 -27.992188 13.863281 -28.09375 13.59375 -28.09375 L 10.453125 -28.09375 C 10.179688 -28.09375 9.953125 -27.992188 9.765625 -27.796875 C 9.585938 -27.597656 9.5 -27.363281 9.5 -27.09375 L 9.5 -5.296875 C 9.5 -5.035156 9.585938 -4.800781 9.765625 -4.59375 C 9.953125 -4.394531 10.179688 -4.296875 10.453125 -4.296875 L 13.59375 -4.296875 C 13.863281 -4.296875 14.085938 -4.394531 14.265625 -4.59375 C 14.453125 -4.800781 14.546875 -5.035156 14.546875 -5.296875 Z M 14.546875 -5.296875 "/></g></g></g><g fill="#000000" fill-opacity="1"><g transform="translate(236.180913, 275.999953)"><g><path d="M 21.046875 0 L 14.046875 0 L 14.046875 -26.84375 C 14.046875 -27.113281 13.953125 -27.347656 13.765625 -27.546875 C 13.585938 -27.742188 13.363281 -27.84375 13.09375 -27.84375 L 10.40625 -27.84375 C 10.132812 -27.84375 9.90625 -27.742188 9.71875 -27.546875 C 9.539062 -27.347656 9.453125 -27.113281 9.453125 -26.84375 L 9.453125 0 L 2.453125 0 L 2.453125 -26.25 C 2.453125 -30.644531 4.519531 -32.84375 8.65625 -32.84375 L 14.84375 -32.84375 C 18.976562 -32.84375 21.046875 -30.644531 21.046875 -26.25 Z M 21.046875 0 "/></g></g></g><g fill="#000000" fill-opacity="1"><g transform="translate(83.759766, 325.49995)"><g><path d="M 21.546875 -26.25 L 21.546875 -6.09375 C 21.546875 -1.695312 19.476562 0.5 15.34375 0.5 L 8.703125 0.5 C 4.566406 0.5 2.5 -1.695312 2.5 -6.09375 L 2.5 -26.25 C 2.5 -30.644531 4.566406 -32.84375 8.703125 -32.84375 L 15.34375 -32.84375 C 19.476562 -32.84375 21.546875 -30.644531 21.546875 -26.25 Z M 14.546875 -5.296875 L 14.546875 -27.09375 C 14.546875 -27.363281 14.453125 -27.597656 14.265625 -27.796875 C 14.085938 -27.992188 13.863281 -28.09375 13.59375 -28.09375 L 10.453125 -28.09375 C 10.179688 -28.09375 9.953125 -27.992188 9.765625 -27.796875 C 9.585938 -27.597656 9.5 -27.363281 9.5 -27.09375 L 9.5 -5.296875 C 9.5 -5.035156 9.585938 -4.800781 9.765625 -4.59375 C 9.953125 -4.394531 10.179688 -4.296875 10.453125 -4.296875 L 13.59375 -4.296875 C 13.863281 -4.296875 14.085938 -4.394531 14.265625 -4.59375 C 14.453125 -4.800781 14.546875 -5.035156 14.546875 -5.296875 Z M 14.546875 -5.296875 "/></g></g></g><g fill="#000000" fill-opacity="1"><g transform="translate(107.956019, 325.49995)"><g><path d="M 9.5 -12.703125 L 9.5 0 L 2.5 0 L 2.5 -32.34375 L 17.09375 -32.34375 L 17.09375 -26.296875 L 9.5 -26.296875 L 9.5 -18.546875 L 16.59375 -18.546875 L 16.59375 -12.703125 Z M 9.5 -12.703125 "/></g></g></g><g fill="#000000" fill-opacity="1"><g transform="translate(126.653123, 325.49995)"><g/></g></g><g fill="#000000" fill-opacity="1"><g transform="translate(136.751561, 325.49995)"><g><path d="M 14.546875 -5.296875 L 14.546875 -10.296875 L 21.203125 -10.296875 L 21.203125 -6.09375 C 21.203125 -1.695312 19.132812 0.5 15 0.5 L 8.703125 0.5 C 4.566406 0.5 2.5 -1.695312 2.5 -6.09375 L 2.5 -26.25 C 2.5 -30.644531 4.566406 -32.84375 8.703125 -32.84375 L 15 -32.84375 C 19.132812 -32.84375 21.203125 -30.644531 21.203125 -26.25 L 21.203125 -23.203125 L 14.546875 -23.203125 L 14.546875 -27.09375 C 14.546875 -27.363281 14.453125 -27.597656 14.265625 -27.796875 C 14.085938 -27.992188 13.863281 -28.09375 13.59375 -28.09375 L 10.453125 -28.09375 C 10.179688 -28.09375 9.953125 -27.992188 9.765625 -27.796875 C 9.585938 -27.597656 9.5 -27.363281 9.5 -27.09375 L 9.5 -5.296875 C 9.5 -5.035156 9.585938 -4.800781 9.765625 -4.59375 C 9.953125 -4.394531 10.179688 -4.296875 10.453125 -4.296875 L 13.59375 -4.296875 C 13.863281 -4.296875 14.085938 -4.394531 14.265625 -4.59375 C 14.453125 -4.800781 14.546875 -5.035156 14.546875 -5.296875 Z M 14.546875 -5.296875 "/></g></g></g><g fill="#000000" fill-opacity="1"><g transform="translate(159.648017, 325.49995)"><g><path d="M 21.546875 -26.25 L 21.546875 -6.09375 C 21.546875 -1.695312 19.476562 0.5 15.34375 0.5 L 8.703125 0.5 C 4.566406 0.5 2.5 -1.695312 2.5 -6.09375 L 2.5 -26.25 C 2.5 -30.644531 4.566406 -32.84375 8.703125 -32.84375 L 15.34375 -32.84375 C 19.476562 -32.84375 21.546875 -30.644531 21.546875 -26.25 Z M 14.546875 -5.296875 L 14.546875 -27.09375 C 14.546875 -27.363281 14.453125 -27.597656 14.265625 -27.796875 C 14.085938 -27.992188 13.863281 -28.09375 13.59375 -28.09375 L 10.453125 -28.09375 C 10.179688 -28.09375 9.953125 -27.992188 9.765625 -27.796875 C 9.585938 -27.597656 9.5 -27.363281 9.5 -27.09375 L 9.5 -5.296875 C 9.5 -5.035156 9.585938 -4.800781 9.765625 -4.59375 C 9.953125 -4.394531 10.179688 -4.296875 10.453125 -4.296875 L 13.59375 -4.296875 C 13.863281 -4.296875 14.085938 -4.394531 14.265625 -4.59375 C 14.453125 -4.800781 14.546875 -5.035156 14.546875 -5.296875 Z M 14.546875 -5.296875 "/></g></g></g><g fill="#000000" fill-opacity="1"><g transform="translate(183.84427, 325.49995)"><g><path d="M 21.046875 0 L 14.046875 0 L 14.046875 -26.84375 C 14.046875 -27.113281 13.953125 -27.347656 13.765625 -27.546875 C 13.585938 -27.742188 13.363281 -27.84375 13.09375 -27.84375 L 10.40625 -27.84375 C 10.132812 -27.84375 9.90625 -27.742188 9.71875 -27.546875 C 9.539062 -27.347656 9.453125 -27.113281 9.453125 -26.84375 L 9.453125 0 L 2.453125 0 L 2.453125 -26.25 C 2.453125 -30.644531 4.519531 -32.84375 8.65625 -32.84375 L 14.84375 -32.84375 C 18.976562 -32.84375 21.046875 -30.644531 21.046875 -26.25 Z M 21.046875 0 "/></g></g></g><g fill="#000000" fill-opacity="1"><g transform="translate(207.090675, 325.49995)"><g><path d="M 0.65625 -26.40625 L 0.65625 -32.34375 L 18.15625 -32.34375 L 18.15625 -26.40625 L 12.90625 -26.40625 L 12.90625 0 L 5.90625 0 L 5.90625 -26.40625 Z M 0.65625 -26.40625 "/></g></g></g><g fill="#000000" fill-opacity="1"><g transform="translate(225.937754, 325.49995)"><g><path d="M 9.5 -13.25 L 9.5 0 L 2.5 0 L 2.5 -32.34375 L 14.953125 -32.34375 C 19.085938 -32.34375 21.15625 -30.144531 21.15625 -25.75 L 21.15625 -22 C 21.15625 -19.332031 20.203125 -17.632812 18.296875 -16.90625 C 19.960938 -16.300781 20.796875 -14.929688 20.796875 -12.796875 L 20.796875 0 L 13.796875 0 L 13.796875 -12.25 C 13.796875 -12.914062 13.476562 -13.25 12.84375 -13.25 Z M 9.5 -27.59375 L 9.5 -18.15625 L 13.203125 -18.15625 C 13.460938 -18.15625 13.6875 -18.253906 13.875 -18.453125 C 14.0625 -18.648438 14.15625 -18.882812 14.15625 -19.15625 L 14.15625 -26.59375 C 14.15625 -26.863281 14.0625 -27.097656 13.875 -27.296875 C 13.6875 -27.492188 13.460938 -27.59375 13.203125 -27.59375 Z M 9.5 -27.59375 "/></g></g></g><g fill="#000000" fill-opacity="1"><g transform="translate(249.084172, 325.49995)"><g><path d="M 21.546875 -26.25 L 21.546875 -6.09375 C 21.546875 -1.695312 19.476562 0.5 15.34375 0.5 L 8.703125 0.5 C 4.566406 0.5 2.5 -1.695312 2.5 -6.09375 L 2.5 -26.25 C 2.5 -30.644531 4.566406 -32.84375 8.703125 -32.84375 L 15.34375 -32.84375 C 19.476562 -32.84375 21.546875 -30.644531 21.546875 -26.25 Z M 14.546875 -5.296875 L 14.546875 -27.09375 C 14.546875 -27.363281 14.453125 -27.597656 14.265625 -27.796875 C 14.085938 -27.992188 13.863281 -28.09375 13.59375 -28.09375 L 10.453125 -28.09375 C 10.179688 -28.09375 9.953125 -27.992188 9.765625 -27.796875 C 9.585938 -27.597656 9.5 -27.363281 9.5 -27.09375 L 9.5 -5.296875 C 9.5 -5.035156 9.585938 -4.800781 9.765625 -4.59375 C 9.953125 -4.394531 10.179688 -4.296875 10.453125 -4.296875 L 13.59375 -4.296875 C 13.863281 -4.296875 14.085938 -4.394531 14.265625 -4.59375 C 14.453125 -4.800781 14.546875 -5.035156 14.546875 -5.296875 Z M 14.546875 -5.296875 "/></g></g></g><g fill="#000000" fill-opacity="1"><g transform="translate(273.280425, 325.49995)"><g><path d="M 9.5 -5.90625 L 17.15625 -5.90625 L 17.15625 0 L 2.5 0 L 2.5 -32.34375 L 9.5 -32.34375 Z M 9.5 -5.90625 "/></g></g></g><g clip-path="url(#a724db21d6)"><g clip-path="url(#292003faeb)"><path fill="#80c432" d="M 117.472656 230.5 L 117.472656 162.230469 L 185.746094 162.230469 L 185.746094 230.5 Z M 117.472656 230.5 " fill-opacity="1" fill-rule="nonzero"/></g></g><g clip-path="url(#bbdd98e82b)"><g clip-path="url(#3c1cc90225)"><path fill="#80c432" d="M 257.527344 90.449219 L 257.527344 158.71875 L 189.253906 158.71875 L 189.253906 90.449219 Z M 257.527344 90.449219 " fill-opacity="1" fill-rule="nonzero"/></g></g><g clip-path="url(#0405a931c0)"><g clip-path="url(#bc35103737)"><path fill="#80c432" d="M 117.472656 90.449219 L 185.746094 90.449219 L 185.746094 158.71875 L 117.472656 158.71875 Z M 117.472656 90.449219 " fill-opacity="1" fill-rule="nonzero"/></g></g><g clip-path="url(#383d6a713b)"><g clip-path="url(#63396c620c)"><path fill="#80c432" d="M 257.527344 230.5 L 189.253906 230.5 L 189.253906 162.230469 L 257.527344 162.230469 Z M 257.527344 230.5 " fill-opacity="1" fill-rule="nonzero"/></g></g><g clip-path="url(#8cfdc4d818)"><g clip-path="url(#81dd391149)"><g clip-path="url(#8652a1e9b1)"><path fill="#80c432" d="M 160.210938 160.46875 L 187.503906 133.175781 L 214.792969 160.46875 L 187.503906 187.761719 Z M 160.210938 160.46875 " fill-opacity="1" fill-rule="nonzero"/></g></g></g></svg>