<svg xmlns="http://www.w3.org/2000/svg" xmlns:xlink="http://www.w3.org/1999/xlink" width="500" zoomAndPan="magnify" viewBox="0 0 375 374.999991" height="500" preserveAspectRatio="xMidYMid meet" version="1.0"><defs><g/><clipPath id="38e35348a2"><path d="M 137.183594 173.226562 L 186.238281 173.226562 L 186.238281 222.28125 L 137.183594 222.28125 Z M 137.183594 173.226562 " clip-rule="nonzero"/></clipPath><clipPath id="b43f522f9c"><path d="M 137.183594 197.757812 C 137.183594 211.304688 148.164062 222.28125 161.710938 222.28125 C 175.253906 222.28125 186.234375 211.304688 186.234375 197.757812 L 186.234375 173.230469 L 161.710938 173.230469 C 148.164062 173.226562 137.183594 184.210938 137.183594 197.757812 Z M 137.183594 197.757812 " clip-rule="nonzero"/></clipPath><clipPath id="32f9e92b45"><path d="M 188.761719 121.652344 L 237.816406 121.652344 L 237.816406 170.707031 L 188.761719 170.707031 Z M 188.761719 121.652344 " clip-rule="nonzero"/></clipPath><clipPath id="f6008c6446"><path d="M 237.816406 146.175781 C 237.816406 132.632812 226.835938 121.652344 213.289062 121.652344 C 199.746094 121.652344 188.765625 132.632812 188.765625 146.175781 L 188.765625 170.703125 L 213.289062 170.703125 C 226.835938 170.707031 237.816406 159.722656 237.816406 146.175781 Z M 237.816406 146.175781 " clip-rule="nonzero"/></clipPath><clipPath id="88894288e9"><path d="M 137.183594 121.652344 L 186.238281 121.652344 L 186.238281 170.707031 L 137.183594 170.707031 Z M 137.183594 121.652344 " clip-rule="nonzero"/></clipPath><clipPath id="8fd9522ce4"><path d="M 161.710938 121.652344 C 148.164062 121.652344 137.183594 132.632812 137.183594 146.175781 C 137.183594 159.722656 148.164062 170.703125 161.710938 170.703125 L 186.234375 170.703125 L 186.234375 146.175781 C 186.238281 132.632812 175.253906 121.652344 161.710938 121.652344 Z M 161.710938 121.652344 " clip-rule="nonzero"/></clipPath><clipPath id="461cdb9e02"><path d="M 188.761719 173.226562 L 237.816406 173.226562 L 237.816406 222.28125 L 188.761719 222.28125 Z M 188.761719 173.226562 " clip-rule="nonzero"/></clipPath><clipPath id="2baf705ecb"><path d="M 213.289062 222.28125 C 226.835938 222.28125 237.816406 211.304688 237.816406 197.757812 C 237.816406 184.210938 226.835938 173.230469 213.289062 173.230469 L 188.765625 173.230469 L 188.765625 197.757812 C 188.761719 211.304688 199.746094 222.28125 213.289062 222.28125 Z M 213.289062 222.28125 " clip-rule="nonzero"/></clipPath><clipPath id="e5a1bdbf41"><path d="M 173 158 L 202 158 L 202 186 L 173 186 Z M 173 158 " clip-rule="nonzero"/></clipPath><clipPath id="618234e7c1"><path d="M 167.890625 171.964844 L 187.5 152.351562 L 207.113281 171.964844 L 187.5 191.574219 Z M 167.890625 171.964844 " clip-rule="nonzero"/></clipPath><clipPath id="d4114323c5"><path d="M 177.695312 162.160156 C 172.28125 167.574219 172.28125 176.355469 177.695312 181.769531 C 183.113281 187.183594 191.890625 187.183594 197.308594 181.769531 C 202.722656 176.355469 202.722656 167.574219 197.308594 162.160156 C 191.890625 156.742188 183.113281 156.742188 177.695312 162.160156 Z M 177.695312 162.160156 " clip-rule="nonzero"/></clipPath></defs><g clip-path="url(#38e35348a2)"><g clip-path="url(#b43f522f9c)"><path fill="#80c432" d="M 137.183594 222.28125 L 137.183594 173.226562 L 186.238281 173.226562 L 186.238281 222.28125 Z M 137.183594 222.28125 " fill-opacity="1" fill-rule="nonzero"/></g></g><g clip-path="url(#32f9e92b45)"><g clip-path="url(#f6008c6446)"><path fill="#80c432" d="M 237.816406 121.652344 L 237.816406 170.707031 L 188.761719 170.707031 L 188.761719 121.652344 Z M 237.816406 121.652344 " fill-opacity="1" fill-rule="nonzero"/></g></g><g clip-path="url(#88894288e9)"><g clip-path="url(#8fd9522ce4)"><path fill="#80c432" d="M 137.183594 121.652344 L 186.238281 121.652344 L 186.238281 170.707031 L 137.183594 170.707031 Z M 137.183594 121.652344 " fill-opacity="1" fill-rule="nonzero"/></g></g><g clip-path="url(#461cdb9e02)"><g clip-path="url(#2baf705ecb)"><path fill="#80c432" d="M 237.816406 222.28125 L 188.761719 222.28125 L 188.761719 173.226562 L 237.816406 173.226562 Z M 237.816406 222.28125 " fill-opacity="1" fill-rule="nonzero"/></g></g><g clip-path="url(#e5a1bdbf41)"><g clip-path="url(#618234e7c1)"><g clip-path="url(#d4114323c5)"><path fill="#80c432" d="M 167.890625 171.964844 L 187.5 152.351562 L 207.113281 171.964844 L 187.5 191.574219 Z M 167.890625 171.964844 " fill-opacity="1" fill-rule="nonzero"/></g></g></g><g fill="#000000" fill-opacity="1"><g transform="translate(28.445794, 267.215562)"><g><path d="M 9.328125 -31.765625 L 9.328125 0 L 2.453125 0 L 2.453125 -31.765625 Z M 9.328125 -31.765625 "/></g></g></g><g fill="#000000" fill-opacity="1"><g transform="translate(40.423706, 267.215562)"><g><path d="M 8.78125 0 L 2.203125 0 L 2.203125 -31.765625 L 8.78125 -31.765625 Z M 8.78125 0 "/></g></g></g><g fill="#000000" fill-opacity="1"><g transform="translate(51.419818, 267.215562)"><g><path d="M 8.78125 0 L 2.203125 0 L 2.203125 -31.765625 L 8.78125 -31.765625 Z M 8.78125 0 "/></g></g></g><g fill="#000000" fill-opacity="1"><g transform="translate(62.415931, 267.215562)"><g><path d="M 13.359375 -23.953125 L 19.9375 -23.953125 L 19.9375 0 L 13.9375 0 L 13.9375 -1.234375 C 12.925781 -0.0859375 11.390625 0.484375 9.328125 0.484375 L 8.296875 0.484375 C 4.234375 0.484375 2.203125 -1.671875 2.203125 -5.984375 L 2.203125 -23.953125 L 8.78125 -23.953125 L 8.78125 -5.203125 C 8.78125 -4.941406 8.867188 -4.710938 9.046875 -4.515625 C 9.234375 -4.316406 9.457031 -4.21875 9.71875 -4.21875 L 12.421875 -4.21875 C 12.679688 -4.21875 12.898438 -4.316406 13.078125 -4.515625 C 13.265625 -4.710938 13.359375 -4.941406 13.359375 -5.203125 Z M 13.359375 -23.953125 "/></g></g></g><g fill="#000000" fill-opacity="1"><g transform="translate(84.604513, 267.215562)"><g><path d="M 13.5 -15.015625 C 17.5625 -15.015625 19.59375 -12.859375 19.59375 -8.546875 L 19.59375 -5.984375 C 19.59375 -1.671875 17.5625 0.484375 13.5 0.484375 L 8.046875 0.484375 C 3.992188 0.484375 1.96875 -1.671875 1.96875 -5.984375 L 1.96875 -7.515625 L 8.046875 -7.515625 L 8.046875 -5.34375 C 8.046875 -5.082031 8.132812 -4.851562 8.3125 -4.65625 C 8.5 -4.46875 8.722656 -4.375 8.984375 -4.375 L 13.015625 -4.375 C 13.273438 -4.375 13.492188 -4.46875 13.671875 -4.65625 C 13.847656 -4.851562 13.9375 -5.082031 13.9375 -5.34375 L 13.9375 -8.296875 C 13.9375 -8.554688 13.847656 -8.785156 13.671875 -8.984375 C 13.492188 -9.179688 13.273438 -9.28125 13.015625 -9.28125 L 7.953125 -9.28125 C 3.890625 -9.28125 1.859375 -11.441406 1.859375 -15.765625 L 1.859375 -17.96875 C 1.859375 -22.289062 3.890625 -24.453125 7.953125 -24.453125 L 13.109375 -24.453125 C 17.171875 -24.453125 19.203125 -22.289062 19.203125 -17.96875 L 19.203125 -17.078125 L 13.109375 -17.078125 L 13.109375 -18.609375 C 13.109375 -18.867188 13.015625 -19.097656 12.828125 -19.296875 C 12.648438 -19.492188 12.429688 -19.59375 12.171875 -19.59375 L 8.4375 -19.59375 C 8.175781 -19.59375 7.957031 -19.492188 7.78125 -19.296875 C 7.601562 -19.097656 7.515625 -18.867188 7.515625 -18.609375 L 7.515625 -16 C 7.515625 -15.738281 7.601562 -15.507812 7.78125 -15.3125 C 7.957031 -15.113281 8.175781 -15.015625 8.4375 -15.015625 Z M 13.5 -15.015625 "/></g></g></g><g fill="#000000" fill-opacity="1"><g transform="translate(105.860389, 267.215562)"><g><path d="M 8.90625 -26.953125 C 8.207031 -26.265625 7.363281 -25.921875 6.375 -25.921875 C 5.394531 -25.921875 4.546875 -26.269531 3.828125 -26.96875 C 3.109375 -27.675781 2.75 -28.53125 2.75 -29.53125 C 2.75 -30.53125 3.109375 -31.378906 3.828125 -32.078125 C 4.546875 -32.785156 5.394531 -33.140625 6.375 -33.140625 C 7.363281 -33.140625 8.207031 -32.785156 8.90625 -32.078125 C 9.613281 -31.378906 9.96875 -30.519531 9.96875 -29.5 C 9.96875 -28.488281 9.613281 -27.640625 8.90625 -26.953125 Z M 3.09375 0 L 3.09375 -23.953125 L 9.671875 -23.953125 L 9.671875 0 Z M 3.09375 0 "/></g></g></g><g fill="#000000" fill-opacity="1"><g transform="translate(117.93648, 267.215562)"><g><path d="M 19.9375 -17.96875 L 19.9375 -5.984375 C 19.9375 -1.671875 17.90625 0.484375 13.84375 0.484375 L 8.296875 0.484375 C 4.234375 0.484375 2.203125 -1.671875 2.203125 -5.984375 L 2.203125 -17.96875 C 2.203125 -22.289062 4.234375 -24.453125 8.296875 -24.453125 L 13.84375 -24.453125 C 17.90625 -24.453125 19.9375 -22.289062 19.9375 -17.96875 Z M 13.359375 -4.609375 L 13.359375 -19.390625 C 13.359375 -19.648438 13.265625 -19.878906 13.078125 -20.078125 C 12.898438 -20.273438 12.679688 -20.375 12.421875 -20.375 L 9.71875 -20.375 C 9.457031 -20.375 9.234375 -20.273438 9.046875 -20.078125 C 8.867188 -19.878906 8.78125 -19.648438 8.78125 -19.390625 L 8.78125 -4.609375 C 8.78125 -4.347656 8.867188 -4.117188 9.046875 -3.921875 C 9.234375 -3.734375 9.457031 -3.640625 9.71875 -3.640625 L 12.421875 -3.640625 C 12.679688 -3.640625 12.898438 -3.734375 13.078125 -3.921875 C 13.265625 -4.117188 13.359375 -4.347656 13.359375 -4.609375 Z M 13.359375 -4.609375 "/></g></g></g><g fill="#000000" fill-opacity="1"><g transform="translate(140.125062, 267.215562)"><g><path d="M 8.78125 0 L 2.203125 0 L 2.203125 -23.953125 L 8.203125 -23.953125 L 8.203125 -22.734375 C 9.210938 -23.878906 10.75 -24.453125 12.8125 -24.453125 L 13.84375 -24.453125 C 17.90625 -24.453125 19.9375 -22.289062 19.9375 -17.96875 L 19.9375 0 L 13.359375 0 L 13.359375 -18.75 C 13.359375 -19.007812 13.265625 -19.238281 13.078125 -19.4375 C 12.898438 -19.632812 12.679688 -19.734375 12.421875 -19.734375 L 9.71875 -19.734375 C 9.457031 -19.734375 9.234375 -19.632812 9.046875 -19.4375 C 8.867188 -19.238281 8.78125 -19.007812 8.78125 -18.75 Z M 8.78125 0 "/></g></g></g><g fill="#000000" fill-opacity="1"><g transform="translate(162.313644, 267.215562)"><g/></g></g><g fill="#000000" fill-opacity="1"><g transform="translate(172.229778, 267.215562)"><g><path d="M 19.9375 -17.96875 L 19.9375 -5.984375 C 19.9375 -1.671875 17.90625 0.484375 13.84375 0.484375 L 8.296875 0.484375 C 4.234375 0.484375 2.203125 -1.671875 2.203125 -5.984375 L 2.203125 -17.96875 C 2.203125 -22.289062 4.234375 -24.453125 8.296875 -24.453125 L 13.84375 -24.453125 C 17.90625 -24.453125 19.9375 -22.289062 19.9375 -17.96875 Z M 13.359375 -4.609375 L 13.359375 -19.390625 C 13.359375 -19.648438 13.265625 -19.878906 13.078125 -20.078125 C 12.898438 -20.273438 12.679688 -20.375 12.421875 -20.375 L 9.71875 -20.375 C 9.457031 -20.375 9.234375 -20.273438 9.046875 -20.078125 C 8.867188 -19.878906 8.78125 -19.648438 8.78125 -19.390625 L 8.78125 -4.609375 C 8.78125 -4.347656 8.867188 -4.117188 9.046875 -3.921875 C 9.234375 -3.734375 9.457031 -3.640625 9.71875 -3.640625 L 12.421875 -3.640625 C 12.679688 -3.640625 12.898438 -3.734375 13.078125 -3.921875 C 13.265625 -4.117188 13.359375 -4.347656 13.359375 -4.609375 Z M 13.359375 -4.609375 "/></g></g></g><g fill="#000000" fill-opacity="1"><g transform="translate(194.41836, 267.215562)"><g><path d="M 10.953125 -27.734375 C 10.234375 -27.734375 9.691406 -27.566406 9.328125 -27.234375 C 8.960938 -26.910156 8.78125 -26.289062 8.78125 -25.375 L 8.78125 -23.953125 L 12.90625 -23.953125 L 12.90625 -19 L 8.78125 -19 L 8.78125 0 L 2.203125 0 L 2.203125 -25.78125 C 2.203125 -30.09375 4.234375 -32.25 8.296875 -32.25 L 12.90625 -32.25 L 12.90625 -27.734375 Z M 10.953125 -27.734375 "/></g></g></g><g fill="#000000" fill-opacity="1"><g transform="translate(208.016229, 267.215562)"><g/></g></g><g fill="#000000" fill-opacity="1"><g transform="translate(217.932362, 267.215562)"><g><path d="M 14.28125 -5.203125 L 14.28125 -10.109375 L 20.8125 -10.109375 L 20.8125 -5.984375 C 20.8125 -1.671875 18.785156 0.484375 14.734375 0.484375 L 8.546875 0.484375 C 4.484375 0.484375 2.453125 -1.671875 2.453125 -5.984375 L 2.453125 -25.78125 C 2.453125 -30.09375 4.484375 -32.25 8.546875 -32.25 L 14.734375 -32.25 C 18.785156 -32.25 20.8125 -30.09375 20.8125 -25.78125 L 20.8125 -22.78125 L 14.28125 -22.78125 L 14.28125 -26.609375 C 14.28125 -26.867188 14.191406 -27.097656 14.015625 -27.296875 C 13.835938 -27.492188 13.617188 -27.59375 13.359375 -27.59375 L 10.265625 -27.59375 C 10.003906 -27.59375 9.78125 -27.492188 9.59375 -27.296875 C 9.414062 -27.097656 9.328125 -26.867188 9.328125 -26.609375 L 9.328125 -5.203125 C 9.328125 -4.941406 9.414062 -4.710938 9.59375 -4.515625 C 9.78125 -4.316406 10.003906 -4.21875 10.265625 -4.21875 L 13.359375 -4.21875 C 13.617188 -4.21875 13.835938 -4.316406 14.015625 -4.515625 C 14.191406 -4.710938 14.28125 -4.941406 14.28125 -5.203125 Z M 14.28125 -5.203125 "/></g></g></g><g fill="#000000" fill-opacity="1"><g transform="translate(240.415492, 267.215562)"><g><path d="M 19.9375 -17.96875 L 19.9375 -5.984375 C 19.9375 -1.671875 17.90625 0.484375 13.84375 0.484375 L 8.296875 0.484375 C 4.234375 0.484375 2.203125 -1.671875 2.203125 -5.984375 L 2.203125 -17.96875 C 2.203125 -22.289062 4.234375 -24.453125 8.296875 -24.453125 L 13.84375 -24.453125 C 17.90625 -24.453125 19.9375 -22.289062 19.9375 -17.96875 Z M 13.359375 -4.609375 L 13.359375 -19.390625 C 13.359375 -19.648438 13.265625 -19.878906 13.078125 -20.078125 C 12.898438 -20.273438 12.679688 -20.375 12.421875 -20.375 L 9.71875 -20.375 C 9.457031 -20.375 9.234375 -20.273438 9.046875 -20.078125 C 8.867188 -19.878906 8.78125 -19.648438 8.78125 -19.390625 L 8.78125 -4.609375 C 8.78125 -4.347656 8.867188 -4.117188 9.046875 -3.921875 C 9.234375 -3.734375 9.457031 -3.640625 9.71875 -3.640625 L 12.421875 -3.640625 C 12.679688 -3.640625 12.898438 -3.734375 13.078125 -3.921875 C 13.265625 -4.117188 13.359375 -4.347656 13.359375 -4.609375 Z M 13.359375 -4.609375 "/></g></g></g><g fill="#000000" fill-opacity="1"><g transform="translate(262.604074, 267.215562)"><g><path d="M 8.78125 0 L 2.203125 0 L 2.203125 -23.953125 L 8.203125 -23.953125 L 8.203125 -22.734375 C 9.210938 -23.878906 10.75 -24.453125 12.8125 -24.453125 L 13.84375 -24.453125 C 17.90625 -24.453125 19.9375 -22.289062 19.9375 -17.96875 L 19.9375 0 L 13.359375 0 L 13.359375 -18.75 C 13.359375 -19.007812 13.265625 -19.238281 13.078125 -19.4375 C 12.898438 -19.632812 12.679688 -19.734375 12.421875 -19.734375 L 9.71875 -19.734375 C 9.457031 -19.734375 9.234375 -19.632812 9.046875 -19.4375 C 8.867188 -19.238281 8.78125 -19.007812 8.78125 -18.75 Z M 8.78125 0 "/></g></g></g><g fill="#000000" fill-opacity="1"><g transform="translate(284.792656, 267.215562)"><g><path d="M 10.953125 -3.78125 L 12.90625 -3.78125 L 12.90625 0.484375 L 8.296875 0.484375 C 4.234375 0.484375 2.203125 -1.671875 2.203125 -5.984375 L 2.203125 -29.15625 L 8.78125 -29.15625 L 8.78125 -23.953125 L 12.90625 -23.953125 L 12.90625 -19.203125 L 8.78125 -19.203125 L 8.78125 -6.140625 C 8.78125 -5.222656 8.960938 -4.597656 9.328125 -4.265625 C 9.691406 -3.941406 10.234375 -3.78125 10.953125 -3.78125 Z M 10.953125 -3.78125 "/></g></g></g><g fill="#000000" fill-opacity="1"><g transform="translate(298.930503, 267.215562)"><g><path d="M 12.421875 -24.453125 L 13.703125 -24.453125 L 13.703125 -18.0625 L 10.453125 -18.0625 C 9.335938 -18.0625 8.78125 -17.488281 8.78125 -16.34375 L 8.78125 0 L 2.203125 0 L 2.203125 -23.953125 L 8.203125 -23.953125 L 8.203125 -21.65625 C 9.148438 -23.519531 10.554688 -24.453125 12.421875 -24.453125 Z M 12.421875 -24.453125 "/></g></g></g><g fill="#000000" fill-opacity="1"><g transform="translate(313.362899, 267.215562)"><g><path d="M 19.9375 -17.96875 L 19.9375 -5.984375 C 19.9375 -1.671875 17.90625 0.484375 13.84375 0.484375 L 8.296875 0.484375 C 4.234375 0.484375 2.203125 -1.671875 2.203125 -5.984375 L 2.203125 -17.96875 C 2.203125 -22.289062 4.234375 -24.453125 8.296875 -24.453125 L 13.84375 -24.453125 C 17.90625 -24.453125 19.9375 -22.289062 19.9375 -17.96875 Z M 13.359375 -4.609375 L 13.359375 -19.390625 C 13.359375 -19.648438 13.265625 -19.878906 13.078125 -20.078125 C 12.898438 -20.273438 12.679688 -20.375 12.421875 -20.375 L 9.71875 -20.375 C 9.457031 -20.375 9.234375 -20.273438 9.046875 -20.078125 C 8.867188 -19.878906 8.78125 -19.648438 8.78125 -19.390625 L 8.78125 -4.609375 C 8.78125 -4.347656 8.867188 -4.117188 9.046875 -3.921875 C 9.234375 -3.734375 9.457031 -3.640625 9.71875 -3.640625 L 12.421875 -3.640625 C 12.679688 -3.640625 12.898438 -3.734375 13.078125 -3.921875 C 13.265625 -4.117188 13.359375 -4.347656 13.359375 -4.609375 Z M 13.359375 -4.609375 "/></g></g></g><g fill="#000000" fill-opacity="1"><g transform="translate(335.551481, 267.215562)"><g><path d="M 8.78125 0 L 2.203125 0 L 2.203125 -31.765625 L 8.78125 -31.765625 Z M 8.78125 0 "/></g></g></g></svg>