<svg xmlns="http://www.w3.org/2000/svg" xmlns:xlink="http://www.w3.org/1999/xlink" width="500" zoomAndPan="magnify" viewBox="0 0 375 374.999991" height="500" preserveAspectRatio="xMidYMid meet" version="1.0"><defs><g/><clipPath id="46b1040ace"><path d="M 132.570312 54.792969 L 308.070312 54.792969 L 308.070312 230.292969 L 132.570312 230.292969 Z M 132.570312 54.792969 " clip-rule="nonzero"/></clipPath></defs><path fill="#f4f3f3" d="M 204.050781 152.480469 C 186.746094 140.363281 162.75 152.800781 162.75 174.027344 C 162.75 188.519531 174.539062 200.308594 189.03125 200.308594 C 210.253906 200.308594 222.703125 176.320312 210.582031 159.007812 L 202.023438 167.5625 C 206.988281 177.535156 199.539062 188.589844 189.03125 188.589844 C 181.003906 188.589844 174.46875 182.058594 174.46875 174.027344 C 174.46875 163.519531 185.523438 156.066406 195.496094 161.035156 L 204.050781 152.480469 " fill-opacity="1" fill-rule="nonzero"/><path fill="#f4f3f3" d="M 189.03125 221.253906 C 229.046875 221.253906 250.621094 174.5 225.53125 144.058594 L 217.171875 152.414062 C 235.058594 175.613281 218.46875 209.542969 189.03125 209.542969 C 169.453125 209.542969 153.519531 193.605469 153.519531 174.027344 C 153.519531 144.625 187.421875 127.980469 210.644531 145.894531 L 219 137.53125 C 188.496094 112.386719 141.800781 134.070312 141.800781 174.027344 C 141.800781 200.070312 162.988281 221.253906 189.03125 221.253906 " fill-opacity="1" fill-rule="nonzero"/><path fill="#f4f3f3" d="M 183.695312 174.027344 C 183.695312 181.078125 194.367188 181.078125 194.367188 174.027344 C 194.367188 167.09375 183.695312 166.863281 183.695312 174.027344 " fill-opacity="1" fill-rule="nonzero"/><g clip-path="url(#46b1040ace)"><path fill="#ff66c4" d="M 194.367188 174.027344 C 194.367188 181.078125 183.695312 181.078125 183.695312 174.027344 C 183.695312 166.863281 194.367188 167.09375 194.367188 174.027344 Z M 174.46875 174.027344 C 174.46875 182.058594 181.003906 188.589844 189.03125 188.589844 C 199.539062 188.589844 206.988281 177.535156 202.023438 167.5625 L 210.582031 159.007812 C 222.703125 176.320312 210.253906 200.308594 189.03125 200.308594 C 174.539062 200.308594 162.75 188.519531 162.75 174.027344 C 162.75 152.800781 186.746094 140.363281 204.050781 152.480469 L 195.496094 161.035156 C 185.523438 156.066406 174.46875 163.519531 174.46875 174.027344 Z M 219 137.53125 L 210.644531 145.894531 C 187.421875 127.980469 153.519531 144.625 153.519531 174.027344 C 153.519531 193.605469 169.453125 209.542969 189.03125 209.542969 C 218.46875 209.542969 235.058594 175.613281 217.171875 152.414062 L 225.53125 144.058594 C 250.621094 174.5 229.046875 221.253906 189.03125 221.253906 C 162.988281 221.253906 141.800781 200.070312 141.800781 174.027344 C 141.800781 134.070312 188.496094 112.386719 219 137.53125 Z M 189.03125 230.484375 C 237.085938 230.484375 263.066406 173.964844 232.058594 137.53125 L 257.921875 111.667969 L 257.84375 111.589844 L 284.421875 105.015625 L 308.261719 81.175781 L 281.890625 81.175781 L 281.886719 54.796875 L 258.042969 78.636719 L 251.46875 105.214844 L 251.394531 105.136719 L 225.53125 131.007812 C 189.089844 99.988281 132.574219 125.972656 132.574219 174.027344 C 132.574219 205.15625 157.902344 230.484375 189.03125 230.484375 " fill-opacity="1" fill-rule="nonzero"/></g><g fill="#000000" fill-opacity="1"><g transform="translate(85.03125, 275.999982)"><g><path d="M 21.046875 0 L 14.046875 0 L 14.046875 -26.84375 C 14.046875 -27.113281 13.953125 -27.347656 13.765625 -27.546875 C 13.585938 -27.742188 13.363281 -27.84375 13.09375 -27.84375 L 10.40625 -27.84375 C 10.132812 -27.84375 9.90625 -27.742188 9.71875 -27.546875 C 9.539062 -27.347656 9.453125 -27.113281 9.453125 -26.84375 L 9.453125 0 L 2.453125 0 L 2.453125 -26.25 C 2.453125 -30.644531 4.519531 -32.84375 8.65625 -32.84375 L 14.84375 -32.84375 C 18.976562 -32.84375 21.046875 -30.644531 21.046875 -26.25 Z M 21.046875 0 "/></g></g></g><g fill="#000000" fill-opacity="1"><g transform="translate(108.277655, 275.999982)"><g><path d="M 9.5 -5.796875 L 17.25 -5.796875 L 17.25 0 L 2.5 0 L 2.5 -32.34375 L 17.25 -32.34375 L 17.25 -26.65625 L 9.5 -26.65625 L 9.5 -19.046875 L 16.75 -19.046875 L 16.75 -13.546875 L 9.5 -13.546875 Z M 9.5 -5.796875 "/></g></g></g><g fill="#000000" fill-opacity="1"><g transform="translate(127.074746, 275.999982)"><g><path d="M 15.34375 -32.84375 C 19.476562 -32.84375 21.546875 -30.644531 21.546875 -26.25 L 21.546875 0 L 14.546875 0 L 14.546875 -10.84375 L 9.5 -10.84375 L 9.5 0 L 2.5 0 L 2.5 -26.25 C 2.5 -30.644531 4.566406 -32.84375 8.703125 -32.84375 Z M 9.5 -16.25 L 14.546875 -16.25 L 14.546875 -27.09375 C 14.546875 -27.363281 14.453125 -27.597656 14.265625 -27.796875 C 14.085938 -27.992188 13.863281 -28.09375 13.59375 -28.09375 L 10.453125 -28.09375 C 10.179688 -28.09375 9.953125 -27.992188 9.765625 -27.796875 C 9.585938 -27.597656 9.5 -27.363281 9.5 -27.09375 Z M 9.5 -16.25 "/></g></g></g><g fill="#000000" fill-opacity="1"><g transform="translate(151.320987, 275.999982)"><g><path d="M 9.5 -13.25 L 9.5 0 L 2.5 0 L 2.5 -32.34375 L 14.953125 -32.34375 C 19.085938 -32.34375 21.15625 -30.144531 21.15625 -25.75 L 21.15625 -22 C 21.15625 -19.332031 20.203125 -17.632812 18.296875 -16.90625 C 19.960938 -16.300781 20.796875 -14.929688 20.796875 -12.796875 L 20.796875 0 L 13.796875 0 L 13.796875 -12.25 C 13.796875 -12.914062 13.476562 -13.25 12.84375 -13.25 Z M 9.5 -27.59375 L 9.5 -18.15625 L 13.203125 -18.15625 C 13.460938 -18.15625 13.6875 -18.253906 13.875 -18.453125 C 14.0625 -18.648438 14.15625 -18.882812 14.15625 -19.15625 L 14.15625 -26.59375 C 14.15625 -26.863281 14.0625 -27.097656 13.875 -27.296875 C 13.6875 -27.492188 13.460938 -27.59375 13.203125 -27.59375 Z M 9.5 -27.59375 "/></g></g></g><g fill="#000000" fill-opacity="1"><g transform="translate(174.467405, 275.999982)"><g><path d="M 19.84375 -17.296875 L 19.84375 -11.953125 L 2.796875 -11.953125 L 2.796875 -17.296875 Z M 19.84375 -17.296875 "/></g></g></g><g fill="#000000" fill-opacity="1"><g transform="translate(197.013913, 275.999982)"><g><path d="M 9.453125 0 L 2.453125 0 L 2.453125 -26.25 C 2.453125 -30.644531 4.519531 -32.84375 8.65625 -32.84375 L 12.34375 -32.84375 C 14.78125 -32.84375 16.515625 -32.046875 17.546875 -30.453125 C 18.515625 -32.046875 20.25 -32.84375 22.75 -32.84375 L 26.453125 -32.84375 C 30.585938 -32.84375 32.65625 -30.644531 32.65625 -26.25 L 32.65625 0 L 25.65625 0 L 25.65625 -26.84375 C 25.65625 -27.113281 25.5625 -27.347656 25.375 -27.546875 C 25.1875 -27.742188 24.960938 -27.84375 24.703125 -27.84375 L 22 -27.84375 C 21.726562 -27.84375 21.5 -27.742188 21.3125 -27.546875 C 21.132812 -27.347656 21.046875 -27.113281 21.046875 -26.84375 L 21.046875 0 L 14.046875 0 L 14.046875 -26.84375 C 14.046875 -27.113281 13.953125 -27.347656 13.765625 -27.546875 C 13.585938 -27.742188 13.363281 -27.84375 13.09375 -27.84375 L 10.40625 -27.84375 C 10.132812 -27.84375 9.90625 -27.742188 9.71875 -27.546875 C 9.539062 -27.347656 9.453125 -27.113281 9.453125 -26.84375 Z M 9.453125 0 "/></g></g></g><g fill="#000000" fill-opacity="1"><g transform="translate(231.958502, 275.999982)"><g><path d="M 9.5 -32.34375 L 9.5 0 L 2.5 0 L 2.5 -32.34375 Z M 9.5 -32.34375 "/></g></g></g><g fill="#000000" fill-opacity="1"><g transform="translate(244.15661, 275.999982)"><g><path d="M 20.453125 -23.84375 L 13.796875 -23.84375 L 13.796875 -26.40625 C 13.796875 -26.664062 13.703125 -26.894531 13.515625 -27.09375 C 13.335938 -27.300781 13.113281 -27.40625 12.84375 -27.40625 L 10.09375 -27.40625 C 9.832031 -27.40625 9.609375 -27.300781 9.421875 -27.09375 C 9.242188 -26.894531 9.15625 -26.664062 9.15625 -26.40625 L 9.15625 -20.65625 C 9.15625 -20.382812 9.242188 -20.148438 9.421875 -19.953125 C 9.609375 -19.753906 9.832031 -19.65625 10.09375 -19.65625 L 14.59375 -19.65625 C 18.726562 -19.582031 20.796875 -17.378906 20.796875 -13.046875 L 20.796875 -6.09375 C 20.796875 -1.695312 18.726562 0.5 14.59375 0.5 L 8.703125 0.5 C 4.566406 0.5 2.5 -1.695312 2.5 -6.09375 L 2.5 -9.453125 L 9.15625 -9.453125 L 9.15625 -5.84375 C 9.15625 -5.582031 9.242188 -5.347656 9.421875 -5.140625 C 9.609375 -4.941406 9.832031 -4.84375 10.09375 -4.84375 L 13.203125 -4.84375 C 13.460938 -4.84375 13.6875 -4.941406 13.875 -5.140625 C 14.0625 -5.347656 14.15625 -5.582031 14.15625 -5.84375 L 14.15625 -12.203125 C 14.15625 -12.460938 14.0625 -12.691406 13.875 -12.890625 C 13.6875 -13.097656 13.460938 -13.203125 13.203125 -13.203125 L 8.703125 -13.203125 C 4.566406 -13.203125 2.5 -15.398438 2.5 -19.796875 L 2.5 -26.25 C 2.5 -30.644531 4.566406 -32.84375 8.703125 -32.84375 L 14.25 -32.84375 C 18.382812 -32.84375 20.453125 -30.644531 20.453125 -26.25 Z M 20.453125 -23.84375 "/></g></g></g><g fill="#000000" fill-opacity="1"><g transform="translate(267.053066, 275.999982)"><g><path d="M 20.453125 -23.84375 L 13.796875 -23.84375 L 13.796875 -26.40625 C 13.796875 -26.664062 13.703125 -26.894531 13.515625 -27.09375 C 13.335938 -27.300781 13.113281 -27.40625 12.84375 -27.40625 L 10.09375 -27.40625 C 9.832031 -27.40625 9.609375 -27.300781 9.421875 -27.09375 C 9.242188 -26.894531 9.15625 -26.664062 9.15625 -26.40625 L 9.15625 -20.65625 C 9.15625 -20.382812 9.242188 -20.148438 9.421875 -19.953125 C 9.609375 -19.753906 9.832031 -19.65625 10.09375 -19.65625 L 14.59375 -19.65625 C 18.726562 -19.582031 20.796875 -17.378906 20.796875 -13.046875 L 20.796875 -6.09375 C 20.796875 -1.695312 18.726562 0.5 14.59375 0.5 L 8.703125 0.5 C 4.566406 0.5 2.5 -1.695312 2.5 -6.09375 L 2.5 -9.453125 L 9.15625 -9.453125 L 9.15625 -5.84375 C 9.15625 -5.582031 9.242188 -5.347656 9.421875 -5.140625 C 9.609375 -4.941406 9.832031 -4.84375 10.09375 -4.84375 L 13.203125 -4.84375 C 13.460938 -4.84375 13.6875 -4.941406 13.875 -5.140625 C 14.0625 -5.347656 14.15625 -5.582031 14.15625 -5.84375 L 14.15625 -12.203125 C 14.15625 -12.460938 14.0625 -12.691406 13.875 -12.890625 C 13.6875 -13.097656 13.460938 -13.203125 13.203125 -13.203125 L 8.703125 -13.203125 C 4.566406 -13.203125 2.5 -15.398438 2.5 -19.796875 L 2.5 -26.25 C 2.5 -30.644531 4.566406 -32.84375 8.703125 -32.84375 L 14.25 -32.84375 C 18.382812 -32.84375 20.453125 -30.644531 20.453125 -26.25 Z M 20.453125 -23.84375 "/></g></g></g><g fill="#000000" fill-opacity="1"><g transform="translate(129.128903, 325.499979)"><g><path d="M 9.5 -5.796875 L 17.25 -5.796875 L 17.25 0 L 2.5 0 L 2.5 -32.34375 L 17.25 -32.34375 L 17.25 -26.65625 L 9.5 -26.65625 L 9.5 -19.046875 L 16.75 -19.046875 L 16.75 -13.546875 L 9.5 -13.546875 Z M 9.5 -5.796875 "/></g></g></g><g fill="#000000" fill-opacity="1"><g transform="translate(147.925994, 325.499979)"><g><path d="M 9.5 -12.703125 L 9.5 0 L 2.5 0 L 2.5 -32.34375 L 17.09375 -32.34375 L 17.09375 -26.296875 L 9.5 -26.296875 L 9.5 -18.546875 L 16.59375 -18.546875 L 16.59375 -12.703125 Z M 9.5 -12.703125 "/></g></g></g><g fill="#000000" fill-opacity="1"><g transform="translate(166.623099, 325.499979)"><g><path d="M 9.5 -12.703125 L 9.5 0 L 2.5 0 L 2.5 -32.34375 L 17.09375 -32.34375 L 17.09375 -26.296875 L 9.5 -26.296875 L 9.5 -18.546875 L 16.59375 -18.546875 L 16.59375 -12.703125 Z M 9.5 -12.703125 "/></g></g></g><g fill="#000000" fill-opacity="1"><g transform="translate(185.320203, 325.499979)"><g><path d="M 9.5 -5.796875 L 17.25 -5.796875 L 17.25 0 L 2.5 0 L 2.5 -32.34375 L 17.25 -32.34375 L 17.25 -26.65625 L 9.5 -26.65625 L 9.5 -19.046875 L 16.75 -19.046875 L 16.75 -13.546875 L 9.5 -13.546875 Z M 9.5 -5.796875 "/></g></g></g><g fill="#000000" fill-opacity="1"><g transform="translate(204.117294, 325.499979)"><g><path d="M 14.546875 -5.296875 L 14.546875 -10.296875 L 21.203125 -10.296875 L 21.203125 -6.09375 C 21.203125 -1.695312 19.132812 0.5 15 0.5 L 8.703125 0.5 C 4.566406 0.5 2.5 -1.695312 2.5 -6.09375 L 2.5 -26.25 C 2.5 -30.644531 4.566406 -32.84375 8.703125 -32.84375 L 15 -32.84375 C 19.132812 -32.84375 21.203125 -30.644531 21.203125 -26.25 L 21.203125 -23.203125 L 14.546875 -23.203125 L 14.546875 -27.09375 C 14.546875 -27.363281 14.453125 -27.597656 14.265625 -27.796875 C 14.085938 -27.992188 13.863281 -28.09375 13.59375 -28.09375 L 10.453125 -28.09375 C 10.179688 -28.09375 9.953125 -27.992188 9.765625 -27.796875 C 9.585938 -27.597656 9.5 -27.363281 9.5 -27.09375 L 9.5 -5.296875 C 9.5 -5.035156 9.585938 -4.800781 9.765625 -4.59375 C 9.953125 -4.394531 10.179688 -4.296875 10.453125 -4.296875 L 13.59375 -4.296875 C 13.863281 -4.296875 14.085938 -4.394531 14.265625 -4.59375 C 14.453125 -4.800781 14.546875 -5.035156 14.546875 -5.296875 Z M 14.546875 -5.296875 "/></g></g></g><g fill="#000000" fill-opacity="1"><g transform="translate(227.01375, 325.499979)"><g><path d="M 0.65625 -26.40625 L 0.65625 -32.34375 L 18.15625 -32.34375 L 18.15625 -26.40625 L 12.90625 -26.40625 L 12.90625 0 L 5.90625 0 L 5.90625 -26.40625 Z M 0.65625 -26.40625 "/></g></g></g></svg>