<svg xmlns="http://www.w3.org/2000/svg" xmlns:xlink="http://www.w3.org/1999/xlink" width="500" zoomAndPan="magnify" viewBox="0 0 375 374.999991" height="500" preserveAspectRatio="xMidYMid meet" version="1.0"><defs><g/><clipPath id="7cb6c5f3c0"><path d="M 91.867188 90 L 347.617188 90 L 347.617188 263.921875 L 91.867188 263.921875 Z M 91.867188 90 " clip-rule="nonzero"/></clipPath></defs><g clip-path="url(#7cb6c5f3c0)"><path fill="#5e17eb" d="M 94.761719 258.644531 L 240.859375 258.644531 C 236.023438 245 224.03125 223.652344 221.175781 222.523438 C 219.175781 221.664062 218.046875 220.242188 217.46875 217.6875 C 216.328125 212.832031 209.476562 206.574219 196.640625 198.621094 C 188.929688 192.929688 185.792969 187.53125 187.222656 181.835938 C 184.933594 187.238281 187.496094 192.929688 195.207031 198.894531 C 194.925781 200.609375 195.78125 203.730469 197.496094 208 L 201.496094 215.40625 C 202.625 218.816406 202.917969 221.371094 202.34375 223.652344 C 201.496094 225.933594 197.207031 227.0625 189.503906 227.0625 C 173.238281 228.488281 164.960938 229.617188 164.105469 231.042969 C 163.539062 231.898438 162.105469 232.464844 160.109375 232.464844 C 162.105469 237.882812 156.6875 241.859375 143.847656 244.414062 C 148.695312 241.566406 151.832031 237.027344 152.972656 230.476562 C 153.546875 226.207031 156.402344 224.21875 161.53125 224.511719 C 176.660156 224.785156 187.789062 223.085938 194.925781 219.109375 C 190.648438 210.28125 184.359375 202.304688 176.660156 196.632812 C 177.515625 195.484375 180.949219 194.917969 186.933594 195.210938 C 181.511719 193.496094 176.660156 194.058594 172.664062 196.632812 C 167.242188 200.042969 160.671875 200.042969 155.253906 196.632812 C 149.835938 193.203125 146.988281 186.945312 147.835938 180.6875 C 149.269531 176.425781 148.117188 171.875 144.121094 167.324219 C 133 154.523438 133.28125 141.433594 145.273438 128.0625 C 152.40625 121.804688 156.96875 115.828125 158.109375 110.136719 C 159.25 106.722656 157.261719 103.019531 154.121094 101.597656 C 152.6875 101.324219 151.550781 101.03125 150.691406 100.183594 C 150.125 99.609375 148.976562 99.042969 147.261719 98.761719 L 155.253906 98.183594 C 154.96875 98.183594 151.832031 98.183594 145.554688 98.476562 C 142.132812 97.914062 142.699219 97.335938 147.550781 96.488281 C 148.976562 96.195312 149.832031 95.632812 150.398438 94.773438 C 151.257812 93.351562 152.972656 92.21875 155.828125 91.078125 C 159.824219 89.9375 161.824219 91.644531 162.105469 96.488281 C 162.105469 99.324219 162.679688 101.890625 163.539062 103.59375 C 165.242188 110.699219 163.246094 117.53125 157.261719 124.367188 C 152.40625 129.765625 148.691406 133.46875 146.695312 135.742188 C 143.554688 139.4375 142.414062 144.28125 143.273438 149.113281 C 144.121094 153.667969 146.988281 157.9375 151.257812 160.21875 C 155.546875 162.769531 158.964844 162.207031 161.53125 158.21875 C 164.101562 154.523438 166.382812 152.242188 168.664062 151.386719 L 168.101562 155.949219 C 172.660156 152.242188 177.808594 149.691406 183.792969 148.539062 L 179.796875 151.960938 C 190.929688 147.691406 203.199219 148.832031 213.191406 155.089844 C 220.890625 155.949219 228.601562 159.066406 234.582031 163.902344 C 244.015625 158.792969 255.714844 159.640625 264.273438 165.898438 L 260.566406 167.039062 C 262.558594 166.746094 264.546875 167.324219 265.988281 168.746094 C 267.976562 169.59375 270.257812 170.453125 272.539062 170.734375 C 269.691406 173.296875 266.261719 174.722656 262.558594 175.003906 C 263.707031 176.144531 264.273438 176.710938 264.835938 176.710938 C 258.851562 178.699219 252.28125 178.988281 246.296875 177.273438 C 246.863281 178.699219 248.285156 179.554688 250 179.554688 C 245.710938 181.273438 241.152344 180.414062 237.71875 177.566406 C 237.15625 179.261719 238.011719 180.980469 239.4375 181.835938 C 238.578125 182.109375 237.71875 181.542969 237.15625 180.980469 C 236.589844 180.414062 236.023438 179.554688 236.023438 178.699219 C 233.742188 185.25 229.742188 188.660156 224.03125 189.226562 C 221.75 189.226562 220.035156 189.789062 218.320312 190.375 C 215.179688 191.507812 212.617188 190.941406 210.617188 188.09375 C 212.898438 199.753906 216.613281 207.160156 221.75 209.714844 C 225.464844 211.136719 227.167969 213.417969 226.886719 216.535156 C 226.886719 218.253906 227.167969 219.949219 227.742188 221.664062 C 232.027344 231.332031 243.433594 251.257812 248.285156 258.644531 L 286.242188 258.644531 C 287.664062 258.644531 288.816406 259.777344 288.816406 261.199219 C 288.816406 262.621094 287.664062 264.046875 286.242188 264.046875 L 94.761719 264.046875 C 93.046875 264.046875 91.90625 262.621094 91.90625 261.199219 C 91.90625 259.777344 93.046875 258.644531 94.761719 258.644531 Z M 226.027344 92.492188 C 205.761719 92.492188 189.503906 92.785156 189.503906 93.351562 C 189.503906 93.914062 205.761719 94.207031 226.027344 94.207031 C 246.296875 94.207031 262.558594 93.914062 262.558594 93.351562 C 262.558594 92.785156 246.296875 92.492188 226.027344 92.492188 Z M 294.800781 231.042969 C 279.671875 231.042969 267.410156 231.625 267.410156 232.191406 C 267.410156 232.464844 279.671875 233.050781 294.800781 233.050781 C 309.929688 233.050781 322.191406 232.464844 322.191406 232.191406 C 322.191406 231.625 309.929688 231.042969 294.800781 231.042969 Z M 289.089844 206.574219 C 266.550781 206.574219 247.992188 207.160156 247.992188 207.433594 C 247.992188 208 266.550781 208.585938 289.089844 208.585938 C 311.917969 208.585938 330.476562 208 330.476562 207.433594 C 330.476562 207.160156 311.917969 206.574219 289.089844 206.574219 Z M 306.789062 184.390625 C 283.960938 184.390625 265.695312 184.957031 265.695312 185.523438 C 265.695312 185.8125 283.960938 186.378906 306.789062 186.378906 C 329.324219 186.378906 347.886719 185.8125 347.886719 185.523438 C 347.882812 184.957031 329.324219 184.390625 306.789062 184.390625 Z M 270.839844 143.996094 C 247.992188 143.996094 229.742188 144.28125 229.742188 144.84375 C 229.742188 145.421875 247.992188 145.695312 270.839844 145.695312 C 293.378906 145.695312 311.917969 145.421875 311.917969 144.84375 C 311.917969 144.28125 293.378906 143.996094 270.839844 143.996094 Z M 203.199219 106.722656 C 189.789062 106.722656 178.9375 107.289062 178.9375 107.863281 C 178.9375 108.148438 189.789062 108.710938 203.199219 108.710938 C 216.613281 108.710938 227.453125 108.148438 227.453125 107.863281 C 227.453125 107.289062 216.613281 106.722656 203.199219 106.722656 Z M 222.605469 125.789062 C 199.777344 125.789062 181.511719 126.355469 181.511719 126.921875 C 181.511719 127.210938 199.777344 127.777344 222.605469 127.777344 C 245.148438 127.777344 263.707031 127.210938 263.707031 126.921875 C 263.707031 126.355469 245.148438 125.789062 222.605469 125.789062 Z M 149.550781 97.054688 C 148.976562 97.335938 148.410156 97.335938 148.410156 97.335938 C 148.410156 97.054688 148.691406 97.054688 149.550781 96.761719 C 150.125 96.488281 150.691406 96.488281 150.691406 96.488281 C 150.691406 96.761719 150.125 97.054688 149.550781 97.054688 Z M 156.96875 95.339844 C 156.96875 95.914062 156.6875 96.488281 155.828125 96.488281 C 155.253906 96.488281 154.96875 95.914062 154.96875 95.339844 C 154.96875 94.773438 155.253906 94.207031 155.828125 94.207031 C 156.6875 94.207031 156.96875 94.773438 156.96875 95.339844 Z M 156.96875 95.339844 " fill-opacity="1" fill-rule="evenodd"/></g><g fill="#000000" fill-opacity="1"><g transform="translate(49.710939, 309.288788)"><g><path d="M 21.546875 -26.25 L 21.546875 -6.09375 C 21.546875 -1.695312 19.476562 0.5 15.34375 0.5 L 8.703125 0.5 C 4.566406 0.5 2.5 -1.695312 2.5 -6.09375 L 2.5 -26.25 C 2.5 -30.644531 4.566406 -32.84375 8.703125 -32.84375 L 15.34375 -32.84375 C 19.476562 -32.84375 21.546875 -30.644531 21.546875 -26.25 Z M 14.546875 -5.296875 L 14.546875 -27.09375 C 14.546875 -27.363281 14.453125 -27.597656 14.265625 -27.796875 C 14.085938 -27.992188 13.863281 -28.09375 13.59375 -28.09375 L 10.453125 -28.09375 C 10.179688 -28.09375 9.953125 -27.992188 9.765625 -27.796875 C 9.585938 -27.597656 9.5 -27.363281 9.5 -27.09375 L 9.5 -5.296875 C 9.5 -5.035156 9.585938 -4.800781 9.765625 -4.59375 C 9.953125 -4.394531 10.179688 -4.296875 10.453125 -4.296875 L 13.59375 -4.296875 C 13.863281 -4.296875 14.085938 -4.394531 14.265625 -4.59375 C 14.453125 -4.800781 14.546875 -5.035156 14.546875 -5.296875 Z M 14.546875 -5.296875 "/></g></g></g><g fill="#000000" fill-opacity="1"><g transform="translate(73.907192, 309.288788)"><g><path d="M 20.453125 -23.84375 L 13.796875 -23.84375 L 13.796875 -26.40625 C 13.796875 -26.664062 13.703125 -26.894531 13.515625 -27.09375 C 13.335938 -27.300781 13.113281 -27.40625 12.84375 -27.40625 L 10.09375 -27.40625 C 9.832031 -27.40625 9.609375 -27.300781 9.421875 -27.09375 C 9.242188 -26.894531 9.15625 -26.664062 9.15625 -26.40625 L 9.15625 -20.65625 C 9.15625 -20.382812 9.242188 -20.148438 9.421875 -19.953125 C 9.609375 -19.753906 9.832031 -19.65625 10.09375 -19.65625 L 14.59375 -19.65625 C 18.726562 -19.582031 20.796875 -17.378906 20.796875 -13.046875 L 20.796875 -6.09375 C 20.796875 -1.695312 18.726562 0.5 14.59375 0.5 L 8.703125 0.5 C 4.566406 0.5 2.5 -1.695312 2.5 -6.09375 L 2.5 -9.453125 L 9.15625 -9.453125 L 9.15625 -5.84375 C 9.15625 -5.582031 9.242188 -5.347656 9.421875 -5.140625 C 9.609375 -4.941406 9.832031 -4.84375 10.09375 -4.84375 L 13.203125 -4.84375 C 13.460938 -4.84375 13.6875 -4.941406 13.875 -5.140625 C 14.0625 -5.347656 14.15625 -5.582031 14.15625 -5.84375 L 14.15625 -12.203125 C 14.15625 -12.460938 14.0625 -12.691406 13.875 -12.890625 C 13.6875 -13.097656 13.460938 -13.203125 13.203125 -13.203125 L 8.703125 -13.203125 C 4.566406 -13.203125 2.5 -15.398438 2.5 -19.796875 L 2.5 -26.25 C 2.5 -30.644531 4.566406 -32.84375 8.703125 -32.84375 L 14.25 -32.84375 C 18.382812 -32.84375 20.453125 -30.644531 20.453125 -26.25 Z M 20.453125 -23.84375 "/></g></g></g><g fill="#000000" fill-opacity="1"><g transform="translate(96.803648, 309.288788)"><g><path d="M 0.65625 -26.40625 L 0.65625 -32.34375 L 18.15625 -32.34375 L 18.15625 -26.40625 L 12.90625 -26.40625 L 12.90625 0 L 5.90625 0 L 5.90625 -26.40625 Z M 0.65625 -26.40625 "/></g></g></g><g fill="#000000" fill-opacity="1"><g transform="translate(115.650727, 309.288788)"><g><path d="M 9.5 -13.25 L 9.5 0 L 2.5 0 L 2.5 -32.34375 L 14.953125 -32.34375 C 19.085938 -32.34375 21.15625 -30.144531 21.15625 -25.75 L 21.15625 -22 C 21.15625 -19.332031 20.203125 -17.632812 18.296875 -16.90625 C 19.960938 -16.300781 20.796875 -14.929688 20.796875 -12.796875 L 20.796875 0 L 13.796875 0 L 13.796875 -12.25 C 13.796875 -12.914062 13.476562 -13.25 12.84375 -13.25 Z M 9.5 -27.59375 L 9.5 -18.15625 L 13.203125 -18.15625 C 13.460938 -18.15625 13.6875 -18.253906 13.875 -18.453125 C 14.0625 -18.648438 14.15625 -18.882812 14.15625 -19.15625 L 14.15625 -26.59375 C 14.15625 -26.863281 14.0625 -27.097656 13.875 -27.296875 C 13.6875 -27.492188 13.460938 -27.59375 13.203125 -27.59375 Z M 9.5 -27.59375 "/></g></g></g><g fill="#000000" fill-opacity="1"><g transform="translate(138.797145, 309.288788)"><g><path d="M 9.5 -32.34375 L 9.5 0 L 2.5 0 L 2.5 -32.34375 Z M 9.5 -32.34375 "/></g></g></g><g fill="#000000" fill-opacity="1"><g transform="translate(150.995253, 309.288788)"><g><path d="M 14.546875 -5.296875 L 14.546875 -10.296875 L 21.203125 -10.296875 L 21.203125 -6.09375 C 21.203125 -1.695312 19.132812 0.5 15 0.5 L 8.703125 0.5 C 4.566406 0.5 2.5 -1.695312 2.5 -6.09375 L 2.5 -26.25 C 2.5 -30.644531 4.566406 -32.84375 8.703125 -32.84375 L 15 -32.84375 C 19.132812 -32.84375 21.203125 -30.644531 21.203125 -26.25 L 21.203125 -23.203125 L 14.546875 -23.203125 L 14.546875 -27.09375 C 14.546875 -27.363281 14.453125 -27.597656 14.265625 -27.796875 C 14.085938 -27.992188 13.863281 -28.09375 13.59375 -28.09375 L 10.453125 -28.09375 C 10.179688 -28.09375 9.953125 -27.992188 9.765625 -27.796875 C 9.585938 -27.597656 9.5 -27.363281 9.5 -27.09375 L 9.5 -5.296875 C 9.5 -5.035156 9.585938 -4.800781 9.765625 -4.59375 C 9.953125 -4.394531 10.179688 -4.296875 10.453125 -4.296875 L 13.59375 -4.296875 C 13.863281 -4.296875 14.085938 -4.394531 14.265625 -4.59375 C 14.453125 -4.800781 14.546875 -5.035156 14.546875 -5.296875 Z M 14.546875 -5.296875 "/></g></g></g><g fill="#000000" fill-opacity="1"><g transform="translate(173.891709, 309.288788)"><g><path d="M 9.5 -12.703125 L 9.5 0 L 2.5 0 L 2.5 -32.34375 L 9.5 -32.34375 L 9.5 -18.796875 L 15.046875 -18.796875 L 15.046875 -32.34375 L 22.046875 -32.34375 L 22.046875 0 L 15.046875 0 L 15.046875 -12.703125 Z M 9.5 -12.703125 "/></g></g></g><g fill="#000000" fill-opacity="1"><g transform="translate(198.437911, 309.288788)"><g/></g></g><g fill="#000000" fill-opacity="1"><g transform="translate(208.536348, 309.288788)"><g><path d="M 9.5 -5.796875 L 17.25 -5.796875 L 17.25 0 L 2.5 0 L 2.5 -32.34375 L 17.25 -32.34375 L 17.25 -26.65625 L 9.5 -26.65625 L 9.5 -19.046875 L 16.75 -19.046875 L 16.75 -13.546875 L 9.5 -13.546875 Z M 9.5 -5.796875 "/></g></g></g><g fill="#000000" fill-opacity="1"><g transform="translate(227.33344, 309.288788)"><g><path d="M 9.5 -12.703125 L 9.5 0 L 2.5 0 L 2.5 -32.34375 L 17.09375 -32.34375 L 17.09375 -26.296875 L 9.5 -26.296875 L 9.5 -18.546875 L 16.59375 -18.546875 L 16.59375 -12.703125 Z M 9.5 -12.703125 "/></g></g></g><g fill="#000000" fill-opacity="1"><g transform="translate(246.030544, 309.288788)"><g><path d="M 9.5 -12.703125 L 9.5 0 L 2.5 0 L 2.5 -32.34375 L 17.09375 -32.34375 L 17.09375 -26.296875 L 9.5 -26.296875 L 9.5 -18.546875 L 16.59375 -18.546875 L 16.59375 -12.703125 Z M 9.5 -12.703125 "/></g></g></g><g fill="#000000" fill-opacity="1"><g transform="translate(264.727648, 309.288788)"><g><path d="M 9.5 -5.796875 L 17.25 -5.796875 L 17.25 0 L 2.5 0 L 2.5 -32.34375 L 17.25 -32.34375 L 17.25 -26.65625 L 9.5 -26.65625 L 9.5 -19.046875 L 16.75 -19.046875 L 16.75 -13.546875 L 9.5 -13.546875 Z M 9.5 -5.796875 "/></g></g></g><g fill="#000000" fill-opacity="1"><g transform="translate(283.524751, 309.288788)"><g><path d="M 14.546875 -5.296875 L 14.546875 -10.296875 L 21.203125 -10.296875 L 21.203125 -6.09375 C 21.203125 -1.695312 19.132812 0.5 15 0.5 L 8.703125 0.5 C 4.566406 0.5 2.5 -1.695312 2.5 -6.09375 L 2.5 -26.25 C 2.5 -30.644531 4.566406 -32.84375 8.703125 -32.84375 L 15 -32.84375 C 19.132812 -32.84375 21.203125 -30.644531 21.203125 -26.25 L 21.203125 -23.203125 L 14.546875 -23.203125 L 14.546875 -27.09375 C 14.546875 -27.363281 14.453125 -27.597656 14.265625 -27.796875 C 14.085938 -27.992188 13.863281 -28.09375 13.59375 -28.09375 L 10.453125 -28.09375 C 10.179688 -28.09375 9.953125 -27.992188 9.765625 -27.796875 C 9.585938 -27.597656 9.5 -27.363281 9.5 -27.09375 L 9.5 -5.296875 C 9.5 -5.035156 9.585938 -4.800781 9.765625 -4.59375 C 9.953125 -4.394531 10.179688 -4.296875 10.453125 -4.296875 L 13.59375 -4.296875 C 13.863281 -4.296875 14.085938 -4.394531 14.265625 -4.59375 C 14.453125 -4.800781 14.546875 -5.035156 14.546875 -5.296875 Z M 14.546875 -5.296875 "/></g></g></g><g fill="#000000" fill-opacity="1"><g transform="translate(306.421218, 309.288788)"><g><path d="M 0.65625 -26.40625 L 0.65625 -32.34375 L 18.15625 -32.34375 L 18.15625 -26.40625 L 12.90625 -26.40625 L 12.90625 0 L 5.90625 0 L 5.90625 -26.40625 Z M 0.65625 -26.40625 "/></g></g></g></svg>