<svg xmlns="http://www.w3.org/2000/svg" xmlns:xlink="http://www.w3.org/1999/xlink" width="500" zoomAndPan="magnify" viewBox="0 0 375 374.999991" height="500" preserveAspectRatio="xMidYMid meet" version="1.0"><defs><g/><clipPath id="da188aad64"><path d="M 129.9375 105 L 274.6875 105 L 274.6875 202.789062 L 129.9375 202.789062 Z M 129.9375 105 " clip-rule="nonzero"/></clipPath></defs><g fill="#000000" fill-opacity="1"><g transform="translate(44.263548, 241.5197)"><g><path d="M 21.390625 -26.0625 L 21.390625 -6.0625 C 21.390625 -1.6875 19.335938 0.5 15.234375 0.5 L 8.640625 0.5 C 4.535156 0.5 2.484375 -1.6875 2.484375 -6.0625 L 2.484375 -26.0625 C 2.484375 -30.425781 4.535156 -32.609375 8.640625 -32.609375 L 15.234375 -32.609375 C 19.335938 -32.609375 21.390625 -30.425781 21.390625 -26.0625 Z M 14.453125 -5.265625 L 14.453125 -26.90625 C 14.453125 -27.164062 14.359375 -27.394531 14.171875 -27.59375 C 13.992188 -27.789062 13.769531 -27.890625 13.5 -27.890625 L 10.375 -27.890625 C 10.113281 -27.890625 9.890625 -27.789062 9.703125 -27.59375 C 9.523438 -27.394531 9.4375 -27.164062 9.4375 -26.90625 L 9.4375 -5.265625 C 9.4375 -4.992188 9.523438 -4.757812 9.703125 -4.5625 C 9.890625 -4.363281 10.113281 -4.265625 10.375 -4.265625 L 13.5 -4.265625 C 13.769531 -4.265625 13.992188 -4.363281 14.171875 -4.5625 C 14.359375 -4.757812 14.453125 -4.992188 14.453125 -5.265625 Z M 14.453125 -5.265625 "/></g></g></g><g fill="#000000" fill-opacity="1"><g transform="translate(69.276666, 241.5197)"><g><path d="M 20.296875 -23.671875 L 13.703125 -23.671875 L 13.703125 -26.203125 C 13.703125 -26.472656 13.609375 -26.707031 13.421875 -26.90625 C 13.242188 -27.101562 13.019531 -27.203125 12.75 -27.203125 L 10.03125 -27.203125 C 9.757812 -27.203125 9.53125 -27.101562 9.34375 -26.90625 C 9.164062 -26.707031 9.078125 -26.472656 9.078125 -26.203125 L 9.078125 -20.5 C 9.078125 -20.238281 9.164062 -20.007812 9.34375 -19.8125 C 9.53125 -19.613281 9.757812 -19.515625 10.03125 -19.515625 L 14.5 -19.515625 C 18.601562 -19.441406 20.65625 -17.253906 20.65625 -12.953125 L 20.65625 -6.0625 C 20.65625 -1.6875 18.601562 0.5 14.5 0.5 L 8.640625 0.5 C 4.535156 0.5 2.484375 -1.6875 2.484375 -6.0625 L 2.484375 -9.375 L 9.078125 -9.375 L 9.078125 -5.8125 C 9.078125 -5.539062 9.164062 -5.304688 9.34375 -5.109375 C 9.53125 -4.910156 9.757812 -4.8125 10.03125 -4.8125 L 13.109375 -4.8125 C 13.367188 -4.8125 13.585938 -4.910156 13.765625 -5.109375 C 13.953125 -5.304688 14.046875 -5.539062 14.046875 -5.8125 L 14.046875 -12.109375 C 14.046875 -12.378906 13.953125 -12.613281 13.765625 -12.8125 C 13.585938 -13.007812 13.367188 -13.109375 13.109375 -13.109375 L 8.640625 -13.109375 C 4.535156 -13.109375 2.484375 -15.289062 2.484375 -19.65625 L 2.484375 -26.0625 C 2.484375 -30.425781 4.535156 -32.609375 8.640625 -32.609375 L 14.140625 -32.609375 C 18.242188 -32.609375 20.296875 -30.425781 20.296875 -26.0625 Z M 20.296875 -23.671875 "/></g></g></g><g fill="#000000" fill-opacity="1"><g transform="translate(92.999428, 241.5197)"><g><path d="M 0.640625 -26.203125 L 0.640625 -32.125 L 18.015625 -32.125 L 18.015625 -26.203125 L 12.8125 -26.203125 L 12.8125 0 L 5.859375 0 L 5.859375 -26.203125 Z M 0.640625 -26.203125 "/></g></g></g><g fill="#000000" fill-opacity="1"><g transform="translate(112.702256, 241.5197)"><g><path d="M 9.4375 -13.15625 L 9.4375 0 L 2.484375 0 L 2.484375 -32.125 L 14.84375 -32.125 C 18.945312 -32.125 21 -29.9375 21 -25.5625 L 21 -21.84375 C 21 -19.195312 20.054688 -17.507812 18.171875 -16.78125 C 19.828125 -16.1875 20.65625 -14.828125 20.65625 -12.703125 L 20.65625 0 L 13.703125 0 L 13.703125 -12.15625 C 13.703125 -12.820312 13.382812 -13.15625 12.75 -13.15625 Z M 9.4375 -27.40625 L 9.4375 -18.015625 L 13.109375 -18.015625 C 13.367188 -18.015625 13.585938 -18.113281 13.765625 -18.3125 C 13.953125 -18.507812 14.046875 -18.742188 14.046875 -19.015625 L 14.046875 -26.40625 C 14.046875 -26.675781 13.953125 -26.910156 13.765625 -27.109375 C 13.585938 -27.304688 13.367188 -27.40625 13.109375 -27.40625 Z M 9.4375 -27.40625 "/></g></g></g><g fill="#000000" fill-opacity="1"><g transform="translate(136.673175, 241.5197)"><g><path d="M 9.4375 -32.125 L 9.4375 0 L 2.484375 0 L 2.484375 -32.125 Z M 9.4375 -32.125 "/></g></g></g><g fill="#000000" fill-opacity="1"><g transform="translate(149.775355, 241.5197)"><g><path d="M 14.453125 -5.265625 L 14.453125 -10.21875 L 21.046875 -10.21875 L 21.046875 -6.0625 C 21.046875 -1.6875 18.992188 0.5 14.890625 0.5 L 8.640625 0.5 C 4.535156 0.5 2.484375 -1.6875 2.484375 -6.0625 L 2.484375 -26.0625 C 2.484375 -30.425781 4.535156 -32.609375 8.640625 -32.609375 L 14.890625 -32.609375 C 18.992188 -32.609375 21.046875 -30.425781 21.046875 -26.0625 L 21.046875 -23.03125 L 14.453125 -23.03125 L 14.453125 -26.90625 C 14.453125 -27.164062 14.359375 -27.394531 14.171875 -27.59375 C 13.992188 -27.789062 13.769531 -27.890625 13.5 -27.890625 L 10.375 -27.890625 C 10.113281 -27.890625 9.890625 -27.789062 9.703125 -27.59375 C 9.523438 -27.394531 9.4375 -27.164062 9.4375 -26.90625 L 9.4375 -5.265625 C 9.4375 -4.992188 9.523438 -4.757812 9.703125 -4.5625 C 9.890625 -4.363281 10.113281 -4.265625 10.375 -4.265625 L 13.5 -4.265625 C 13.769531 -4.265625 13.992188 -4.363281 14.171875 -4.5625 C 14.359375 -4.757812 14.453125 -4.992188 14.453125 -5.265625 Z M 14.453125 -5.265625 "/></g></g></g><g fill="#000000" fill-opacity="1"><g transform="translate(173.49812, 241.5197)"><g><path d="M 9.4375 -12.609375 L 9.4375 0 L 2.484375 0 L 2.484375 -32.125 L 9.4375 -32.125 L 9.4375 -18.671875 L 14.9375 -18.671875 L 14.9375 -32.125 L 21.890625 -32.125 L 21.890625 0 L 14.9375 0 L 14.9375 -12.609375 Z M 9.4375 -12.609375 "/></g></g></g><g fill="#000000" fill-opacity="1"><g transform="translate(198.858649, 241.5197)"><g/></g></g><g fill="#000000" fill-opacity="1"><g transform="translate(209.876414, 241.5197)"><g><path d="M 9.4375 -5.765625 L 17.125 -5.765625 L 17.125 0 L 2.484375 0 L 2.484375 -32.125 L 17.125 -32.125 L 17.125 -26.453125 L 9.4375 -26.453125 L 9.4375 -18.90625 L 16.625 -18.90625 L 16.625 -13.453125 L 9.4375 -13.453125 Z M 9.4375 -5.765625 "/></g></g></g><g fill="#000000" fill-opacity="1"><g transform="translate(229.529614, 241.5197)"><g><path d="M 9.4375 -12.609375 L 9.4375 0 L 2.484375 0 L 2.484375 -32.125 L 16.984375 -32.125 L 16.984375 -26.109375 L 9.4375 -26.109375 L 9.4375 -18.421875 L 16.484375 -18.421875 L 16.484375 -12.609375 Z M 9.4375 -12.609375 "/></g></g></g><g fill="#000000" fill-opacity="1"><g transform="translate(249.083549, 241.5197)"><g><path d="M 9.4375 -12.609375 L 9.4375 0 L 2.484375 0 L 2.484375 -32.125 L 16.984375 -32.125 L 16.984375 -26.109375 L 9.4375 -26.109375 L 9.4375 -18.421875 L 16.484375 -18.421875 L 16.484375 -12.609375 Z M 9.4375 -12.609375 "/></g></g></g><g fill="#000000" fill-opacity="1"><g transform="translate(268.637495, 241.5197)"><g><path d="M 9.4375 -5.765625 L 17.125 -5.765625 L 17.125 0 L 2.484375 0 L 2.484375 -32.125 L 17.125 -32.125 L 17.125 -26.453125 L 9.4375 -26.453125 L 9.4375 -18.90625 L 16.625 -18.90625 L 16.625 -13.453125 L 9.4375 -13.453125 Z M 9.4375 -5.765625 "/></g></g></g><g fill="#000000" fill-opacity="1"><g transform="translate(288.290684, 241.5197)"><g><path d="M 14.453125 -5.265625 L 14.453125 -10.21875 L 21.046875 -10.21875 L 21.046875 -6.0625 C 21.046875 -1.6875 18.992188 0.5 14.890625 0.5 L 8.640625 0.5 C 4.535156 0.5 2.484375 -1.6875 2.484375 -6.0625 L 2.484375 -26.0625 C 2.484375 -30.425781 4.535156 -32.609375 8.640625 -32.609375 L 14.890625 -32.609375 C 18.992188 -32.609375 21.046875 -30.425781 21.046875 -26.0625 L 21.046875 -23.03125 L 14.453125 -23.03125 L 14.453125 -26.90625 C 14.453125 -27.164062 14.359375 -27.394531 14.171875 -27.59375 C 13.992188 -27.789062 13.769531 -27.890625 13.5 -27.890625 L 10.375 -27.890625 C 10.113281 -27.890625 9.890625 -27.789062 9.703125 -27.59375 C 9.523438 -27.394531 9.4375 -27.164062 9.4375 -26.90625 L 9.4375 -5.265625 C 9.4375 -4.992188 9.523438 -4.757812 9.703125 -4.5625 C 9.890625 -4.363281 10.113281 -4.265625 10.375 -4.265625 L 13.5 -4.265625 C 13.769531 -4.265625 13.992188 -4.363281 14.171875 -4.5625 C 14.359375 -4.757812 14.453125 -4.992188 14.453125 -5.265625 Z M 14.453125 -5.265625 "/></g></g></g><g fill="#000000" fill-opacity="1"><g transform="translate(312.013439, 241.5197)"><g><path d="M 0.640625 -26.203125 L 0.640625 -32.125 L 18.015625 -32.125 L 18.015625 -26.203125 L 12.8125 -26.203125 L 12.8125 0 L 5.859375 0 L 5.859375 -26.203125 Z M 0.640625 -26.203125 "/></g></g></g><g clip-path="url(#da188aad64)"><path fill="#000000" d="M 131.574219 199.746094 L 214.164062 199.746094 C 211.429688 192.046875 204.648438 180 203.035156 179.363281 C 201.90625 178.878906 201.265625 178.074219 200.941406 176.636719 C 200.296875 173.894531 196.421875 170.363281 189.167969 165.875 C 184.808594 162.664062 183.035156 159.617188 183.84375 156.40625 C 182.546875 159.453125 183.996094 162.664062 188.355469 166.03125 C 188.195312 167 188.683594 168.757812 189.652344 171.167969 L 191.910156 175.347656 C 192.550781 177.273438 192.714844 178.714844 192.390625 180 C 191.910156 181.289062 189.484375 181.925781 185.132812 181.925781 C 175.9375 182.730469 171.257812 183.367188 170.773438 184.167969 C 170.453125 184.652344 169.644531 184.972656 168.515625 184.972656 C 169.644531 188.03125 166.578125 190.273438 159.324219 191.714844 C 162.0625 190.109375 163.835938 187.546875 164.480469 183.851562 C 164.804688 181.441406 166.421875 180.320312 169.320312 180.484375 C 177.871094 180.640625 184.164062 179.683594 188.195312 177.4375 C 185.777344 172.453125 182.222656 167.957031 177.871094 164.753906 C 178.355469 164.105469 180.296875 163.785156 183.679688 163.953125 C 180.613281 162.984375 177.871094 163.300781 175.613281 164.753906 C 172.546875 166.679688 168.832031 166.679688 165.769531 164.753906 C 162.707031 162.816406 161.097656 159.289062 161.578125 155.757812 C 162.386719 153.351562 161.738281 150.785156 159.476562 148.214844 C 153.191406 140.992188 153.347656 133.605469 160.128906 126.0625 C 164.160156 122.53125 166.738281 119.15625 167.382812 115.945312 C 168.027344 114.019531 166.90625 111.929688 165.128906 111.128906 C 164.320312 110.972656 163.675781 110.808594 163.191406 110.332031 C 162.871094 110.003906 162.222656 109.6875 161.25 109.527344 L 165.769531 109.203125 C 165.609375 109.203125 163.835938 109.203125 160.285156 109.367188 C 158.351562 109.046875 158.671875 108.722656 161.417969 108.246094 C 162.222656 108.082031 162.707031 107.761719 163.027344 107.277344 C 163.511719 106.472656 164.480469 105.835938 166.09375 105.191406 C 168.355469 104.550781 169.484375 105.511719 169.644531 108.246094 C 169.644531 109.847656 169.96875 111.292969 170.453125 112.253906 C 171.417969 116.265625 170.289062 120.121094 166.90625 123.976562 C 164.160156 127.023438 162.0625 129.113281 160.929688 130.394531 C 159.15625 132.480469 158.511719 135.214844 158.996094 137.941406 C 159.476562 140.507812 161.097656 142.917969 163.511719 144.207031 C 165.933594 145.648438 167.867188 145.328125 169.316406 143.078125 C 170.773438 140.992188 172.0625 139.707031 173.351562 139.222656 L 173.03125 141.796875 C 175.609375 139.707031 178.519531 138.265625 181.902344 137.617188 L 179.644531 139.546875 C 185.9375 137.136719 192.875 137.78125 198.523438 141.3125 C 202.875 141.796875 207.234375 143.554688 210.613281 146.285156 C 215.949219 143.402344 222.5625 143.882812 227.398438 147.410156 L 225.304688 148.054688 C 226.429688 147.890625 227.554688 148.214844 228.367188 149.019531 C 229.492188 149.496094 230.78125 149.980469 232.070312 150.140625 C 230.464844 151.585938 228.523438 152.390625 226.429688 152.550781 C 227.078125 153.191406 227.398438 153.511719 227.71875 153.511719 C 224.335938 154.632812 220.621094 154.800781 217.238281 153.832031 C 217.558594 154.632812 218.363281 155.117188 219.332031 155.117188 C 216.90625 156.085938 214.328125 155.601562 212.390625 153.996094 C 212.070312 154.953125 212.554688 155.921875 213.359375 156.40625 C 212.875 156.558594 212.390625 156.238281 212.070312 155.921875 C 211.75 155.601562 211.429688 155.117188 211.429688 154.632812 C 210.140625 158.332031 207.878906 160.253906 204.648438 160.574219 C 203.359375 160.574219 202.390625 160.894531 201.421875 161.222656 C 199.648438 161.859375 198.199219 161.542969 197.066406 159.9375 C 198.359375 166.515625 200.457031 170.695312 203.359375 172.136719 C 205.460938 172.9375 206.425781 174.226562 206.265625 175.984375 C 206.265625 176.953125 206.425781 177.910156 206.75 178.878906 C 209.171875 184.335938 215.617188 195.578125 218.363281 199.746094 L 239.820312 199.746094 C 240.625 199.746094 241.273438 200.382812 241.273438 201.1875 C 241.273438 201.988281 240.625 202.792969 239.820312 202.792969 L 131.574219 202.792969 C 130.601562 202.792969 129.957031 201.992188 129.957031 201.1875 C 129.957031 200.382812 130.601562 199.746094 131.574219 199.746094 Z M 205.78125 105.992188 C 194.324219 105.992188 185.132812 106.15625 185.132812 106.476562 C 185.132812 106.792969 194.324219 106.957031 205.78125 106.957031 C 217.238281 106.957031 226.429688 106.792969 226.429688 106.476562 C 226.429688 106.15625 217.238281 105.992188 205.78125 105.992188 Z M 244.65625 184.167969 C 236.105469 184.167969 229.171875 184.5 229.171875 184.820312 C 229.171875 184.972656 236.105469 185.304688 244.65625 185.304688 C 253.210938 185.304688 260.140625 184.972656 260.140625 184.820312 C 260.140625 184.5 253.210938 184.167969 244.65625 184.167969 Z M 241.429688 170.363281 C 228.6875 170.363281 218.195312 170.695312 218.195312 170.847656 C 218.195312 171.167969 228.6875 171.496094 241.429688 171.496094 C 254.332031 171.496094 264.824219 171.167969 264.824219 170.847656 C 264.824219 170.695312 254.332031 170.363281 241.429688 170.363281 Z M 251.433594 157.847656 C 238.53125 157.847656 228.203125 158.164062 228.203125 158.484375 C 228.203125 158.648438 238.53125 158.96875 251.433594 158.96875 C 264.175781 158.96875 274.667969 158.648438 274.667969 158.484375 C 274.667969 158.164062 264.175781 157.847656 251.433594 157.847656 Z M 231.113281 135.054688 C 218.195312 135.054688 207.878906 135.214844 207.878906 135.53125 C 207.878906 135.855469 218.195312 136.011719 231.113281 136.011719 C 243.851562 136.011719 254.332031 135.855469 254.332031 135.53125 C 254.332031 135.214844 243.851562 135.054688 231.113281 135.054688 Z M 192.875 114.019531 C 185.292969 114.019531 179.160156 114.339844 179.160156 114.664062 C 179.160156 114.824219 185.292969 115.144531 192.875 115.144531 C 200.457031 115.144531 206.585938 114.824219 206.585938 114.664062 C 206.585938 114.339844 200.457031 114.019531 192.875 114.019531 Z M 203.84375 124.78125 C 190.941406 124.78125 180.613281 125.097656 180.613281 125.417969 C 180.613281 125.582031 190.941406 125.902344 203.84375 125.902344 C 216.589844 125.902344 227.078125 125.582031 227.078125 125.417969 C 227.078125 125.097656 216.589844 124.78125 203.84375 124.78125 Z M 162.546875 108.566406 C 162.222656 108.722656 161.902344 108.722656 161.902344 108.722656 C 161.902344 108.566406 162.0625 108.566406 162.546875 108.398438 C 162.871094 108.246094 163.191406 108.246094 163.191406 108.246094 C 163.191406 108.398438 162.871094 108.566406 162.546875 108.566406 Z M 166.738281 107.597656 C 166.738281 107.921875 166.578125 108.246094 166.09375 108.246094 C 165.769531 108.246094 165.609375 107.921875 165.609375 107.597656 C 165.609375 107.277344 165.769531 106.957031 166.09375 106.957031 C 166.578125 106.957031 166.738281 107.277344 166.738281 107.597656 Z M 166.738281 107.597656 " fill-opacity="1" fill-rule="evenodd"/></g></svg>