<svg xmlns="http://www.w3.org/2000/svg" xmlns:xlink="http://www.w3.org/1999/xlink" width="500" zoomAndPan="magnify" viewBox="0 0 375 374.999991" height="500" preserveAspectRatio="xMidYMid meet" version="1.0"><defs><g/><clipPath id="8ef2200f50"><path d="M 125.882812 94.265625 L 248.882812 94.265625 L 248.882812 235 L 125.882812 235 Z M 125.882812 94.265625 " clip-rule="nonzero"/></clipPath><clipPath id="bb09538d3f"><path d="M 160 234 L 215 234 L 215 268.265625 L 160 268.265625 Z M 160 234 " clip-rule="nonzero"/></clipPath><clipPath id="cc65ed1b38"><path d="M 125.882812 94.265625 L 248.882812 94.265625 L 248.882812 235 L 125.882812 235 Z M 125.882812 94.265625 " clip-rule="nonzero"/></clipPath><clipPath id="b47c558a47"><path d="M 160 234 L 215 234 L 215 268.265625 L 160 268.265625 Z M 160 234 " clip-rule="nonzero"/></clipPath><clipPath id="c1692c1f1a"><path d="M 83.695312 54.324219 L 291.296875 54.324219 L 291.296875 183.324219 L 83.695312 183.324219 Z M 83.695312 54.324219 " clip-rule="nonzero"/></clipPath></defs><g clip-path="url(#8ef2200f50)"><path fill="#f19e05" d="M 185.355469 140.925781 C 183.574219 141.402344 182.507812 143.25 182.984375 145.03125 L 185.554688 154.613281 C 186.03125 156.394531 187.878906 157.460938 189.65625 156.984375 C 191.4375 156.503906 192.503906 154.660156 192.027344 152.878906 L 189.460938 143.296875 C 188.984375 141.511719 187.136719 140.449219 185.355469 140.925781 Z M 194.09375 140.925781 C 192.3125 141.402344 191.246094 143.25 191.722656 145.03125 L 194.292969 154.613281 C 194.769531 156.394531 196.613281 157.460938 198.398438 156.984375 C 200.175781 156.503906 201.242188 154.660156 200.765625 152.878906 L 198.199219 143.296875 C 197.71875 141.511719 195.875 140.449219 194.09375 140.925781 Z M 176.617188 140.925781 C 174.835938 141.402344 173.769531 143.25 174.246094 145.03125 L 176.816406 154.613281 C 177.292969 156.394531 179.136719 157.460938 180.917969 156.984375 C 182.699219 156.503906 183.765625 154.660156 183.289062 152.878906 L 180.722656 143.296875 C 180.246094 141.511719 178.398438 140.449219 176.617188 140.925781 Z M 187.5 94.246094 L 187.511719 94.246094 C 221.519531 94.246094 249.089844 121.8125 249.089844 155.820312 C 249.089844 175.140625 240.296875 192.519531 226.265625 203.671875 C 217.472656 210.660156 211.289062 220.066406 209.976562 234.121094 L 202.996094 234.121094 L 213.84375 154.105469 C 213.910156 153.632812 213.941406 153.207031 213.941406 152.828125 C 213.941406 150.632812 213.167969 148.640625 211.839844 147.109375 C 210.511719 145.578125 208.644531 144.53125 206.464844 144.238281 C 206.015625 144.175781 205.597656 144.144531 205.210938 144.144531 C 203.550781 144.144531 202.207031 145.488281 202.207031 147.148438 C 202.207031 148.804688 203.550781 150.152344 205.210938 150.152344 C 205.410156 150.152344 205.558594 150.160156 205.667969 150.171875 C 206.351562 150.265625 206.921875 150.574219 207.3125 151.027344 C 207.703125 151.480469 207.9375 152.109375 207.9375 152.828125 C 207.9375 153.023438 207.925781 153.183594 207.910156 153.308594 L 196.953125 234.121094 L 178.058594 234.121094 L 167.101562 153.308594 C 167.085938 153.183594 167.078125 153.023438 167.078125 152.828125 C 167.078125 152.109375 167.308594 151.480469 167.703125 151.027344 C 168.09375 150.574219 168.664062 150.265625 169.34375 150.171875 C 169.453125 150.160156 169.605469 150.152344 169.804688 150.152344 C 171.460938 150.152344 172.804688 148.804688 172.804688 147.148438 C 172.804688 145.488281 171.460938 144.144531 169.804688 144.144531 C 169.417969 144.144531 168.996094 144.175781 168.546875 144.238281 C 166.371094 144.53125 164.503906 145.578125 163.175781 147.109375 C 161.847656 148.640625 161.070312 150.632812 161.070312 152.828125 C 161.070312 153.207031 161.101562 153.632812 161.167969 154.105469 L 172.015625 234.121094 L 165.035156 234.121094 C 163.722656 220.066406 157.539062 210.660156 148.746094 203.671875 C 134.714844 192.519531 125.925781 175.140625 125.925781 155.820312 C 125.925781 121.8125 153.496094 94.246094 187.5 94.246094 " fill-opacity="1" fill-rule="evenodd"/></g><g clip-path="url(#bb09538d3f)"><path fill="#002130" d="M 164.0625 255.09375 L 210.949219 255.09375 C 212.859375 255.09375 214.421875 253.53125 214.421875 251.621094 L 214.421875 250.621094 C 214.421875 248.710938 212.859375 247.152344 210.949219 247.152344 L 164.0625 247.152344 C 162.152344 247.152344 160.589844 248.710938 160.589844 250.621094 L 160.589844 251.621094 C 160.589844 253.53125 162.152344 255.09375 164.0625 255.09375 Z M 176.132812 268.121094 L 198.878906 268.121094 C 203.671875 268.121094 207.703125 264.699219 208.648438 260.179688 L 166.363281 260.179688 C 167.308594 264.699219 171.34375 268.121094 176.132812 268.121094 Z M 209.976562 234.121094 L 210.949219 234.121094 C 212.859375 234.121094 214.421875 235.683594 214.421875 237.59375 L 214.421875 238.59375 C 214.421875 240.503906 212.859375 242.066406 210.949219 242.066406 L 164.0625 242.066406 C 162.152344 242.066406 160.589844 240.503906 160.589844 238.59375 L 160.589844 237.59375 C 160.589844 235.683594 162.152344 234.121094 164.0625 234.121094 L 209.976562 234.121094 " fill-opacity="1" fill-rule="evenodd"/></g><g clip-path="url(#cc65ed1b38)"><path fill="#fff509" d="M 185.355469 140.925781 C 183.574219 141.402344 182.507812 143.25 182.984375 145.03125 L 185.554688 154.613281 C 186.03125 156.394531 187.878906 157.460938 189.65625 156.984375 C 191.4375 156.503906 192.503906 154.660156 192.027344 152.878906 L 189.460938 143.296875 C 188.984375 141.511719 187.136719 140.449219 185.355469 140.925781 Z M 194.09375 140.925781 C 192.3125 141.402344 191.246094 143.25 191.722656 145.03125 L 194.292969 154.613281 C 194.769531 156.394531 196.613281 157.460938 198.398438 156.984375 C 200.175781 156.503906 201.242188 154.660156 200.765625 152.878906 L 198.199219 143.296875 C 197.71875 141.511719 195.875 140.449219 194.09375 140.925781 Z M 176.617188 140.925781 C 174.835938 141.402344 173.769531 143.25 174.246094 145.03125 L 176.816406 154.613281 C 177.292969 156.394531 179.136719 157.460938 180.917969 156.984375 C 182.699219 156.503906 183.765625 154.660156 183.289062 152.878906 L 180.722656 143.296875 C 180.246094 141.511719 178.398438 140.449219 176.617188 140.925781 Z M 187.5 94.246094 L 187.511719 94.246094 C 221.519531 94.246094 249.089844 121.8125 249.089844 155.820312 C 249.089844 175.140625 240.296875 192.519531 226.265625 203.671875 C 217.472656 210.660156 211.289062 220.066406 209.976562 234.121094 L 202.996094 234.121094 L 213.84375 154.105469 C 213.910156 153.632812 213.941406 153.207031 213.941406 152.828125 C 213.941406 150.632812 213.167969 148.640625 211.839844 147.109375 C 210.511719 145.578125 208.644531 144.53125 206.464844 144.238281 C 206.015625 144.175781 205.597656 144.144531 205.210938 144.144531 C 203.550781 144.144531 202.207031 145.488281 202.207031 147.148438 C 202.207031 148.804688 203.550781 150.152344 205.210938 150.152344 C 205.410156 150.152344 205.558594 150.160156 205.667969 150.171875 C 206.351562 150.265625 206.921875 150.574219 207.3125 151.027344 C 207.703125 151.480469 207.9375 152.109375 207.9375 152.828125 C 207.9375 153.023438 207.925781 153.183594 207.910156 153.308594 L 196.953125 234.121094 L 178.058594 234.121094 L 167.101562 153.308594 C 167.085938 153.183594 167.078125 153.023438 167.078125 152.828125 C 167.078125 152.109375 167.308594 151.480469 167.703125 151.027344 C 168.09375 150.574219 168.664062 150.265625 169.34375 150.171875 C 169.453125 150.160156 169.605469 150.152344 169.804688 150.152344 C 171.460938 150.152344 172.804688 148.804688 172.804688 147.148438 C 172.804688 145.488281 171.460938 144.144531 169.804688 144.144531 C 169.417969 144.144531 168.996094 144.175781 168.546875 144.238281 C 166.371094 144.53125 164.503906 145.578125 163.175781 147.109375 C 161.847656 148.640625 161.070312 150.632812 161.070312 152.828125 C 161.070312 153.207031 161.101562 153.632812 161.167969 154.105469 L 172.015625 234.121094 L 165.035156 234.121094 C 163.722656 220.066406 157.539062 210.660156 148.746094 203.671875 C 134.714844 192.519531 125.925781 175.140625 125.925781 155.820312 C 125.925781 121.8125 153.496094 94.246094 187.5 94.246094 " fill-opacity="1" fill-rule="evenodd"/></g><g clip-path="url(#b47c558a47)"><path fill="#000000" d="M 164.0625 255.09375 L 210.949219 255.09375 C 212.859375 255.09375 214.421875 253.53125 214.421875 251.621094 L 214.421875 250.621094 C 214.421875 248.710938 212.859375 247.152344 210.949219 247.152344 L 164.0625 247.152344 C 162.152344 247.152344 160.589844 248.710938 160.589844 250.621094 L 160.589844 251.621094 C 160.589844 253.53125 162.152344 255.09375 164.0625 255.09375 Z M 176.132812 268.121094 L 198.878906 268.121094 C 203.671875 268.121094 207.703125 264.699219 208.648438 260.179688 L 166.363281 260.179688 C 167.308594 264.699219 171.34375 268.121094 176.132812 268.121094 Z M 209.976562 234.121094 L 210.949219 234.121094 C 212.859375 234.121094 214.421875 235.683594 214.421875 237.59375 L 214.421875 238.59375 C 214.421875 240.503906 212.859375 242.066406 210.949219 242.066406 L 164.0625 242.066406 C 162.152344 242.066406 160.589844 240.503906 160.589844 238.59375 L 160.589844 237.59375 C 160.589844 235.683594 162.152344 234.121094 164.0625 234.121094 L 209.976562 234.121094 " fill-opacity="1" fill-rule="evenodd"/></g><g clip-path="url(#c1692c1f1a)"><path fill="#f19e05" d="M 143.210938 82.375 C 142.972656 81.964844 143.117188 81.4375 143.527344 81.203125 C 143.9375 80.96875 144.460938 81.109375 144.695312 81.519531 L 147.660156 86.652344 C 147.898438 87.0625 147.753906 87.589844 147.34375 87.824219 C 146.933594 88.058594 146.410156 87.917969 146.171875 87.507812 Z M 125.308594 96.398438 L 129.5 100.585938 C 129.835938 100.921875 130.378906 100.921875 130.71875 100.585938 C 131.054688 100.25 131.054688 99.707031 130.71875 99.371094 L 126.527344 95.179688 C 126.191406 94.839844 125.644531 94.839844 125.308594 95.179688 C 124.972656 95.515625 124.972656 96.0625 125.308594 96.398438 Z M 111.648438 114.566406 L 116.777344 117.53125 C 117.191406 117.769531 117.714844 117.628906 117.953125 117.21875 C 118.191406 116.808594 118.050781 116.28125 117.640625 116.042969 L 112.507812 113.078125 C 112.097656 112.84375 111.570312 112.984375 111.332031 113.394531 C 111.09375 113.804688 111.234375 114.328125 111.648438 114.566406 Z M 103.15625 135.660156 C 102.695312 135.535156 102.421875 135.0625 102.546875 134.605469 C 102.667969 134.144531 103.140625 133.875 103.597656 133.996094 L 109.324219 135.53125 C 109.785156 135.652344 110.054688 136.125 109.933594 136.582031 C 109.808594 137.042969 109.339844 137.316406 108.878906 137.191406 Z M 100.410156 158.230469 C 99.933594 158.230469 99.546875 157.84375 99.546875 157.367188 C 99.546875 156.890625 99.933594 156.507812 100.410156 156.507812 L 106.335938 156.507812 C 106.8125 156.507812 107.199219 156.890625 107.199219 157.367188 C 107.199219 157.84375 106.8125 158.230469 106.335938 158.230469 Z M 103.597656 180.738281 C 103.140625 180.859375 102.667969 180.589844 102.546875 180.128906 C 102.421875 179.671875 102.695312 179.199219 103.15625 179.074219 L 108.878906 177.542969 C 109.339844 177.417969 109.808594 177.691406 109.933594 178.152344 C 110.054688 178.609375 109.785156 179.082031 109.324219 179.203125 Z M 112.503906 201.652344 C 112.09375 201.890625 111.570312 201.75 111.332031 201.339844 C 111.097656 200.929688 111.238281 200.402344 111.648438 200.167969 L 116.78125 197.203125 C 117.195312 196.96875 117.71875 197.109375 117.953125 197.519531 C 118.191406 197.929688 118.046875 198.457031 117.636719 198.691406 Z M 126.527344 219.558594 L 130.714844 215.367188 C 131.054688 215.027344 131.054688 214.484375 130.714844 214.148438 C 130.378906 213.8125 129.835938 213.8125 129.5 214.148438 L 125.308594 218.339844 C 124.972656 218.675781 124.972656 219.21875 125.308594 219.558594 C 125.644531 219.894531 126.1875 219.894531 126.527344 219.558594 Z M 144.695312 233.21875 L 147.660156 228.085938 C 147.898438 227.675781 147.757812 227.148438 147.347656 226.910156 C 146.9375 226.671875 146.410156 226.8125 146.171875 227.222656 L 143.210938 232.355469 C 142.972656 232.765625 143.113281 233.292969 143.523438 233.53125 C 143.933594 233.769531 144.457031 233.628906 144.695312 233.21875 Z M 165.789062 241.707031 C 165.664062 242.167969 165.195312 242.441406 164.734375 242.316406 C 164.277344 242.195312 164.003906 241.722656 164.125 241.261719 L 165.660156 235.539062 C 165.78125 235.078125 166.253906 234.808594 166.714844 234.929688 C 167.171875 235.054688 167.445312 235.523438 167.324219 235.984375 Z M 188.359375 244.453125 C 188.359375 244.929688 187.972656 245.316406 187.496094 245.316406 C 187.019531 245.316406 186.636719 244.929688 186.636719 244.453125 L 186.636719 238.527344 C 186.636719 238.050781 187.019531 237.664062 187.496094 237.664062 C 187.972656 237.664062 188.359375 238.050781 188.359375 238.527344 Z M 210.867188 241.261719 C 210.992188 241.722656 210.71875 242.195312 210.257812 242.316406 C 209.800781 242.441406 209.328125 242.167969 209.207031 241.707031 L 207.671875 235.984375 C 207.546875 235.523438 207.820312 235.054688 208.28125 234.929688 C 208.738281 234.808594 209.210938 235.078125 209.332031 235.539062 Z M 231.785156 232.355469 C 232.019531 232.765625 231.882812 233.292969 231.472656 233.53125 C 231.0625 233.765625 230.535156 233.628906 230.296875 233.21875 L 227.332031 228.085938 C 227.09375 227.675781 227.234375 227.148438 227.644531 226.910156 C 228.054688 226.671875 228.582031 226.8125 228.820312 227.222656 Z M 249.683594 218.335938 L 245.496094 214.144531 C 245.15625 213.808594 244.613281 213.808594 244.277344 214.144531 C 243.941406 214.484375 243.941406 215.027344 244.277344 215.363281 L 248.46875 219.554688 C 248.804688 219.890625 249.347656 219.890625 249.683594 219.554688 C 250.019531 219.21875 250.019531 218.675781 249.683594 218.335938 Z M 263.347656 200.167969 L 258.214844 197.203125 C 257.804688 196.964844 257.277344 197.105469 257.039062 197.515625 C 256.800781 197.925781 256.941406 198.453125 257.351562 198.691406 L 262.484375 201.652344 C 262.894531 201.890625 263.421875 201.75 263.660156 201.339844 C 263.898438 200.929688 263.757812 200.402344 263.347656 200.167969 Z M 271.839844 179.074219 C 272.296875 179.199219 272.570312 179.671875 272.445312 180.128906 C 272.324219 180.589844 271.851562 180.859375 271.394531 180.738281 L 265.667969 179.203125 C 265.210938 179.082031 264.9375 178.609375 265.058594 178.152344 C 265.183594 177.691406 265.65625 177.417969 266.113281 177.542969 Z M 274.582031 156.507812 C 275.058594 156.507812 275.445312 156.890625 275.445312 157.367188 C 275.445312 157.84375 275.058594 158.230469 274.582031 158.230469 L 268.65625 158.230469 C 268.179688 158.230469 267.796875 157.84375 267.796875 157.367188 C 267.796875 156.890625 268.179688 156.507812 268.65625 156.507812 Z M 271.394531 133.996094 C 271.851562 133.875 272.324219 134.144531 272.445312 134.605469 C 272.570312 135.0625 272.296875 135.535156 271.839844 135.660156 L 266.113281 137.191406 C 265.65625 137.316406 265.183594 137.042969 265.058594 136.582031 C 264.9375 136.125 265.210938 135.652344 265.667969 135.53125 Z M 262.488281 113.082031 C 262.898438 112.84375 263.425781 112.988281 263.660156 113.398438 C 263.894531 113.808594 263.753906 114.332031 263.34375 114.566406 L 258.210938 117.53125 C 257.800781 117.765625 257.277344 117.625 257.039062 117.214844 C 256.804688 116.804688 256.945312 116.28125 257.355469 116.042969 Z M 248.46875 95.179688 L 244.277344 99.371094 C 243.941406 99.707031 243.941406 100.25 244.277344 100.589844 C 244.613281 100.925781 245.160156 100.925781 245.496094 100.589844 L 249.683594 96.398438 C 250.023438 96.0625 250.023438 95.515625 249.683594 95.179688 C 249.351562 94.84375 248.804688 94.84375 248.46875 95.179688 Z M 230.296875 81.519531 L 227.332031 86.652344 C 227.097656 87.0625 227.238281 87.589844 227.648438 87.824219 C 228.058594 88.058594 228.585938 87.917969 228.820312 87.507812 L 231.785156 82.375 C 232.019531 81.964844 231.878906 81.441406 231.46875 81.203125 C 231.058594 80.96875 230.53125 81.109375 230.296875 81.519531 Z M 208.292969 72.785156 C 208.414062 72.328125 208.886719 72.054688 209.34375 72.175781 C 209.804688 72.296875 210.078125 72.769531 209.953125 73.230469 L 208.421875 78.953125 C 208.296875 79.414062 207.828125 79.6875 207.367188 79.5625 C 206.910156 79.441406 206.636719 78.96875 206.757812 78.511719 Z M 166.917969 83.890625 C 166.796875 83.433594 167.066406 82.960938 167.527344 82.839844 C 167.988281 82.71875 168.457031 82.988281 168.582031 83.449219 L 170.03125 88.855469 C 170.152344 89.316406 169.878906 89.785156 169.421875 89.910156 C 168.960938 90.03125 168.492188 89.761719 168.367188 89.300781 Z M 148.605469 91.722656 L 151.367188 96.511719 C 151.605469 96.921875 152.132812 97.058594 152.542969 96.824219 C 152.953125 96.585938 153.09375 96.058594 152.855469 95.648438 L 150.089844 90.863281 C 149.855469 90.453125 149.328125 90.3125 148.917969 90.546875 C 148.507812 90.785156 148.367188 91.3125 148.605469 91.722656 Z M 132.9375 104.027344 C 132.601562 103.691406 132.601562 103.144531 132.9375 102.808594 C 133.273438 102.472656 133.820312 102.472656 134.15625 102.808594 L 137.988281 106.644531 C 138.324219 106.980469 138.324219 107.523438 137.988281 107.859375 C 137.652344 108.195312 137.109375 108.195312 136.773438 107.859375 Z M 120.996094 119.964844 L 125.546875 122.589844 C 125.957031 122.828125 126.480469 122.683594 126.714844 122.273438 C 126.953125 121.863281 126.8125 121.339844 126.402344 121.105469 L 121.847656 118.476562 C 121.4375 118.242188 120.914062 118.382812 120.679688 118.792969 C 120.441406 119.203125 120.582031 119.726562 120.996094 119.964844 Z M 113.578125 138.453125 C 113.117188 138.328125 112.84375 137.859375 112.96875 137.398438 C 113.089844 136.941406 113.5625 136.667969 114.023438 136.789062 L 118.914062 138.101562 C 119.371094 138.222656 119.644531 138.695312 119.523438 139.152344 C 119.398438 139.613281 118.929688 139.886719 118.46875 139.761719 Z M 111.199219 158.230469 C 110.722656 158.230469 110.339844 157.84375 110.339844 157.367188 C 110.339844 156.890625 110.722656 156.507812 111.199219 156.507812 L 116.089844 156.507812 C 116.5625 156.507812 116.949219 156.890625 116.949219 157.367188 C 116.949219 157.84375 116.5625 158.230469 116.089844 158.230469 Z M 114.023438 177.945312 C 113.5625 178.070312 113.089844 177.796875 112.96875 177.335938 C 112.84375 176.878906 113.117188 176.40625 113.578125 176.285156 L 118.089844 175.074219 C 118.546875 174.953125 119.019531 175.226562 119.140625 175.683594 C 119.265625 176.144531 118.992188 176.613281 118.53125 176.738281 Z M 121.851562 196.261719 L 125.746094 194.011719 C 126.15625 193.773438 126.296875 193.25 126.058594 192.839844 C 125.820312 192.429688 125.292969 192.289062 124.882812 192.527344 L 120.992188 194.773438 C 120.582031 195.011719 120.441406 195.535156 120.679688 195.945312 C 120.914062 196.359375 121.441406 196.496094 121.851562 196.261719 Z M 134.15625 211.925781 C 133.820312 212.261719 133.273438 212.261719 132.9375 211.925781 C 132.601562 211.589844 132.601562 211.042969 132.9375 210.710938 L 136.011719 207.632812 C 136.347656 207.296875 136.894531 207.296875 137.230469 207.632812 C 137.566406 207.96875 137.566406 208.515625 137.230469 208.851562 Z M 150.09375 223.875 L 152.199219 220.222656 C 152.4375 219.8125 152.296875 219.285156 151.886719 219.046875 C 151.476562 218.8125 150.949219 218.949219 150.710938 219.359375 L 148.605469 223.011719 C 148.367188 223.421875 148.507812 223.949219 148.917969 224.1875 C 149.328125 224.425781 149.855469 224.285156 150.09375 223.875 Z M 168.582031 231.285156 C 168.457031 231.746094 167.988281 232.019531 167.527344 231.894531 C 167.070312 231.773438 166.796875 231.300781 166.917969 230.839844 L 167.988281 226.851562 C 168.109375 226.390625 168.582031 226.117188 169.042969 226.242188 C 169.5 226.363281 169.773438 226.835938 169.652344 227.292969 Z M 188.359375 233.664062 C 188.359375 234.140625 187.972656 234.527344 187.496094 234.527344 C 187.019531 234.527344 186.636719 234.140625 186.636719 233.664062 L 186.636719 229.542969 C 186.636719 229.070312 187.019531 228.683594 187.496094 228.683594 C 187.972656 228.683594 188.359375 229.070312 188.359375 229.542969 Z M 208.074219 230.839844 C 208.199219 231.300781 207.925781 231.773438 207.464844 231.894531 C 207.007812 232.015625 206.535156 231.746094 206.414062 231.285156 L 205.34375 227.292969 C 205.222656 226.835938 205.492188 226.363281 205.953125 226.242188 C 206.410156 226.117188 206.882812 226.390625 207.003906 226.851562 Z M 226.386719 223.011719 L 224.28125 219.359375 C 224.042969 218.949219 223.515625 218.808594 223.105469 219.046875 C 222.695312 219.285156 222.558594 219.8125 222.792969 220.222656 L 224.902344 223.871094 C 225.140625 224.28125 225.664062 224.421875 226.074219 224.183594 C 226.484375 223.945312 226.625 223.421875 226.386719 223.011719 Z M 242.054688 210.707031 C 242.390625 211.042969 242.390625 211.589844 242.054688 211.925781 C 241.71875 212.261719 241.175781 212.261719 240.835938 211.925781 L 237.765625 208.851562 C 237.429688 208.515625 237.429688 207.96875 237.765625 207.632812 C 238.101562 207.296875 238.644531 207.296875 238.980469 207.632812 Z M 254 194.769531 L 250.109375 192.523438 C 249.699219 192.289062 249.171875 192.429688 248.9375 192.839844 C 248.699219 193.25 248.839844 193.777344 249.253906 194.011719 L 253.144531 196.257812 C 253.554688 196.496094 254.082031 196.351562 254.316406 195.941406 C 254.550781 195.53125 254.410156 195.007812 254 194.769531 Z M 261.417969 176.285156 C 261.875 176.40625 262.148438 176.875 262.023438 177.335938 C 261.902344 177.796875 261.429688 178.066406 260.972656 177.945312 L 256.460938 176.738281 C 256 176.613281 255.730469 176.140625 255.851562 175.683594 C 255.976562 175.226562 256.445312 174.953125 256.90625 175.074219 Z M 263.792969 156.507812 C 264.269531 156.507812 264.65625 156.890625 264.65625 157.367188 C 264.65625 157.84375 264.269531 158.230469 263.792969 158.230469 L 258.90625 158.230469 C 258.429688 158.230469 258.042969 157.84375 258.042969 157.367188 C 258.042969 156.890625 258.429688 156.507812 258.90625 156.507812 Z M 260.972656 136.789062 C 261.429688 136.667969 261.902344 136.9375 262.023438 137.398438 C 262.148438 137.855469 261.875 138.328125 261.417969 138.453125 L 256.523438 139.761719 C 256.066406 139.886719 255.59375 139.613281 255.472656 139.152344 C 255.347656 138.695312 255.621094 138.222656 256.078125 138.101562 Z M 253.140625 118.476562 L 248.589844 121.105469 C 248.179688 121.339844 248.039062 121.867188 248.277344 122.277344 C 248.515625 122.6875 249.042969 122.828125 249.453125 122.589844 L 254.003906 119.960938 C 254.414062 119.726562 254.550781 119.199219 254.316406 118.789062 C 254.078125 118.378906 253.550781 118.238281 253.140625 118.476562 Z M 240.835938 102.808594 L 237.003906 106.644531 C 236.667969 106.980469 236.667969 107.523438 237.003906 107.859375 C 237.339844 108.195312 237.886719 108.195312 238.222656 107.859375 L 242.054688 104.027344 C 242.390625 103.691406 242.390625 103.144531 242.054688 102.808594 C 241.71875 102.472656 241.175781 102.472656 240.835938 102.808594 Z M 224.902344 90.867188 L 222.136719 95.652344 C 221.902344 96.0625 222.042969 96.585938 222.453125 96.820312 C 222.863281 97.058594 223.386719 96.917969 223.625 96.507812 L 226.386719 91.71875 C 226.625 91.308594 226.484375 90.785156 226.074219 90.546875 C 225.660156 90.3125 225.136719 90.453125 224.902344 90.867188 Z M 205.5 83.207031 C 205.621094 82.75 206.09375 82.476562 206.554688 82.597656 C 207.011719 82.71875 207.285156 83.191406 207.164062 83.652344 L 205.710938 89.066406 C 205.589844 89.523438 205.117188 89.796875 204.660156 89.675781 C 204.199219 89.550781 203.925781 89.078125 204.046875 88.621094 Z M 186.636719 70.28125 C 186.636719 69.804688 187.019531 69.417969 187.496094 69.417969 C 187.972656 69.417969 188.359375 69.804688 188.359375 70.28125 L 188.359375 76.207031 C 188.359375 76.683594 187.972656 77.070312 187.496094 77.070312 C 187.019531 77.070312 186.636719 76.683594 186.636719 76.207031 Z M 186.636719 81.070312 C 186.636719 80.59375 187.019531 80.210938 187.496094 80.210938 C 187.972656 80.210938 188.359375 80.59375 188.359375 81.070312 L 188.359375 86.707031 C 188.359375 87.183594 187.972656 87.570312 187.496094 87.570312 C 187.019531 87.570312 186.636719 87.183594 186.636719 86.707031 Z M 174.691406 261.152344 C 174.632812 261.621094 174.199219 261.953125 173.730469 261.890625 C 173.261719 261.832031 172.929688 261.398438 172.988281 260.929688 L 177.25 228.816406 C 177.3125 228.347656 177.742188 228.015625 178.214844 228.078125 C 178.683594 228.140625 179.015625 228.570312 178.953125 229.039062 Z M 200.300781 55.101562 C 200.363281 54.632812 200.792969 54.300781 201.261719 54.363281 C 201.734375 54.421875 202.066406 54.855469 202.003906 55.324219 L 197.742188 87.433594 C 197.683594 87.90625 197.25 88.238281 196.78125 88.175781 C 196.3125 88.113281 195.980469 87.683594 196.039062 87.210938 Z M 201.792969 260.957031 C 201.855469 261.429688 201.523438 261.859375 201.054688 261.921875 C 200.582031 261.980469 200.152344 261.648438 200.089844 261.179688 L 195.894531 229.0625 C 195.835938 228.589844 196.167969 228.160156 196.636719 228.097656 C 197.105469 228.035156 197.539062 228.367188 197.597656 228.839844 Z M 173.199219 55.296875 C 173.136719 54.824219 173.46875 54.394531 173.941406 54.332031 C 174.410156 54.273438 174.839844 54.601562 174.902344 55.074219 L 179.097656 87.195312 C 179.160156 87.664062 178.828125 88.09375 178.355469 88.15625 C 177.886719 88.214844 177.457031 87.886719 177.394531 87.414062 Z M 227.925781 253.765625 C 228.109375 254.203125 227.898438 254.707031 227.460938 254.886719 C 227.019531 255.066406 226.519531 254.859375 226.339844 254.417969 L 213.972656 224.476562 C 213.792969 224.035156 214 223.535156 214.4375 223.355469 C 214.878906 223.175781 215.378906 223.382812 215.558594 223.824219 Z M 147.066406 62.488281 C 146.886719 62.050781 147.097656 61.546875 147.535156 61.367188 C 147.972656 61.1875 148.476562 61.398438 148.65625 61.835938 L 161.023438 91.777344 C 161.203125 92.214844 160.992188 92.71875 160.554688 92.898438 C 160.117188 93.078125 159.613281 92.867188 159.433594 92.429688 Z M 251.289062 240.023438 L 231.597656 214.308594 C 231.308594 213.929688 230.769531 213.859375 230.390625 214.144531 C 230.015625 214.433594 229.941406 214.972656 230.230469 215.351562 L 249.921875 241.066406 C 250.210938 241.445312 250.75 241.515625 251.125 241.230469 C 251.503906 240.941406 251.578125 240.402344 251.289062 240.023438 Z M 123.703125 76.230469 L 143.394531 101.945312 C 143.683594 102.324219 144.222656 102.394531 144.601562 102.105469 C 144.976562 101.820312 145.050781 101.28125 144.761719 100.902344 L 125.070312 75.1875 C 124.78125 74.808594 124.242188 74.738281 123.867188 75.023438 C 123.488281 75.3125 123.417969 75.851562 123.703125 76.230469 Z M 270.3125 220.722656 C 270.6875 221.015625 270.757812 221.554688 270.46875 221.929688 C 270.175781 222.304688 269.636719 222.375 269.261719 222.082031 L 243.585938 202.339844 C 243.210938 202.050781 243.140625 201.511719 243.429688 201.136719 C 243.71875 200.761719 244.261719 200.691406 244.636719 200.980469 Z M 104.679688 95.527344 C 104.304688 95.242188 104.238281 94.699219 104.527344 94.324219 C 104.816406 93.949219 105.355469 93.878906 105.730469 94.171875 L 131.40625 113.914062 C 131.78125 114.203125 131.851562 114.742188 131.5625 115.117188 C 131.273438 115.492188 130.734375 115.5625 130.359375 115.273438 Z M 283.710938 197.164062 C 284.148438 197.347656 284.359375 197.851562 284.175781 198.289062 C 283.996094 198.726562 283.492188 198.933594 283.050781 198.753906 L 253.136719 186.324219 C 252.695312 186.140625 252.488281 185.640625 252.671875 185.199219 C 252.851562 184.761719 253.355469 184.554688 253.792969 184.734375 Z M 91.28125 119.089844 C 90.84375 118.90625 90.636719 118.402344 90.816406 117.964844 C 91 117.527344 91.503906 117.316406 91.941406 117.5 L 121.859375 129.929688 C 122.296875 130.113281 122.507812 130.613281 122.324219 131.054688 C 122.140625 131.492188 121.636719 131.699219 121.199219 131.519531 Z M 290.519531 170.933594 C 290.992188 170.992188 291.320312 171.421875 291.261719 171.894531 C 291.199219 172.363281 290.769531 172.695312 290.300781 172.632812 L 258.1875 168.375 C 257.71875 168.3125 257.386719 167.878906 257.449219 167.410156 C 257.511719 166.941406 257.941406 166.609375 258.410156 166.671875 Z M 84.472656 145.324219 C 84.003906 145.261719 83.671875 144.832031 83.730469 144.359375 C 83.792969 143.890625 84.222656 143.558594 84.695312 143.621094 L 116.804688 147.878906 C 117.277344 147.941406 117.605469 148.371094 117.546875 148.84375 C 117.484375 149.3125 117.054688 149.644531 116.582031 149.582031 Z M 290.328125 143.828125 C 290.796875 143.769531 291.230469 144.101562 291.292969 144.570312 C 291.351562 145.039062 291.019531 145.472656 290.550781 145.53125 L 258.429688 149.726562 C 257.960938 149.789062 257.53125 149.457031 257.46875 148.988281 C 257.40625 148.515625 257.738281 148.085938 258.207031 148.023438 Z M 84.664062 172.425781 C 84.195312 172.484375 83.765625 172.152344 83.703125 171.683594 C 83.640625 171.214844 83.972656 170.78125 84.441406 170.722656 L 116.5625 166.527344 C 117.03125 166.464844 117.464844 166.796875 117.527344 167.265625 C 117.585938 167.738281 117.253906 168.167969 116.785156 168.230469 Z M 283.136719 117.695312 C 283.574219 117.515625 284.078125 117.726562 284.257812 118.164062 C 284.4375 118.601562 284.226562 119.105469 283.789062 119.285156 L 253.847656 131.652344 C 253.40625 131.832031 252.90625 131.625 252.726562 131.183594 C 252.542969 130.746094 252.753906 130.242188 253.191406 130.066406 Z M 91.859375 198.554688 C 91.417969 198.738281 90.917969 198.527344 90.738281 198.089844 C 90.558594 197.648438 90.765625 197.148438 91.203125 196.96875 L 121.148438 184.601562 C 121.585938 184.421875 122.089844 184.628906 122.269531 185.070312 C 122.449219 185.507812 122.238281 186.007812 121.800781 186.191406 Z M 269.394531 94.335938 L 243.675781 114.027344 C 243.300781 114.3125 243.230469 114.855469 243.515625 115.230469 C 243.804688 115.609375 244.34375 115.679688 244.722656 115.390625 L 270.4375 95.703125 C 270.816406 95.410156 270.886719 94.875 270.597656 94.496094 C 270.3125 94.117188 269.769531 94.046875 269.394531 94.335938 Z M 105.601562 221.917969 L 131.316406 202.226562 C 131.691406 201.941406 131.765625 201.398438 131.476562 201.023438 C 131.1875 200.644531 130.648438 200.574219 130.273438 200.863281 L 104.554688 220.554688 C 104.179688 220.839844 104.105469 221.378906 104.394531 221.757812 C 104.683594 222.132812 105.222656 222.207031 105.601562 221.917969 Z M 250.09375 75.3125 C 250.382812 74.9375 250.925781 74.867188 251.296875 75.15625 C 251.675781 75.445312 251.742188 75.984375 251.453125 76.363281 L 231.710938 102.039062 C 231.421875 102.414062 230.878906 102.480469 230.503906 102.191406 C 230.128906 101.902344 230.0625 101.363281 230.351562 100.988281 Z M 124.898438 240.941406 C 124.609375 241.316406 124.070312 241.386719 123.695312 241.097656 C 123.320312 240.808594 123.25 240.269531 123.539062 239.890625 L 143.285156 214.214844 C 143.574219 213.839844 144.113281 213.773438 144.488281 214.0625 C 144.863281 214.351562 144.933594 214.890625 144.644531 215.265625 Z M 226.535156 61.910156 C 226.714844 61.472656 227.21875 61.265625 227.660156 61.445312 C 228.097656 61.628906 228.304688 62.132812 228.121094 62.570312 L 215.695312 92.488281 C 215.511719 92.925781 215.007812 93.136719 214.570312 92.953125 C 214.132812 92.769531 213.925781 92.269531 214.105469 91.828125 Z M 148.460938 254.34375 C 148.277344 254.78125 147.773438 254.988281 147.335938 254.804688 C 146.898438 254.625 146.6875 254.121094 146.871094 253.683594 L 159.300781 223.765625 C 159.480469 223.324219 159.984375 223.117188 160.421875 223.300781 C 160.863281 223.480469 161.070312 223.984375 160.886719 224.421875 Z M 164.125 73.46875 C 164.003906 73.011719 164.277344 72.539062 164.734375 72.414062 C 165.195312 72.292969 165.664062 72.566406 165.789062 73.027344 L 167.324219 78.75 C 167.445312 79.210938 167.171875 79.683594 166.714844 79.804688 C 166.253906 79.925781 165.78125 79.652344 165.660156 79.195312 L 164.125 73.46875 " fill-opacity="1" fill-rule="evenodd"/><path fill="#fff509" d="M 143.210938 82.375 C 142.972656 81.964844 143.117188 81.4375 143.527344 81.203125 C 143.9375 80.96875 144.460938 81.109375 144.695312 81.519531 L 147.660156 86.652344 C 147.898438 87.0625 147.753906 87.589844 147.34375 87.824219 C 146.933594 88.058594 146.410156 87.917969 146.171875 87.507812 Z M 125.308594 96.398438 L 129.5 100.585938 C 129.835938 100.921875 130.378906 100.921875 130.71875 100.585938 C 131.054688 100.25 131.054688 99.707031 130.71875 99.371094 L 126.527344 95.179688 C 126.191406 94.839844 125.644531 94.839844 125.308594 95.179688 C 124.972656 95.515625 124.972656 96.0625 125.308594 96.398438 Z M 111.648438 114.566406 L 116.777344 117.53125 C 117.191406 117.769531 117.714844 117.628906 117.953125 117.21875 C 118.191406 116.808594 118.050781 116.28125 117.640625 116.042969 L 112.507812 113.078125 C 112.097656 112.84375 111.570312 112.984375 111.332031 113.394531 C 111.09375 113.804688 111.234375 114.328125 111.648438 114.566406 Z M 103.15625 135.660156 C 102.695312 135.535156 102.421875 135.0625 102.546875 134.605469 C 102.667969 134.144531 103.140625 133.875 103.597656 133.996094 L 109.324219 135.53125 C 109.785156 135.652344 110.054688 136.125 109.933594 136.582031 C 109.808594 137.042969 109.339844 137.316406 108.878906 137.191406 Z M 100.410156 158.230469 C 99.933594 158.230469 99.546875 157.84375 99.546875 157.367188 C 99.546875 156.890625 99.933594 156.507812 100.410156 156.507812 L 106.335938 156.507812 C 106.8125 156.507812 107.199219 156.890625 107.199219 157.367188 C 107.199219 157.84375 106.8125 158.230469 106.335938 158.230469 Z M 103.597656 180.738281 C 103.140625 180.859375 102.667969 180.589844 102.546875 180.128906 C 102.421875 179.671875 102.695312 179.199219 103.15625 179.074219 L 108.878906 177.542969 C 109.339844 177.417969 109.808594 177.691406 109.933594 178.152344 C 110.054688 178.609375 109.785156 179.082031 109.324219 179.203125 Z M 112.503906 201.652344 C 112.09375 201.890625 111.570312 201.75 111.332031 201.339844 C 111.097656 200.929688 111.238281 200.402344 111.648438 200.167969 L 116.78125 197.203125 C 117.195312 196.96875 117.71875 197.109375 117.953125 197.519531 C 118.191406 197.929688 118.046875 198.457031 117.636719 198.691406 Z M 126.527344 219.558594 L 130.714844 215.367188 C 131.054688 215.027344 131.054688 214.484375 130.714844 214.148438 C 130.378906 213.8125 129.835938 213.8125 129.5 214.148438 L 125.308594 218.339844 C 124.972656 218.675781 124.972656 219.21875 125.308594 219.558594 C 125.644531 219.894531 126.1875 219.894531 126.527344 219.558594 Z M 144.695312 233.21875 L 147.660156 228.085938 C 147.898438 227.675781 147.757812 227.148438 147.347656 226.910156 C 146.9375 226.671875 146.410156 226.8125 146.171875 227.222656 L 143.210938 232.355469 C 142.972656 232.765625 143.113281 233.292969 143.523438 233.53125 C 143.933594 233.769531 144.457031 233.628906 144.695312 233.21875 Z M 165.789062 241.707031 C 165.664062 242.167969 165.195312 242.441406 164.734375 242.316406 C 164.277344 242.195312 164.003906 241.722656 164.125 241.261719 L 165.660156 235.539062 C 165.78125 235.078125 166.253906 234.808594 166.714844 234.929688 C 167.171875 235.054688 167.445312 235.523438 167.324219 235.984375 Z M 188.359375 244.453125 C 188.359375 244.929688 187.972656 245.316406 187.496094 245.316406 C 187.019531 245.316406 186.636719 244.929688 186.636719 244.453125 L 186.636719 238.527344 C 186.636719 238.050781 187.019531 237.664062 187.496094 237.664062 C 187.972656 237.664062 188.359375 238.050781 188.359375 238.527344 Z M 210.867188 241.261719 C 210.992188 241.722656 210.71875 242.195312 210.257812 242.316406 C 209.800781 242.441406 209.328125 242.167969 209.207031 241.707031 L 207.671875 235.984375 C 207.546875 235.523438 207.820312 235.054688 208.28125 234.929688 C 208.738281 234.808594 209.210938 235.078125 209.332031 235.539062 Z M 231.785156 232.355469 C 232.019531 232.765625 231.882812 233.292969 231.472656 233.53125 C 231.0625 233.765625 230.535156 233.628906 230.296875 233.21875 L 227.332031 228.085938 C 227.09375 227.675781 227.234375 227.148438 227.644531 226.910156 C 228.054688 226.671875 228.582031 226.8125 228.820312 227.222656 Z M 249.683594 218.335938 L 245.496094 214.144531 C 245.15625 213.808594 244.613281 213.808594 244.277344 214.144531 C 243.941406 214.484375 243.941406 215.027344 244.277344 215.363281 L 248.46875 219.554688 C 248.804688 219.890625 249.347656 219.890625 249.683594 219.554688 C 250.019531 219.21875 250.019531 218.675781 249.683594 218.335938 Z M 263.347656 200.167969 L 258.214844 197.203125 C 257.804688 196.964844 257.277344 197.105469 257.039062 197.515625 C 256.800781 197.925781 256.941406 198.453125 257.351562 198.691406 L 262.484375 201.652344 C 262.894531 201.890625 263.421875 201.75 263.660156 201.339844 C 263.898438 200.929688 263.757812 200.402344 263.347656 200.167969 Z M 271.839844 179.074219 C 272.296875 179.199219 272.570312 179.671875 272.445312 180.128906 C 272.324219 180.589844 271.851562 180.859375 271.394531 180.738281 L 265.667969 179.203125 C 265.210938 179.082031 264.9375 178.609375 265.058594 178.152344 C 265.183594 177.691406 265.65625 177.417969 266.113281 177.542969 Z M 274.582031 156.507812 C 275.058594 156.507812 275.445312 156.890625 275.445312 157.367188 C 275.445312 157.84375 275.058594 158.230469 274.582031 158.230469 L 268.65625 158.230469 C 268.179688 158.230469 267.796875 157.84375 267.796875 157.367188 C 267.796875 156.890625 268.179688 156.507812 268.65625 156.507812 Z M 271.394531 133.996094 C 271.851562 133.875 272.324219 134.144531 272.445312 134.605469 C 272.570312 135.0625 272.296875 135.535156 271.839844 135.660156 L 266.113281 137.191406 C 265.65625 137.316406 265.183594 137.042969 265.058594 136.582031 C 264.9375 136.125 265.210938 135.652344 265.667969 135.53125 Z M 262.488281 113.082031 C 262.898438 112.84375 263.425781 112.988281 263.660156 113.398438 C 263.894531 113.808594 263.753906 114.332031 263.34375 114.566406 L 258.210938 117.53125 C 257.800781 117.765625 257.277344 117.625 257.039062 117.214844 C 256.804688 116.804688 256.945312 116.28125 257.355469 116.042969 Z M 248.46875 95.179688 L 244.277344 99.371094 C 243.941406 99.707031 243.941406 100.25 244.277344 100.589844 C 244.613281 100.925781 245.160156 100.925781 245.496094 100.589844 L 249.683594 96.398438 C 250.023438 96.0625 250.023438 95.515625 249.683594 95.179688 C 249.351562 94.84375 248.804688 94.84375 248.46875 95.179688 Z M 230.296875 81.519531 L 227.332031 86.652344 C 227.097656 87.0625 227.238281 87.589844 227.648438 87.824219 C 228.058594 88.058594 228.585938 87.917969 228.820312 87.507812 L 231.785156 82.375 C 232.019531 81.964844 231.878906 81.441406 231.46875 81.203125 C 231.058594 80.96875 230.53125 81.109375 230.296875 81.519531 Z M 208.292969 72.785156 C 208.414062 72.328125 208.886719 72.054688 209.34375 72.175781 C 209.804688 72.296875 210.078125 72.769531 209.953125 73.230469 L 208.421875 78.953125 C 208.296875 79.414062 207.828125 79.6875 207.367188 79.5625 C 206.910156 79.441406 206.636719 78.96875 206.757812 78.511719 Z M 166.917969 83.890625 C 166.796875 83.433594 167.066406 82.960938 167.527344 82.839844 C 167.988281 82.71875 168.457031 82.988281 168.582031 83.449219 L 170.03125 88.855469 C 170.152344 89.316406 169.878906 89.785156 169.421875 89.910156 C 168.960938 90.03125 168.492188 89.761719 168.367188 89.300781 Z M 148.605469 91.722656 L 151.367188 96.511719 C 151.605469 96.921875 152.132812 97.058594 152.542969 96.824219 C 152.953125 96.585938 153.09375 96.058594 152.855469 95.648438 L 150.089844 90.863281 C 149.855469 90.453125 149.328125 90.3125 148.917969 90.546875 C 148.507812 90.785156 148.367188 91.3125 148.605469 91.722656 Z M 132.9375 104.027344 C 132.601562 103.691406 132.601562 103.144531 132.9375 102.808594 C 133.273438 102.472656 133.820312 102.472656 134.15625 102.808594 L 137.988281 106.644531 C 138.324219 106.980469 138.324219 107.523438 137.988281 107.859375 C 137.652344 108.195312 137.109375 108.195312 136.773438 107.859375 Z M 120.996094 119.964844 L 125.546875 122.589844 C 125.957031 122.828125 126.480469 122.683594 126.714844 122.273438 C 126.953125 121.863281 126.8125 121.339844 126.402344 121.105469 L 121.847656 118.476562 C 121.4375 118.242188 120.914062 118.382812 120.679688 118.792969 C 120.441406 119.203125 120.582031 119.726562 120.996094 119.964844 Z M 113.578125 138.453125 C 113.117188 138.328125 112.84375 137.859375 112.96875 137.398438 C 113.089844 136.941406 113.5625 136.667969 114.023438 136.789062 L 118.914062 138.101562 C 119.371094 138.222656 119.644531 138.695312 119.523438 139.152344 C 119.398438 139.613281 118.929688 139.886719 118.46875 139.761719 Z M 111.199219 158.230469 C 110.722656 158.230469 110.339844 157.84375 110.339844 157.367188 C 110.339844 156.890625 110.722656 156.507812 111.199219 156.507812 L 116.089844 156.507812 C 116.5625 156.507812 116.949219 156.890625 116.949219 157.367188 C 116.949219 157.84375 116.5625 158.230469 116.089844 158.230469 Z M 114.023438 177.945312 C 113.5625 178.070312 113.089844 177.796875 112.96875 177.335938 C 112.84375 176.878906 113.117188 176.40625 113.578125 176.285156 L 118.089844 175.074219 C 118.546875 174.953125 119.019531 175.226562 119.140625 175.683594 C 119.265625 176.144531 118.992188 176.613281 118.53125 176.738281 Z M 121.851562 196.261719 L 125.746094 194.011719 C 126.15625 193.773438 126.296875 193.25 126.058594 192.839844 C 125.820312 192.429688 125.292969 192.289062 124.882812 192.527344 L 120.992188 194.773438 C 120.582031 195.011719 120.441406 195.535156 120.679688 195.945312 C 120.914062 196.359375 121.441406 196.496094 121.851562 196.261719 Z M 134.15625 211.925781 C 133.820312 212.261719 133.273438 212.261719 132.9375 211.925781 C 132.601562 211.589844 132.601562 211.042969 132.9375 210.710938 L 136.011719 207.632812 C 136.347656 207.296875 136.894531 207.296875 137.230469 207.632812 C 137.566406 207.96875 137.566406 208.515625 137.230469 208.851562 Z M 150.09375 223.875 L 152.199219 220.222656 C 152.4375 219.8125 152.296875 219.285156 151.886719 219.046875 C 151.476562 218.8125 150.949219 218.949219 150.710938 219.359375 L 148.605469 223.011719 C 148.367188 223.421875 148.507812 223.949219 148.917969 224.1875 C 149.328125 224.425781 149.855469 224.285156 150.09375 223.875 Z M 168.582031 231.285156 C 168.457031 231.746094 167.988281 232.019531 167.527344 231.894531 C 167.070312 231.773438 166.796875 231.300781 166.917969 230.839844 L 167.988281 226.851562 C 168.109375 226.390625 168.582031 226.117188 169.042969 226.242188 C 169.5 226.363281 169.773438 226.835938 169.652344 227.292969 Z M 188.359375 233.664062 C 188.359375 234.140625 187.972656 234.527344 187.496094 234.527344 C 187.019531 234.527344 186.636719 234.140625 186.636719 233.664062 L 186.636719 229.542969 C 186.636719 229.070312 187.019531 228.683594 187.496094 228.683594 C 187.972656 228.683594 188.359375 229.070312 188.359375 229.542969 Z M 208.074219 230.839844 C 208.199219 231.300781 207.925781 231.773438 207.464844 231.894531 C 207.007812 232.015625 206.535156 231.746094 206.414062 231.285156 L 205.34375 227.292969 C 205.222656 226.835938 205.492188 226.363281 205.953125 226.242188 C 206.410156 226.117188 206.882812 226.390625 207.003906 226.851562 Z M 226.386719 223.011719 L 224.28125 219.359375 C 224.042969 218.949219 223.515625 218.808594 223.105469 219.046875 C 222.695312 219.285156 222.558594 219.8125 222.792969 220.222656 L 224.902344 223.871094 C 225.140625 224.28125 225.664062 224.421875 226.074219 224.183594 C 226.484375 223.945312 226.625 223.421875 226.386719 223.011719 Z M 242.054688 210.707031 C 242.390625 211.042969 242.390625 211.589844 242.054688 211.925781 C 241.71875 212.261719 241.175781 212.261719 240.835938 211.925781 L 237.765625 208.851562 C 237.429688 208.515625 237.429688 207.96875 237.765625 207.632812 C 238.101562 207.296875 238.644531 207.296875 238.980469 207.632812 Z M 254 194.769531 L 250.109375 192.523438 C 249.699219 192.289062 249.171875 192.429688 248.9375 192.839844 C 248.699219 193.25 248.839844 193.777344 249.253906 194.011719 L 253.144531 196.257812 C 253.554688 196.496094 254.082031 196.351562 254.316406 195.941406 C 254.550781 195.53125 254.410156 195.007812 254 194.769531 Z M 261.417969 176.285156 C 261.875 176.40625 262.148438 176.875 262.023438 177.335938 C 261.902344 177.796875 261.429688 178.066406 260.972656 177.945312 L 256.460938 176.738281 C 256 176.613281 255.730469 176.140625 255.851562 175.683594 C 255.976562 175.226562 256.445312 174.953125 256.90625 175.074219 Z M 263.792969 156.507812 C 264.269531 156.507812 264.65625 156.890625 264.65625 157.367188 C 264.65625 157.84375 264.269531 158.230469 263.792969 158.230469 L 258.90625 158.230469 C 258.429688 158.230469 258.042969 157.84375 258.042969 157.367188 C 258.042969 156.890625 258.429688 156.507812 258.90625 156.507812 Z M 260.972656 136.789062 C 261.429688 136.667969 261.902344 136.9375 262.023438 137.398438 C 262.148438 137.855469 261.875 138.328125 261.417969 138.453125 L 256.523438 139.761719 C 256.066406 139.886719 255.59375 139.613281 255.472656 139.152344 C 255.347656 138.695312 255.621094 138.222656 256.078125 138.101562 Z M 253.140625 118.476562 L 248.589844 121.105469 C 248.179688 121.339844 248.039062 121.867188 248.277344 122.277344 C 248.515625 122.6875 249.042969 122.828125 249.453125 122.589844 L 254.003906 119.960938 C 254.414062 119.726562 254.550781 119.199219 254.316406 118.789062 C 254.078125 118.378906 253.550781 118.238281 253.140625 118.476562 Z M 240.835938 102.808594 L 237.003906 106.644531 C 236.667969 106.980469 236.667969 107.523438 237.003906 107.859375 C 237.339844 108.195312 237.886719 108.195312 238.222656 107.859375 L 242.054688 104.027344 C 242.390625 103.691406 242.390625 103.144531 242.054688 102.808594 C 241.71875 102.472656 241.175781 102.472656 240.835938 102.808594 Z M 224.902344 90.867188 L 222.136719 95.652344 C 221.902344 96.0625 222.042969 96.585938 222.453125 96.820312 C 222.863281 97.058594 223.386719 96.917969 223.625 96.507812 L 226.386719 91.71875 C 226.625 91.308594 226.484375 90.785156 226.074219 90.546875 C 225.660156 90.3125 225.136719 90.453125 224.902344 90.867188 Z M 205.5 83.207031 C 205.621094 82.75 206.09375 82.476562 206.554688 82.597656 C 207.011719 82.71875 207.285156 83.191406 207.164062 83.652344 L 205.710938 89.066406 C 205.589844 89.523438 205.117188 89.796875 204.660156 89.675781 C 204.199219 89.550781 203.925781 89.078125 204.046875 88.621094 Z M 186.636719 70.28125 C 186.636719 69.804688 187.019531 69.417969 187.496094 69.417969 C 187.972656 69.417969 188.359375 69.804688 188.359375 70.28125 L 188.359375 76.207031 C 188.359375 76.683594 187.972656 77.070312 187.496094 77.070312 C 187.019531 77.070312 186.636719 76.683594 186.636719 76.207031 Z M 186.636719 81.070312 C 186.636719 80.59375 187.019531 80.210938 187.496094 80.210938 C 187.972656 80.210938 188.359375 80.59375 188.359375 81.070312 L 188.359375 86.707031 C 188.359375 87.183594 187.972656 87.570312 187.496094 87.570312 C 187.019531 87.570312 186.636719 87.183594 186.636719 86.707031 Z M 174.691406 261.152344 C 174.632812 261.621094 174.199219 261.953125 173.730469 261.890625 C 173.261719 261.832031 172.929688 261.398438 172.988281 260.929688 L 177.25 228.816406 C 177.3125 228.347656 177.742188 228.015625 178.214844 228.078125 C 178.683594 228.140625 179.015625 228.570312 178.953125 229.039062 Z M 200.300781 55.101562 C 200.363281 54.632812 200.792969 54.300781 201.261719 54.363281 C 201.734375 54.421875 202.066406 54.855469 202.003906 55.324219 L 197.742188 87.433594 C 197.683594 87.90625 197.25 88.238281 196.78125 88.175781 C 196.3125 88.113281 195.980469 87.683594 196.039062 87.210938 Z M 201.792969 260.957031 C 201.855469 261.429688 201.523438 261.859375 201.054688 261.921875 C 200.582031 261.980469 200.152344 261.648438 200.089844 261.179688 L 195.894531 229.0625 C 195.835938 228.589844 196.167969 228.160156 196.636719 228.097656 C 197.105469 228.035156 197.539062 228.367188 197.597656 228.839844 Z M 173.199219 55.296875 C 173.136719 54.824219 173.46875 54.394531 173.941406 54.332031 C 174.410156 54.273438 174.839844 54.601562 174.902344 55.074219 L 179.097656 87.195312 C 179.160156 87.664062 178.828125 88.09375 178.355469 88.15625 C 177.886719 88.214844 177.457031 87.886719 177.394531 87.414062 Z M 227.925781 253.765625 C 228.109375 254.203125 227.898438 254.707031 227.460938 254.886719 C 227.019531 255.066406 226.519531 254.859375 226.339844 254.417969 L 213.972656 224.476562 C 213.792969 224.035156 214 223.535156 214.4375 223.355469 C 214.878906 223.175781 215.378906 223.382812 215.558594 223.824219 Z M 147.066406 62.488281 C 146.886719 62.050781 147.097656 61.546875 147.535156 61.367188 C 147.972656 61.1875 148.476562 61.398438 148.65625 61.835938 L 161.023438 91.777344 C 161.203125 92.214844 160.992188 92.71875 160.554688 92.898438 C 160.117188 93.078125 159.613281 92.867188 159.433594 92.429688 Z M 251.289062 240.023438 L 231.597656 214.308594 C 231.308594 213.929688 230.769531 213.859375 230.390625 214.144531 C 230.015625 214.433594 229.941406 214.972656 230.230469 215.351562 L 249.921875 241.066406 C 250.210938 241.445312 250.75 241.515625 251.125 241.230469 C 251.503906 240.941406 251.578125 240.402344 251.289062 240.023438 Z M 123.703125 76.230469 L 143.394531 101.945312 C 143.683594 102.324219 144.222656 102.394531 144.601562 102.105469 C 144.976562 101.820312 145.050781 101.28125 144.761719 100.902344 L 125.070312 75.1875 C 124.78125 74.808594 124.242188 74.738281 123.867188 75.023438 C 123.488281 75.3125 123.417969 75.851562 123.703125 76.230469 Z M 270.3125 220.722656 C 270.6875 221.015625 270.757812 221.554688 270.46875 221.929688 C 270.175781 222.304688 269.636719 222.375 269.261719 222.082031 L 243.585938 202.339844 C 243.210938 202.050781 243.140625 201.511719 243.429688 201.136719 C 243.71875 200.761719 244.261719 200.691406 244.636719 200.980469 Z M 104.679688 95.527344 C 104.304688 95.242188 104.238281 94.699219 104.527344 94.324219 C 104.816406 93.949219 105.355469 93.878906 105.730469 94.171875 L 131.40625 113.914062 C 131.78125 114.203125 131.851562 114.742188 131.5625 115.117188 C 131.273438 115.492188 130.734375 115.5625 130.359375 115.273438 Z M 283.710938 197.164062 C 284.148438 197.347656 284.359375 197.851562 284.175781 198.289062 C 283.996094 198.726562 283.492188 198.933594 283.050781 198.753906 L 253.136719 186.324219 C 252.695312 186.140625 252.488281 185.640625 252.671875 185.199219 C 252.851562 184.761719 253.355469 184.554688 253.792969 184.734375 Z M 91.28125 119.089844 C 90.84375 118.90625 90.636719 118.402344 90.816406 117.964844 C 91 117.527344 91.503906 117.316406 91.941406 117.5 L 121.859375 129.929688 C 122.296875 130.113281 122.507812 130.613281 122.324219 131.054688 C 122.140625 131.492188 121.636719 131.699219 121.199219 131.519531 Z M 290.519531 170.933594 C 290.992188 170.992188 291.320312 171.421875 291.261719 171.894531 C 291.199219 172.363281 290.769531 172.695312 290.300781 172.632812 L 258.1875 168.375 C 257.71875 168.3125 257.386719 167.878906 257.449219 167.410156 C 257.511719 166.941406 257.941406 166.609375 258.410156 166.671875 Z M 84.472656 145.324219 C 84.003906 145.261719 83.671875 144.832031 83.730469 144.359375 C 83.792969 143.890625 84.222656 143.558594 84.695312 143.621094 L 116.804688 147.878906 C 117.277344 147.941406 117.605469 148.371094 117.546875 148.84375 C 117.484375 149.3125 117.054688 149.644531 116.582031 149.582031 Z M 290.328125 143.828125 C 290.796875 143.769531 291.230469 144.101562 291.292969 144.570312 C 291.351562 145.039062 291.019531 145.472656 290.550781 145.53125 L 258.429688 149.726562 C 257.960938 149.789062 257.53125 149.457031 257.46875 148.988281 C 257.40625 148.515625 257.738281 148.085938 258.207031 148.023438 Z M 84.664062 172.425781 C 84.195312 172.484375 83.765625 172.152344 83.703125 171.683594 C 83.640625 171.214844 83.972656 170.78125 84.441406 170.722656 L 116.5625 166.527344 C 117.03125 166.464844 117.464844 166.796875 117.527344 167.265625 C 117.585938 167.738281 117.253906 168.167969 116.785156 168.230469 Z M 283.136719 117.695312 C 283.574219 117.515625 284.078125 117.726562 284.257812 118.164062 C 284.4375 118.601562 284.226562 119.105469 283.789062 119.285156 L 253.847656 131.652344 C 253.40625 131.832031 252.90625 131.625 252.726562 131.183594 C 252.542969 130.746094 252.753906 130.242188 253.191406 130.066406 Z M 91.859375 198.554688 C 91.417969 198.738281 90.917969 198.527344 90.738281 198.089844 C 90.558594 197.648438 90.765625 197.148438 91.203125 196.96875 L 121.148438 184.601562 C 121.585938 184.421875 122.089844 184.628906 122.269531 185.070312 C 122.449219 185.507812 122.238281 186.007812 121.800781 186.191406 Z M 269.394531 94.335938 L 243.675781 114.027344 C 243.300781 114.3125 243.230469 114.855469 243.515625 115.230469 C 243.804688 115.609375 244.34375 115.679688 244.722656 115.390625 L 270.4375 95.703125 C 270.816406 95.410156 270.886719 94.875 270.597656 94.496094 C 270.3125 94.117188 269.769531 94.046875 269.394531 94.335938 Z M 105.601562 221.917969 L 131.316406 202.226562 C 131.691406 201.941406 131.765625 201.398438 131.476562 201.023438 C 131.1875 200.644531 130.648438 200.574219 130.273438 200.863281 L 104.554688 220.554688 C 104.179688 220.839844 104.105469 221.378906 104.394531 221.757812 C 104.683594 222.132812 105.222656 222.207031 105.601562 221.917969 Z M 250.09375 75.3125 C 250.382812 74.9375 250.925781 74.867188 251.296875 75.15625 C 251.675781 75.445312 251.742188 75.984375 251.453125 76.363281 L 231.710938 102.039062 C 231.421875 102.414062 230.878906 102.480469 230.503906 102.191406 C 230.128906 101.902344 230.0625 101.363281 230.351562 100.988281 Z M 124.898438 240.941406 C 124.609375 241.316406 124.070312 241.386719 123.695312 241.097656 C 123.320312 240.808594 123.25 240.269531 123.539062 239.890625 L 143.285156 214.214844 C 143.574219 213.839844 144.113281 213.773438 144.488281 214.0625 C 144.863281 214.351562 144.933594 214.890625 144.644531 215.265625 Z M 226.535156 61.910156 C 226.714844 61.472656 227.21875 61.265625 227.660156 61.445312 C 228.097656 61.628906 228.304688 62.132812 228.121094 62.570312 L 215.695312 92.488281 C 215.511719 92.925781 215.007812 93.136719 214.570312 92.953125 C 214.132812 92.769531 213.925781 92.269531 214.105469 91.828125 Z M 148.460938 254.34375 C 148.277344 254.78125 147.773438 254.988281 147.335938 254.804688 C 146.898438 254.625 146.6875 254.121094 146.871094 253.683594 L 159.300781 223.765625 C 159.480469 223.324219 159.984375 223.117188 160.421875 223.300781 C 160.863281 223.480469 161.070312 223.984375 160.886719 224.421875 Z M 164.125 73.46875 C 164.003906 73.011719 164.277344 72.539062 164.734375 72.414062 C 165.195312 72.292969 165.664062 72.566406 165.789062 73.027344 L 167.324219 78.75 C 167.445312 79.210938 167.171875 79.683594 166.714844 79.804688 C 166.253906 79.925781 165.78125 79.652344 165.660156 79.195312 L 164.125 73.46875 " fill-opacity="1" fill-rule="evenodd"/></g><g fill="#000000" fill-opacity="1"><g transform="translate(36.070315, 315.507226)"><g><path d="M 9.5 -13.25 L 9.5 0 L 2.5 0 L 2.5 -32.34375 L 14.953125 -32.34375 C 19.085938 -32.34375 21.15625 -30.144531 21.15625 -25.75 L 21.15625 -22 C 21.15625 -19.332031 20.203125 -17.632812 18.296875 -16.90625 C 19.960938 -16.300781 20.796875 -14.929688 20.796875 -12.796875 L 20.796875 0 L 13.796875 0 L 13.796875 -12.25 C 13.796875 -12.914062 13.476562 -13.25 12.84375 -13.25 Z M 9.5 -27.59375 L 9.5 -18.15625 L 13.203125 -18.15625 C 13.460938 -18.15625 13.6875 -18.253906 13.875 -18.453125 C 14.0625 -18.648438 14.15625 -18.882812 14.15625 -19.15625 L 14.15625 -26.59375 C 14.15625 -26.863281 14.0625 -27.097656 13.875 -27.296875 C 13.6875 -27.492188 13.460938 -27.59375 13.203125 -27.59375 Z M 9.5 -27.59375 "/></g></g></g><g fill="#000000" fill-opacity="1"><g transform="translate(59.216733, 315.507226)"><g><path d="M 15.34375 -32.84375 C 19.476562 -32.84375 21.546875 -30.644531 21.546875 -26.25 L 21.546875 0 L 14.546875 0 L 14.546875 -10.84375 L 9.5 -10.84375 L 9.5 0 L 2.5 0 L 2.5 -26.25 C 2.5 -30.644531 4.566406 -32.84375 8.703125 -32.84375 Z M 9.5 -16.25 L 14.546875 -16.25 L 14.546875 -27.09375 C 14.546875 -27.363281 14.453125 -27.597656 14.265625 -27.796875 C 14.085938 -27.992188 13.863281 -28.09375 13.59375 -28.09375 L 10.453125 -28.09375 C 10.179688 -28.09375 9.953125 -27.992188 9.765625 -27.796875 C 9.585938 -27.597656 9.5 -27.363281 9.5 -27.09375 Z M 9.5 -16.25 "/></g></g></g><g fill="#000000" fill-opacity="1"><g transform="translate(83.462974, 315.507226)"><g><path d="M 0.65625 -26.40625 L 0.65625 -32.34375 L 18.15625 -32.34375 L 18.15625 -26.40625 L 12.90625 -26.40625 L 12.90625 0 L 5.90625 0 L 5.90625 -26.40625 Z M 0.65625 -26.40625 "/></g></g></g><g fill="#000000" fill-opacity="1"><g transform="translate(102.310052, 315.507226)"><g><path d="M 9.5 -32.34375 L 9.5 0 L 2.5 0 L 2.5 -32.34375 Z M 9.5 -32.34375 "/></g></g></g><g fill="#000000" fill-opacity="1"><g transform="translate(114.50816, 315.507226)"><g><path d="M 21.546875 -26.25 L 21.546875 -6.09375 C 21.546875 -1.695312 19.476562 0.5 15.34375 0.5 L 8.703125 0.5 C 4.566406 0.5 2.5 -1.695312 2.5 -6.09375 L 2.5 -26.25 C 2.5 -30.644531 4.566406 -32.84375 8.703125 -32.84375 L 15.34375 -32.84375 C 19.476562 -32.84375 21.546875 -30.644531 21.546875 -26.25 Z M 14.546875 -5.296875 L 14.546875 -27.09375 C 14.546875 -27.363281 14.453125 -27.597656 14.265625 -27.796875 C 14.085938 -27.992188 13.863281 -28.09375 13.59375 -28.09375 L 10.453125 -28.09375 C 10.179688 -28.09375 9.953125 -27.992188 9.765625 -27.796875 C 9.585938 -27.597656 9.5 -27.363281 9.5 -27.09375 L 9.5 -5.296875 C 9.5 -5.035156 9.585938 -4.800781 9.765625 -4.59375 C 9.953125 -4.394531 10.179688 -4.296875 10.453125 -4.296875 L 13.59375 -4.296875 C 13.863281 -4.296875 14.085938 -4.394531 14.265625 -4.59375 C 14.453125 -4.800781 14.546875 -5.035156 14.546875 -5.296875 Z M 14.546875 -5.296875 "/></g></g></g><g fill="#000000" fill-opacity="1"><g transform="translate(138.704413, 315.507226)"><g><path d="M 21.046875 0 L 14.046875 0 L 14.046875 -26.84375 C 14.046875 -27.113281 13.953125 -27.347656 13.765625 -27.546875 C 13.585938 -27.742188 13.363281 -27.84375 13.09375 -27.84375 L 10.40625 -27.84375 C 10.132812 -27.84375 9.90625 -27.742188 9.71875 -27.546875 C 9.539062 -27.347656 9.453125 -27.113281 9.453125 -26.84375 L 9.453125 0 L 2.453125 0 L 2.453125 -26.25 C 2.453125 -30.644531 4.519531 -32.84375 8.65625 -32.84375 L 14.84375 -32.84375 C 18.976562 -32.84375 21.046875 -30.644531 21.046875 -26.25 Z M 21.046875 0 "/></g></g></g><g fill="#000000" fill-opacity="1"><g transform="translate(161.950819, 315.507226)"><g><path d="M 15.34375 -32.84375 C 19.476562 -32.84375 21.546875 -30.644531 21.546875 -26.25 L 21.546875 0 L 14.546875 0 L 14.546875 -10.84375 L 9.5 -10.84375 L 9.5 0 L 2.5 0 L 2.5 -26.25 C 2.5 -30.644531 4.566406 -32.84375 8.703125 -32.84375 Z M 9.5 -16.25 L 14.546875 -16.25 L 14.546875 -27.09375 C 14.546875 -27.363281 14.453125 -27.597656 14.265625 -27.796875 C 14.085938 -27.992188 13.863281 -28.09375 13.59375 -28.09375 L 10.453125 -28.09375 C 10.179688 -28.09375 9.953125 -27.992188 9.765625 -27.796875 C 9.585938 -27.597656 9.5 -27.363281 9.5 -27.09375 Z M 9.5 -16.25 "/></g></g></g><g fill="#000000" fill-opacity="1"><g transform="translate(186.197059, 315.507226)"><g><path d="M 9.5 -5.90625 L 17.15625 -5.90625 L 17.15625 0 L 2.5 0 L 2.5 -32.34375 L 9.5 -32.34375 Z M 9.5 -5.90625 "/></g></g></g><g fill="#000000" fill-opacity="1"><g transform="translate(204.144278, 315.507226)"><g><path d="M 9.5 -32.34375 L 9.5 0 L 2.5 0 L 2.5 -32.34375 Z M 9.5 -32.34375 "/></g></g></g><g fill="#000000" fill-opacity="1"><g transform="translate(216.342386, 315.507226)"><g><path d="M 18.546875 -27.796875 L 8.90625 -5.203125 L 18.546875 -5.203125 L 18.546875 0 L 1.59375 0 L 1.59375 -4.296875 L 11.296875 -27.09375 L 1.90625 -27.09375 L 1.90625 -32.34375 L 18.546875 -32.34375 Z M 18.546875 -27.796875 "/></g></g></g><g fill="#000000" fill-opacity="1"><g transform="translate(236.189312, 315.507226)"><g><path d="M 15.34375 -32.84375 C 19.476562 -32.84375 21.546875 -30.644531 21.546875 -26.25 L 21.546875 0 L 14.546875 0 L 14.546875 -10.84375 L 9.5 -10.84375 L 9.5 0 L 2.5 0 L 2.5 -26.25 C 2.5 -30.644531 4.566406 -32.84375 8.703125 -32.84375 Z M 9.5 -16.25 L 14.546875 -16.25 L 14.546875 -27.09375 C 14.546875 -27.363281 14.453125 -27.597656 14.265625 -27.796875 C 14.085938 -27.992188 13.863281 -28.09375 13.59375 -28.09375 L 10.453125 -28.09375 C 10.179688 -28.09375 9.953125 -27.992188 9.765625 -27.796875 C 9.585938 -27.597656 9.5 -27.363281 9.5 -27.09375 Z M 9.5 -16.25 "/></g></g></g><g fill="#000000" fill-opacity="1"><g transform="translate(260.435564, 315.507226)"><g><path d="M 0.65625 -26.40625 L 0.65625 -32.34375 L 18.15625 -32.34375 L 18.15625 -26.40625 L 12.90625 -26.40625 L 12.90625 0 L 5.90625 0 L 5.90625 -26.40625 Z M 0.65625 -26.40625 "/></g></g></g><g fill="#000000" fill-opacity="1"><g transform="translate(279.282655, 315.507226)"><g><path d="M 9.5 -32.34375 L 9.5 0 L 2.5 0 L 2.5 -32.34375 Z M 9.5 -32.34375 "/></g></g></g><g fill="#000000" fill-opacity="1"><g transform="translate(291.480774, 315.507226)"><g><path d="M 21.546875 -26.25 L 21.546875 -6.09375 C 21.546875 -1.695312 19.476562 0.5 15.34375 0.5 L 8.703125 0.5 C 4.566406 0.5 2.5 -1.695312 2.5 -6.09375 L 2.5 -26.25 C 2.5 -30.644531 4.566406 -32.84375 8.703125 -32.84375 L 15.34375 -32.84375 C 19.476562 -32.84375 21.546875 -30.644531 21.546875 -26.25 Z M 14.546875 -5.296875 L 14.546875 -27.09375 C 14.546875 -27.363281 14.453125 -27.597656 14.265625 -27.796875 C 14.085938 -27.992188 13.863281 -28.09375 13.59375 -28.09375 L 10.453125 -28.09375 C 10.179688 -28.09375 9.953125 -27.992188 9.765625 -27.796875 C 9.585938 -27.597656 9.5 -27.363281 9.5 -27.09375 L 9.5 -5.296875 C 9.5 -5.035156 9.585938 -4.800781 9.765625 -4.59375 C 9.953125 -4.394531 10.179688 -4.296875 10.453125 -4.296875 L 13.59375 -4.296875 C 13.863281 -4.296875 14.085938 -4.394531 14.265625 -4.59375 C 14.453125 -4.800781 14.546875 -5.035156 14.546875 -5.296875 Z M 14.546875 -5.296875 "/></g></g></g><g fill="#000000" fill-opacity="1"><g transform="translate(315.677016, 315.507226)"><g><path d="M 21.046875 0 L 14.046875 0 L 14.046875 -26.84375 C 14.046875 -27.113281 13.953125 -27.347656 13.765625 -27.546875 C 13.585938 -27.742188 13.363281 -27.84375 13.09375 -27.84375 L 10.40625 -27.84375 C 10.132812 -27.84375 9.90625 -27.742188 9.71875 -27.546875 C 9.539062 -27.347656 9.453125 -27.113281 9.453125 -26.84375 L 9.453125 0 L 2.453125 0 L 2.453125 -26.25 C 2.453125 -30.644531 4.519531 -32.84375 8.65625 -32.84375 L 14.84375 -32.84375 C 18.976562 -32.84375 21.046875 -30.644531 21.046875 -26.25 Z M 21.046875 0 "/></g></g></g></svg>