<svg xmlns="http://www.w3.org/2000/svg" xmlns:xlink="http://www.w3.org/1999/xlink" width="500" zoomAndPan="magnify" viewBox="0 0 375 374.999991" height="500" preserveAspectRatio="xMidYMid meet" version="1.0"><defs><g/><clipPath id="6ad3183a15"><path d="M 98.058594 47.625 L 277 47.625 L 277 230.621094 L 98.058594 230.621094 Z M 98.058594 47.625 " clip-rule="nonzero"/></clipPath></defs><g clip-path="url(#6ad3183a15)"><path fill="#4abb99" d="M 257.074219 128.4375 L 257.074219 80.671875 L 275.761719 131.421875 Z M 256.109375 128.4375 L 237.414062 131.421875 L 256.109375 80.671875 Z M 137.574219 131.421875 L 118.882812 128.4375 L 118.882812 80.671875 Z M 117.917969 128.4375 L 99.226562 131.421875 L 117.917969 80.671875 Z M 276.90625 131.601562 L 276.855469 131.597656 L 258.019531 80.449219 C 258.105469 80.460938 258.1875 80.46875 258.273438 80.480469 C 258.289062 80.484375 258.304688 80.484375 258.320312 80.484375 C 259.011719 81.386719 260.101562 81.96875 261.332031 81.96875 C 263.425781 81.96875 265.128906 80.269531 265.128906 78.171875 C 265.128906 76.074219 263.425781 74.371094 261.332031 74.371094 C 259.914062 74.371094 258.679688 75.148438 258.027344 76.296875 C 257.71875 76.203125 257.402344 76.082031 257.074219 75.925781 C 257.003906 75.894531 256.933594 75.859375 256.863281 75.824219 C 256.453125 75.613281 256.023438 75.351562 255.585938 75.019531 C 255.050781 74.613281 254.492188 74.121094 253.894531 73.527344 C 253.296875 72.9375 252.65625 72.257812 251.925781 71.519531 C 251.195312 70.789062 250.363281 70 249.363281 69.25 C 248.363281 68.507812 247.183594 67.816406 245.859375 67.339844 C 245.199219 67.101562 244.515625 66.910156 243.816406 66.773438 C 243.117188 66.644531 242.410156 66.558594 241.703125 66.523438 C 240.289062 66.457031 238.882812 66.574219 237.515625 66.796875 C 236.148438 67.023438 234.808594 67.355469 233.496094 67.757812 C 232.183594 68.160156 230.894531 68.628906 229.628906 69.144531 C 228.363281 69.660156 227.113281 70.210938 225.882812 70.800781 C 225.570312 70.945312 225.261719 71.105469 224.949219 71.253906 C 224.640625 71.410156 224.316406 71.566406 224.035156 71.710938 L 223.15625 72.164062 L 222.703125 72.390625 L 222.277344 72.597656 C 221.710938 72.882812 221.144531 73.160156 220.582031 73.441406 C 220.011719 73.707031 219.4375 73.953125 218.867188 74.214844 C 218.582031 74.339844 218.296875 74.46875 218.011719 74.59375 C 217.722656 74.707031 217.4375 74.820312 217.152344 74.9375 C 216.863281 75.046875 216.574219 75.164062 216.289062 75.277344 C 216.003906 75.390625 215.71875 75.507812 215.429688 75.605469 C 214.855469 75.804688 214.28125 76 213.714844 76.203125 C 213.140625 76.382812 212.566406 76.542969 212.003906 76.714844 L 211.578125 76.839844 C 211.4375 76.886719 211.296875 76.914062 211.15625 76.949219 C 210.871094 77.019531 210.589844 77.085938 210.308594 77.15625 C 210.027344 77.222656 209.75 77.296875 209.472656 77.359375 C 209.191406 77.414062 208.910156 77.46875 208.636719 77.519531 C 206.421875 77.953125 204.285156 78.160156 202.300781 78.136719 C 200.320312 78.117188 198.496094 77.867188 196.894531 77.460938 C 195.289062 77.054688 193.90625 76.496094 192.757812 75.894531 C 192.738281 75.886719 192.722656 75.878906 192.703125 75.867188 L 192.703125 70.175781 L 187.496094 47.613281 L 182.285156 70.175781 L 182.285156 75.867188 C 182.265625 75.878906 182.25 75.886719 182.230469 75.894531 C 181.082031 76.496094 179.699219 77.054688 178.09375 77.460938 C 176.496094 77.867188 174.671875 78.117188 172.6875 78.136719 C 170.707031 78.160156 168.570312 77.953125 166.355469 77.519531 C 166.078125 77.46875 165.800781 77.414062 165.519531 77.359375 C 165.242188 77.296875 164.960938 77.222656 164.683594 77.15625 C 164.402344 77.085938 164.117188 77.019531 163.835938 76.949219 C 163.695312 76.914062 163.550781 76.886719 163.410156 76.839844 L 162.988281 76.714844 C 162.421875 76.542969 161.847656 76.382812 161.277344 76.203125 C 160.707031 76 160.132812 75.804688 159.558594 75.605469 C 159.273438 75.507812 158.988281 75.390625 158.699219 75.277344 C 158.414062 75.164062 158.128906 75.046875 157.839844 74.9375 C 157.554688 74.820312 157.265625 74.707031 156.980469 74.59375 C 156.695312 74.46875 156.410156 74.339844 156.125 74.214844 C 155.554688 73.953125 154.976562 73.707031 154.410156 73.441406 C 153.84375 73.160156 153.277344 72.882812 152.714844 72.597656 L 152.289062 72.390625 L 151.835938 72.164062 L 150.957031 71.710938 C 150.671875 71.566406 150.347656 71.410156 150.042969 71.253906 C 149.730469 71.105469 149.417969 70.945312 149.109375 70.800781 C 147.878906 70.210938 146.625 69.660156 145.363281 69.144531 C 144.09375 68.628906 142.808594 68.160156 141.492188 67.757812 C 140.179688 67.355469 138.84375 67.023438 137.476562 66.796875 C 136.105469 66.574219 134.703125 66.457031 133.289062 66.523438 C 132.582031 66.558594 131.871094 66.644531 131.175781 66.773438 C 130.476562 66.910156 129.789062 67.101562 129.128906 67.339844 C 127.808594 67.816406 126.625 68.507812 125.625 69.25 C 124.628906 70 123.792969 70.789062 123.066406 71.519531 C 122.332031 72.257812 121.695312 72.9375 121.097656 73.527344 C 120.496094 74.121094 119.941406 74.613281 119.40625 75.019531 C 118.964844 75.351562 118.539062 75.613281 118.125 75.824219 C 118.054688 75.859375 117.984375 75.894531 117.917969 75.925781 C 117.589844 76.082031 117.269531 76.203125 116.960938 76.296875 C 116.308594 75.148438 115.074219 74.371094 113.660156 74.371094 C 111.5625 74.371094 109.859375 76.074219 109.859375 78.171875 C 109.859375 80.269531 111.5625 81.96875 113.660156 81.96875 C 114.886719 81.96875 115.976562 81.386719 116.671875 80.484375 C 116.6875 80.484375 116.703125 80.484375 116.71875 80.480469 C 116.800781 80.46875 116.886719 80.460938 116.96875 80.449219 L 98.132812 131.597656 L 98.085938 131.601562 C 98.085938 131.644531 98.085938 131.683594 98.085938 131.722656 L 98.085938 131.734375 C 98.15625 134.402344 100.339844 136.539062 103.023438 136.539062 L 133.777344 136.539062 C 135.140625 136.539062 136.378906 135.988281 137.269531 135.09375 C 138.136719 134.230469 138.679688 133.042969 138.710938 131.734375 L 138.71875 131.730469 L 138.714844 131.722656 C 138.714844 131.683594 138.71875 131.644531 138.71875 131.601562 L 138.667969 131.597656 L 119.574219 79.757812 C 120.335938 79.453125 121.113281 79.042969 121.863281 78.550781 C 122.648438 78.03125 123.402344 77.425781 124.121094 76.792969 C 124.847656 76.15625 125.539062 75.496094 126.242188 74.871094 C 126.945312 74.242188 127.652344 73.65625 128.390625 73.167969 C 129.132812 72.6875 129.902344 72.308594 130.730469 72.066406 C 131.144531 71.945312 131.574219 71.851562 132.019531 71.792969 C 132.46875 71.738281 132.933594 71.710938 133.414062 71.714844 C 134.378906 71.730469 135.402344 71.871094 136.457031 72.105469 C 137.515625 72.34375 138.605469 72.683594 139.703125 73.089844 C 140.800781 73.5 141.910156 73.976562 143.015625 74.507812 C 144.125 75.035156 145.234375 75.605469 146.339844 76.214844 C 146.617188 76.363281 146.878906 76.519531 147.152344 76.671875 C 147.425781 76.824219 147.6875 76.972656 147.976562 77.144531 L 148.828125 77.648438 L 149.246094 77.886719 L 149.695312 78.144531 C 150.289062 78.484375 150.886719 78.824219 151.484375 79.164062 C 152.085938 79.492188 152.703125 79.804688 153.3125 80.121094 C 153.617188 80.277344 153.921875 80.441406 154.230469 80.59375 C 154.542969 80.742188 154.855469 80.886719 155.164062 81.03125 C 155.476562 81.179688 155.789062 81.324219 156.101562 81.46875 C 156.410156 81.613281 156.722656 81.761719 157.042969 81.890625 C 157.679688 82.152344 158.3125 82.414062 158.941406 82.675781 C 159.582031 82.925781 160.230469 83.148438 160.867188 83.382812 C 161.027344 83.441406 161.1875 83.5 161.347656 83.554688 C 161.507812 83.613281 161.671875 83.660156 161.832031 83.714844 C 162.160156 83.8125 162.480469 83.914062 162.808594 84.011719 C 163.128906 84.113281 163.453125 84.214844 163.773438 84.308594 C 164.105469 84.390625 164.429688 84.476562 164.753906 84.558594 C 167.355469 85.230469 169.976562 85.648438 172.519531 85.769531 C 175.066406 85.894531 177.535156 85.71875 179.792969 85.289062 C 180.65625 85.125 181.488281 84.921875 182.285156 84.695312 L 182.285156 187.96875 C 180.621094 189.421875 179.566406 191.5625 179.566406 193.945312 L 179.566406 215.667969 C 179.566406 216.058594 179.597656 216.441406 179.652344 216.816406 C 160.089844 217.417969 145.285156 220.222656 145.285156 223.59375 C 145.285156 227.402344 164.183594 230.492188 187.496094 230.492188 C 210.808594 230.492188 229.707031 227.402344 229.707031 223.59375 C 229.707031 220.222656 214.902344 217.417969 195.339844 216.816406 C 195.394531 216.441406 195.425781 216.058594 195.425781 215.667969 L 195.425781 193.945312 C 195.425781 191.5625 194.371094 189.421875 192.703125 187.96875 L 192.703125 84.695312 C 193.5 84.921875 194.332031 85.125 195.195312 85.289062 C 197.457031 85.71875 199.925781 85.894531 202.46875 85.769531 C 205.015625 85.648438 207.636719 85.230469 210.234375 84.558594 C 210.5625 84.476562 210.886719 84.390625 211.214844 84.308594 C 211.539062 84.214844 211.859375 84.113281 212.183594 84.011719 C 212.507812 83.914062 212.832031 83.8125 213.15625 83.714844 C 213.320312 83.660156 213.484375 83.613281 213.644531 83.554688 C 213.804688 83.5 213.960938 83.441406 214.125 83.382812 C 214.761719 83.148438 215.410156 82.925781 216.046875 82.675781 C 216.679688 82.414062 217.3125 82.152344 217.949219 81.890625 C 218.269531 81.761719 218.578125 81.613281 218.890625 81.46875 C 219.203125 81.324219 219.511719 81.179688 219.824219 81.03125 C 220.136719 80.886719 220.449219 80.742188 220.761719 80.59375 C 221.066406 80.441406 221.371094 80.277344 221.679688 80.121094 C 222.289062 79.804688 222.902344 79.492188 223.507812 79.164062 C 224.105469 78.824219 224.703125 78.484375 225.296875 78.144531 L 225.742188 77.886719 L 226.160156 77.648438 L 227.011719 77.144531 C 227.304688 76.972656 227.566406 76.824219 227.839844 76.671875 C 228.109375 76.519531 228.375 76.363281 228.652344 76.214844 C 229.757812 75.605469 230.867188 75.035156 231.972656 74.507812 C 233.082031 73.976562 234.191406 73.5 235.289062 73.089844 C 236.386719 72.683594 237.472656 72.34375 238.53125 72.105469 C 239.585938 71.871094 240.613281 71.730469 241.578125 71.714844 C 242.058594 71.710938 242.523438 71.738281 242.96875 71.792969 C 243.417969 71.851562 243.847656 71.945312 244.261719 72.066406 C 245.089844 72.308594 245.855469 72.6875 246.597656 73.167969 C 247.335938 73.65625 248.046875 74.242188 248.75 74.871094 C 249.449219 75.496094 250.144531 76.15625 250.871094 76.792969 C 251.585938 77.425781 252.34375 78.03125 253.125 78.550781 C 253.878906 79.042969 254.65625 79.453125 255.417969 79.757812 L 236.320312 131.597656 L 236.273438 131.601562 C 236.273438 131.644531 236.277344 131.683594 236.277344 131.722656 L 236.273438 131.730469 L 236.277344 131.734375 C 236.3125 133.042969 236.855469 134.230469 237.722656 135.09375 C 238.613281 135.988281 239.847656 136.539062 241.210938 136.539062 L 271.96875 136.539062 C 274.652344 136.539062 276.835938 134.402344 276.902344 131.734375 L 276.90625 131.730469 L 276.902344 131.722656 C 276.902344 131.683594 276.90625 131.644531 276.90625 131.601562 " fill-opacity="1" fill-rule="nonzero"/></g><g fill="#000000" fill-opacity="1"><g transform="translate(83.759766, 275.999953)"><g><path d="M 18.296875 -17.703125 C 20.460938 -16.929688 21.546875 -15.164062 21.546875 -12.40625 L 21.546875 -6.59375 C 21.546875 -2.195312 19.476562 0 15.34375 0 L 2.5 0 L 2.5 -32.34375 L 14.953125 -32.34375 C 19.085938 -32.34375 21.15625 -30.144531 21.15625 -25.75 L 21.15625 -22.796875 C 21.15625 -20.128906 20.203125 -18.429688 18.296875 -17.703125 Z M 13.203125 -27.59375 L 9.5 -27.59375 L 9.5 -18.953125 L 13.203125 -18.953125 C 13.460938 -18.953125 13.6875 -19.050781 13.875 -19.25 C 14.0625 -19.445312 14.15625 -19.679688 14.15625 -19.953125 L 14.15625 -26.59375 C 14.15625 -26.863281 14.0625 -27.097656 13.875 -27.296875 C 13.6875 -27.492188 13.460938 -27.59375 13.203125 -27.59375 Z M 14.546875 -5.796875 L 14.546875 -13.046875 C 14.546875 -13.316406 14.453125 -13.550781 14.265625 -13.75 C 14.085938 -13.945312 13.863281 -14.046875 13.59375 -14.046875 L 9.5 -14.046875 L 9.5 -4.796875 L 13.59375 -4.796875 C 13.863281 -4.796875 14.085938 -4.894531 14.265625 -5.09375 C 14.453125 -5.300781 14.546875 -5.535156 14.546875 -5.796875 Z M 14.546875 -5.796875 "/></g></g></g><g fill="#000000" fill-opacity="1"><g transform="translate(107.60607, 275.999953)"><g><path d="M 15.34375 -32.84375 C 19.476562 -32.84375 21.546875 -30.644531 21.546875 -26.25 L 21.546875 0 L 14.546875 0 L 14.546875 -10.84375 L 9.5 -10.84375 L 9.5 0 L 2.5 0 L 2.5 -26.25 C 2.5 -30.644531 4.566406 -32.84375 8.703125 -32.84375 Z M 9.5 -16.25 L 14.546875 -16.25 L 14.546875 -27.09375 C 14.546875 -27.363281 14.453125 -27.597656 14.265625 -27.796875 C 14.085938 -27.992188 13.863281 -28.09375 13.59375 -28.09375 L 10.453125 -28.09375 C 10.179688 -28.09375 9.953125 -27.992188 9.765625 -27.796875 C 9.585938 -27.597656 9.5 -27.363281 9.5 -27.09375 Z M 9.5 -16.25 "/></g></g></g><g fill="#000000" fill-opacity="1"><g transform="translate(131.85231, 275.999953)"><g><path d="M 20.453125 -23.84375 L 13.796875 -23.84375 L 13.796875 -26.40625 C 13.796875 -26.664062 13.703125 -26.894531 13.515625 -27.09375 C 13.335938 -27.300781 13.113281 -27.40625 12.84375 -27.40625 L 10.09375 -27.40625 C 9.832031 -27.40625 9.609375 -27.300781 9.421875 -27.09375 C 9.242188 -26.894531 9.15625 -26.664062 9.15625 -26.40625 L 9.15625 -20.65625 C 9.15625 -20.382812 9.242188 -20.148438 9.421875 -19.953125 C 9.609375 -19.753906 9.832031 -19.65625 10.09375 -19.65625 L 14.59375 -19.65625 C 18.726562 -19.582031 20.796875 -17.378906 20.796875 -13.046875 L 20.796875 -6.09375 C 20.796875 -1.695312 18.726562 0.5 14.59375 0.5 L 8.703125 0.5 C 4.566406 0.5 2.5 -1.695312 2.5 -6.09375 L 2.5 -9.453125 L 9.15625 -9.453125 L 9.15625 -5.84375 C 9.15625 -5.582031 9.242188 -5.347656 9.421875 -5.140625 C 9.609375 -4.941406 9.832031 -4.84375 10.09375 -4.84375 L 13.203125 -4.84375 C 13.460938 -4.84375 13.6875 -4.941406 13.875 -5.140625 C 14.0625 -5.347656 14.15625 -5.582031 14.15625 -5.84375 L 14.15625 -12.203125 C 14.15625 -12.460938 14.0625 -12.691406 13.875 -12.890625 C 13.6875 -13.097656 13.460938 -13.203125 13.203125 -13.203125 L 8.703125 -13.203125 C 4.566406 -13.203125 2.5 -15.398438 2.5 -19.796875 L 2.5 -26.25 C 2.5 -30.644531 4.566406 -32.84375 8.703125 -32.84375 L 14.25 -32.84375 C 18.382812 -32.84375 20.453125 -30.644531 20.453125 -26.25 Z M 20.453125 -23.84375 "/></g></g></g><g fill="#000000" fill-opacity="1"><g transform="translate(154.748766, 275.999953)"><g><path d="M 9.5 -5.796875 L 17.25 -5.796875 L 17.25 0 L 2.5 0 L 2.5 -32.34375 L 17.25 -32.34375 L 17.25 -26.65625 L 9.5 -26.65625 L 9.5 -19.046875 L 16.75 -19.046875 L 16.75 -13.546875 L 9.5 -13.546875 Z M 9.5 -5.796875 "/></g></g></g><g fill="#000000" fill-opacity="1"><g transform="translate(173.545858, 275.999953)"><g><path d="M 19.84375 -17.296875 L 19.84375 -11.953125 L 2.796875 -11.953125 L 2.796875 -17.296875 Z M 19.84375 -17.296875 "/></g></g></g><g fill="#000000" fill-opacity="1"><g transform="translate(196.092365, 275.999953)"><g><path d="M 9.5 -13.25 L 9.5 0 L 2.5 0 L 2.5 -32.34375 L 14.953125 -32.34375 C 19.085938 -32.34375 21.15625 -30.144531 21.15625 -25.75 L 21.15625 -22 C 21.15625 -19.332031 20.203125 -17.632812 18.296875 -16.90625 C 19.960938 -16.300781 20.796875 -14.929688 20.796875 -12.796875 L 20.796875 0 L 13.796875 0 L 13.796875 -12.25 C 13.796875 -12.914062 13.476562 -13.25 12.84375 -13.25 Z M 9.5 -27.59375 L 9.5 -18.15625 L 13.203125 -18.15625 C 13.460938 -18.15625 13.6875 -18.253906 13.875 -18.453125 C 14.0625 -18.648438 14.15625 -18.882812 14.15625 -19.15625 L 14.15625 -26.59375 C 14.15625 -26.863281 14.0625 -27.097656 13.875 -27.296875 C 13.6875 -27.492188 13.460938 -27.59375 13.203125 -27.59375 Z M 9.5 -27.59375 "/></g></g></g><g fill="#000000" fill-opacity="1"><g transform="translate(219.238783, 275.999953)"><g><path d="M 15.34375 -32.84375 C 19.476562 -32.84375 21.546875 -30.644531 21.546875 -26.25 L 21.546875 0 L 14.546875 0 L 14.546875 -10.84375 L 9.5 -10.84375 L 9.5 0 L 2.5 0 L 2.5 -26.25 C 2.5 -30.644531 4.566406 -32.84375 8.703125 -32.84375 Z M 9.5 -16.25 L 14.546875 -16.25 L 14.546875 -27.09375 C 14.546875 -27.363281 14.453125 -27.597656 14.265625 -27.796875 C 14.085938 -27.992188 13.863281 -28.09375 13.59375 -28.09375 L 10.453125 -28.09375 C 10.179688 -28.09375 9.953125 -27.992188 9.765625 -27.796875 C 9.585938 -27.597656 9.5 -27.363281 9.5 -27.09375 Z M 9.5 -16.25 "/></g></g></g><g fill="#000000" fill-opacity="1"><g transform="translate(243.485024, 275.999953)"><g><path d="M 0.65625 -26.40625 L 0.65625 -32.34375 L 18.15625 -32.34375 L 18.15625 -26.40625 L 12.90625 -26.40625 L 12.90625 0 L 5.90625 0 L 5.90625 -26.40625 Z M 0.65625 -26.40625 "/></g></g></g><g fill="#000000" fill-opacity="1"><g transform="translate(262.332103, 275.999953)"><g><path d="M 9.5 -5.796875 L 17.25 -5.796875 L 17.25 0 L 2.5 0 L 2.5 -32.34375 L 17.25 -32.34375 L 17.25 -26.65625 L 9.5 -26.65625 L 9.5 -19.046875 L 16.75 -19.046875 L 16.75 -13.546875 L 9.5 -13.546875 Z M 9.5 -5.796875 "/></g></g></g><g fill="#000000" fill-opacity="1"><g transform="translate(115.95117, 325.49995)"><g><path d="M 21.046875 0 L 14.046875 0 L 14.046875 -26.84375 C 14.046875 -27.113281 13.953125 -27.347656 13.765625 -27.546875 C 13.585938 -27.742188 13.363281 -27.84375 13.09375 -27.84375 L 10.40625 -27.84375 C 10.132812 -27.84375 9.90625 -27.742188 9.71875 -27.546875 C 9.539062 -27.347656 9.453125 -27.113281 9.453125 -26.84375 L 9.453125 0 L 2.453125 0 L 2.453125 -26.25 C 2.453125 -30.644531 4.519531 -32.84375 8.65625 -32.84375 L 14.84375 -32.84375 C 18.976562 -32.84375 21.046875 -30.644531 21.046875 -26.25 Z M 21.046875 0 "/></g></g></g><g fill="#000000" fill-opacity="1"><g transform="translate(139.197575, 325.49995)"><g><path d="M 9.5 -5.796875 L 17.25 -5.796875 L 17.25 0 L 2.5 0 L 2.5 -32.34375 L 17.25 -32.34375 L 17.25 -26.65625 L 9.5 -26.65625 L 9.5 -19.046875 L 16.75 -19.046875 L 16.75 -13.546875 L 9.5 -13.546875 Z M 9.5 -5.796875 "/></g></g></g><g fill="#000000" fill-opacity="1"><g transform="translate(157.994666, 325.49995)"><g><path d="M 11.953125 -12.84375 L 11.953125 -18 L 21.203125 -18 L 21.203125 -6.09375 C 21.203125 -1.695312 19.132812 0.5 15 0.5 L 8.703125 0.5 C 4.566406 0.5 2.5 -1.695312 2.5 -6.09375 L 2.5 -26.25 C 2.5 -30.644531 4.566406 -32.84375 8.703125 -32.84375 L 15 -32.84375 C 19.132812 -32.84375 21.203125 -30.644531 21.203125 -26.25 L 21.203125 -23.203125 L 14.546875 -23.203125 L 14.546875 -27.09375 C 14.546875 -27.363281 14.453125 -27.597656 14.265625 -27.796875 C 14.085938 -27.992188 13.863281 -28.09375 13.59375 -28.09375 L 10.453125 -28.09375 C 10.179688 -28.09375 9.953125 -27.992188 9.765625 -27.796875 C 9.585938 -27.597656 9.5 -27.363281 9.5 -27.09375 L 9.5 -5.296875 C 9.5 -5.035156 9.585938 -4.800781 9.765625 -4.59375 C 9.953125 -4.394531 10.179688 -4.296875 10.453125 -4.296875 L 13.59375 -4.296875 C 13.863281 -4.296875 14.085938 -4.394531 14.265625 -4.59375 C 14.453125 -4.800781 14.546875 -5.035156 14.546875 -5.296875 L 14.546875 -12.84375 Z M 11.953125 -12.84375 "/></g></g></g><g fill="#000000" fill-opacity="1"><g transform="translate(180.541174, 325.49995)"><g><path d="M 9.5 -5.90625 L 17.15625 -5.90625 L 17.15625 0 L 2.5 0 L 2.5 -32.34375 L 9.5 -32.34375 Z M 9.5 -5.90625 "/></g></g></g><g fill="#000000" fill-opacity="1"><g transform="translate(198.488392, 325.49995)"><g><path d="M 9.5 -5.796875 L 17.25 -5.796875 L 17.25 0 L 2.5 0 L 2.5 -32.34375 L 17.25 -32.34375 L 17.25 -26.65625 L 9.5 -26.65625 L 9.5 -19.046875 L 16.75 -19.046875 L 16.75 -13.546875 L 9.5 -13.546875 Z M 9.5 -5.796875 "/></g></g></g><g fill="#000000" fill-opacity="1"><g transform="translate(217.285483, 325.49995)"><g><path d="M 14.546875 -5.296875 L 14.546875 -10.296875 L 21.203125 -10.296875 L 21.203125 -6.09375 C 21.203125 -1.695312 19.132812 0.5 15 0.5 L 8.703125 0.5 C 4.566406 0.5 2.5 -1.695312 2.5 -6.09375 L 2.5 -26.25 C 2.5 -30.644531 4.566406 -32.84375 8.703125 -32.84375 L 15 -32.84375 C 19.132812 -32.84375 21.203125 -30.644531 21.203125 -26.25 L 21.203125 -23.203125 L 14.546875 -23.203125 L 14.546875 -27.09375 C 14.546875 -27.363281 14.453125 -27.597656 14.265625 -27.796875 C 14.085938 -27.992188 13.863281 -28.09375 13.59375 -28.09375 L 10.453125 -28.09375 C 10.179688 -28.09375 9.953125 -27.992188 9.765625 -27.796875 C 9.585938 -27.597656 9.5 -27.363281 9.5 -27.09375 L 9.5 -5.296875 C 9.5 -5.035156 9.585938 -4.800781 9.765625 -4.59375 C 9.953125 -4.394531 10.179688 -4.296875 10.453125 -4.296875 L 13.59375 -4.296875 C 13.863281 -4.296875 14.085938 -4.394531 14.265625 -4.59375 C 14.453125 -4.800781 14.546875 -5.035156 14.546875 -5.296875 Z M 14.546875 -5.296875 "/></g></g></g><g fill="#000000" fill-opacity="1"><g transform="translate(240.181939, 325.49995)"><g><path d="M 0.65625 -26.40625 L 0.65625 -32.34375 L 18.15625 -32.34375 L 18.15625 -26.40625 L 12.90625 -26.40625 L 12.90625 0 L 5.90625 0 L 5.90625 -26.40625 Z M 0.65625 -26.40625 "/></g></g></g></svg>