<svg xmlns="http://www.w3.org/2000/svg" xmlns:xlink="http://www.w3.org/1999/xlink" width="500" zoomAndPan="magnify" viewBox="0 0 375 374.999991" height="500" preserveAspectRatio="xMidYMid meet" version="1.0"><defs><g/><clipPath id="e1a28f9f42"><path d="M 119 130 L 256 130 L 256 230.40625 L 119 230.40625 Z M 119 130 " clip-rule="nonzero"/></clipPath><clipPath id="dd0700f356"><path d="M 138 44.40625 L 237 44.40625 L 237 167 L 138 167 Z M 138 44.40625 " clip-rule="nonzero"/></clipPath></defs><path fill="#e26d05" d="M 130.484375 148.03125 C 130.484375 148.03125 130.484375 148.101562 130.449219 148.210938 C 130.304688 149.109375 129.582031 153.429688 129.402344 157.101562 C 129.402344 157.242188 129.402344 157.421875 129.367188 157.566406 C 129.367188 157.964844 129.332031 158.394531 129.332031 158.792969 C 129.332031 158.972656 129.332031 159.113281 129.332031 159.296875 C 132.285156 152.960938 136.242188 148.894531 137.25 145.582031 C 137.824219 143.78125 137.464844 141.660156 135.773438 140.617188 C 132.535156 143.0625 130.589844 147.742188 130.484375 148.03125 Z M 130.484375 148.03125 " fill-opacity="1" fill-rule="nonzero"/><path fill="#e26d05" d="M 136.855469 150.765625 C 134.117188 152.097656 129.367188 160.265625 129.367188 160.265625 C 129.367188 160.265625 129.367188 160.304688 129.367188 160.375 C 129.441406 162.929688 129.726562 165.59375 130.339844 168.148438 C 130.339844 168.183594 130.339844 168.183594 130.375 168.222656 C 134.945312 158.46875 141.351562 154.722656 136.855469 150.765625 Z M 136.855469 150.765625 " fill-opacity="1" fill-rule="nonzero"/><path fill="#e26d05" d="M 130.410156 168.507812 C 130.410156 168.507812 130.484375 168.832031 130.664062 169.410156 C 131.023438 170.597656 131.742188 172.792969 133.003906 175.09375 L 133.183594 175.417969 C 133.328125 168.078125 143.800781 161.5625 139.230469 157.820312 C 135.558594 160.304688 130.410156 168.507812 130.410156 168.507812 Z M 130.410156 168.507812 " fill-opacity="1" fill-rule="nonzero"/><path fill="#e26d05" d="M 245.65625 159.257812 C 245.65625 159.078125 245.65625 158.933594 245.65625 158.753906 C 245.65625 158.359375 245.65625 157.925781 245.621094 157.53125 C 245.621094 157.386719 245.621094 157.242188 245.585938 157.0625 C 245.40625 153.390625 244.6875 149.074219 244.542969 148.171875 C 244.542969 148.066406 244.507812 147.992188 244.507812 147.992188 C 244.398438 147.742188 242.453125 143.0625 239.214844 140.542969 C 237.488281 141.585938 237.164062 143.710938 237.738281 145.511719 C 238.746094 148.859375 242.671875 152.886719 245.65625 159.257812 Z M 245.65625 159.257812 " fill-opacity="1" fill-rule="nonzero"/><path fill="#e26d05" d="M 244.648438 168.183594 C 245.261719 165.59375 245.550781 162.964844 245.621094 160.410156 C 245.621094 160.339844 245.621094 160.304688 245.621094 160.304688 C 245.621094 160.304688 240.871094 152.097656 238.136719 150.800781 C 233.636719 154.722656 240.042969 158.46875 244.613281 168.292969 C 244.648438 168.222656 244.648438 168.222656 244.648438 168.183594 Z M 244.648438 168.183594 " fill-opacity="1" fill-rule="nonzero"/><path fill="#e26d05" d="M 241.988281 175.09375 C 243.246094 172.792969 243.964844 170.597656 244.328125 169.410156 C 244.507812 168.832031 244.578125 168.507812 244.578125 168.507812 C 244.578125 168.507812 239.429688 160.304688 235.761719 157.820312 C 231.1875 161.5625 241.664062 168.078125 241.808594 175.417969 Z M 241.988281 175.09375 " fill-opacity="1" fill-rule="nonzero"/><g clip-path="url(#e1a28f9f42)"><path fill="#e26d05" d="M 253.539062 146.519531 C 252.207031 141.011719 250.191406 135.648438 247.492188 130.539062 C 247.492188 130.539062 244.21875 131.90625 243.785156 136.441406 C 243.644531 138.097656 244.972656 140.6875 245.621094 142.917969 C 253.9375 174.160156 237.703125 185.171875 232.953125 184.777344 C 229.316406 184.488281 226.472656 182.113281 228.273438 172.828125 C 230.542969 161.023438 222.15625 160.84375 222.15625 160.84375 C 222.15625 160.84375 222.40625 167.070312 218.160156 175.382812 C 213.300781 184.921875 225.285156 195 221.542969 200.003906 C 212.761719 211.773438 198.832031 215.15625 187.460938 215.15625 C 176.085938 215.15625 162.15625 211.773438 153.375 200.003906 C 149.632812 195 161.652344 184.921875 156.757812 175.382812 C 152.511719 167.105469 152.761719 160.84375 152.761719 160.84375 C 152.761719 160.84375 144.375 160.988281 146.644531 172.828125 C 148.445312 182.113281 145.601562 184.488281 141.964844 184.777344 C 137.214844 185.171875 121.019531 174.125 129.296875 142.917969 C 129.945312 140.6875 131.238281 138.097656 131.132812 136.441406 C 130.773438 131.90625 127.460938 130.539062 127.460938 130.539062 C 124.761719 135.648438 122.746094 141.011719 121.414062 146.519531 C 116.085938 168.726562 122.097656 193.128906 139.445312 210.476562 C 152.726562 223.757812 170.109375 230.378906 187.496094 230.378906 C 204.878906 230.378906 222.261719 223.757812 235.542969 210.476562 C 252.890625 193.128906 258.902344 168.726562 253.539062 146.519531 Z M 253.539062 146.519531 " fill-opacity="1" fill-rule="nonzero"/></g><g clip-path="url(#dd0700f356)"><path fill="#e26d05" d="M 208.695312 164.695312 C 227.734375 160.230469 243.5 140.652344 233.671875 107.71875 C 234.429688 126.757812 222.480469 131.222656 218.519531 123.304688 C 216.289062 118.839844 217.367188 113.40625 218.375 106.242188 C 220.246094 92.996094 211.035156 79.070312 197.535156 74.894531 C 215.640625 103.757812 193.578125 121.792969 193.578125 121.792969 C 208.660156 93.285156 177.417969 69.964844 196.527344 44.515625 C 162.949219 49.628906 178.28125 86.84375 169.03125 88.679688 C 160.933594 90.296875 157.511719 77.199219 166.621094 66.074219 C 136.710938 86.265625 163.847656 113.910156 156.648438 123.589844 C 151.394531 130.679688 140.023438 124.132812 141.28125 107.753906 C 131.457031 140.6875 147.183594 160.304688 166.257812 164.730469 C 166.257812 164.730469 155.460938 157.605469 160.03125 146.121094 C 160.070312 146.878906 160.140625 147.632812 160.25 148.355469 C 162.191406 160.445312 180.546875 157.785156 179 145.617188 C 178.570312 142.128906 177.417969 138.023438 175.078125 133.308594 C 168.921875 121 172.59375 111.859375 180.261719 107.828125 C 166.980469 129.960938 200.34375 136.117188 188.144531 166.53125 C 188.144531 166.53125 215.605469 161.996094 209.019531 122.257812 C 215.640625 130.070312 220.285156 150.621094 208.695312 164.695312 Z M 208.695312 164.695312 " fill-opacity="1" fill-rule="nonzero"/></g><path fill="#e26d05" d="M 225.394531 109.121094 C 237.273438 97.246094 222.300781 80.617188 232.089844 71.152344 C 222.585938 70.214844 219.347656 76.910156 221.433594 84.179688 C 223.523438 91.484375 228.128906 99.546875 225.394531 109.121094 Z M 225.394531 109.121094 " fill-opacity="1" fill-rule="nonzero"/><g fill="#000000" fill-opacity="1"><g transform="translate(94.283201, 275.999953)"><g><path d="M 9.5 -12.703125 L 9.5 0 L 2.5 0 L 2.5 -32.34375 L 9.5 -32.34375 L 9.5 -18.796875 L 15.046875 -18.796875 L 15.046875 -32.34375 L 22.046875 -32.34375 L 22.046875 0 L 15.046875 0 L 15.046875 -12.703125 Z M 9.5 -12.703125 "/></g></g></g><g fill="#000000" fill-opacity="1"><g transform="translate(118.829403, 275.999953)"><g><path d="M 21.546875 -26.25 L 21.546875 -6.09375 C 21.546875 -1.695312 19.476562 0.5 15.34375 0.5 L 8.703125 0.5 C 4.566406 0.5 2.5 -1.695312 2.5 -6.09375 L 2.5 -26.25 C 2.5 -30.644531 4.566406 -32.84375 8.703125 -32.84375 L 15.34375 -32.84375 C 19.476562 -32.84375 21.546875 -30.644531 21.546875 -26.25 Z M 14.546875 -5.296875 L 14.546875 -27.09375 C 14.546875 -27.363281 14.453125 -27.597656 14.265625 -27.796875 C 14.085938 -27.992188 13.863281 -28.09375 13.59375 -28.09375 L 10.453125 -28.09375 C 10.179688 -28.09375 9.953125 -27.992188 9.765625 -27.796875 C 9.585938 -27.597656 9.5 -27.363281 9.5 -27.09375 L 9.5 -5.296875 C 9.5 -5.035156 9.585938 -4.800781 9.765625 -4.59375 C 9.953125 -4.394531 10.179688 -4.296875 10.453125 -4.296875 L 13.59375 -4.296875 C 13.863281 -4.296875 14.085938 -4.394531 14.265625 -4.59375 C 14.453125 -4.800781 14.546875 -5.035156 14.546875 -5.296875 Z M 14.546875 -5.296875 "/></g></g></g><g fill="#000000" fill-opacity="1"><g transform="translate(143.025656, 275.999953)"><g><path d="M 0.65625 -26.40625 L 0.65625 -32.34375 L 18.15625 -32.34375 L 18.15625 -26.40625 L 12.90625 -26.40625 L 12.90625 0 L 5.90625 0 L 5.90625 -26.40625 Z M 0.65625 -26.40625 "/></g></g></g><g fill="#000000" fill-opacity="1"><g transform="translate(161.872735, 275.999953)"><g><path d="M 19.84375 -17.296875 L 19.84375 -11.953125 L 2.796875 -11.953125 L 2.796875 -17.296875 Z M 19.84375 -17.296875 "/></g></g></g><g fill="#000000" fill-opacity="1"><g transform="translate(184.419242, 275.999953)"><g><path d="M 9.5 -12.703125 L 9.5 0 L 2.5 0 L 2.5 -32.34375 L 9.5 -32.34375 L 9.5 -18.796875 L 15.046875 -18.796875 L 15.046875 -32.34375 L 22.046875 -32.34375 L 22.046875 0 L 15.046875 0 L 15.046875 -12.703125 Z M 9.5 -12.703125 "/></g></g></g><g fill="#000000" fill-opacity="1"><g transform="translate(208.965444, 275.999953)"><g><path d="M 15.34375 -32.84375 C 19.476562 -32.84375 21.546875 -30.644531 21.546875 -26.25 L 21.546875 0 L 14.546875 0 L 14.546875 -10.84375 L 9.5 -10.84375 L 9.5 0 L 2.5 0 L 2.5 -26.25 C 2.5 -30.644531 4.566406 -32.84375 8.703125 -32.84375 Z M 9.5 -16.25 L 14.546875 -16.25 L 14.546875 -27.09375 C 14.546875 -27.363281 14.453125 -27.597656 14.265625 -27.796875 C 14.085938 -27.992188 13.863281 -28.09375 13.59375 -28.09375 L 10.453125 -28.09375 C 10.179688 -28.09375 9.953125 -27.992188 9.765625 -27.796875 C 9.585938 -27.597656 9.5 -27.363281 9.5 -27.09375 Z M 9.5 -16.25 "/></g></g></g><g fill="#000000" fill-opacity="1"><g transform="translate(233.211684, 275.999953)"><g><path d="M 21.046875 0 L 14.046875 0 L 14.046875 -26.84375 C 14.046875 -27.113281 13.953125 -27.347656 13.765625 -27.546875 C 13.585938 -27.742188 13.363281 -27.84375 13.09375 -27.84375 L 10.40625 -27.84375 C 10.132812 -27.84375 9.90625 -27.742188 9.71875 -27.546875 C 9.539062 -27.347656 9.453125 -27.113281 9.453125 -26.84375 L 9.453125 0 L 2.453125 0 L 2.453125 -26.25 C 2.453125 -30.644531 4.519531 -32.84375 8.65625 -32.84375 L 14.84375 -32.84375 C 18.976562 -32.84375 21.046875 -30.644531 21.046875 -26.25 Z M 21.046875 0 "/></g></g></g><g fill="#000000" fill-opacity="1"><g transform="translate(256.45809, 275.999953)"><g><path d="M 15.34375 -32.34375 C 19.476562 -32.34375 21.546875 -30.144531 21.546875 -25.75 L 21.546875 -6.59375 C 21.546875 -2.195312 19.476562 0 15.34375 0 L 2.5 0 L 2.5 -32.34375 Z M 14.546875 -5.796875 L 14.546875 -26.59375 C 14.546875 -26.863281 14.453125 -27.097656 14.265625 -27.296875 C 14.085938 -27.492188 13.863281 -27.59375 13.59375 -27.59375 L 9.5 -27.59375 L 9.5 -4.796875 L 13.59375 -4.796875 C 13.863281 -4.796875 14.085938 -4.894531 14.265625 -5.09375 C 14.453125 -5.300781 14.546875 -5.535156 14.546875 -5.796875 Z M 14.546875 -5.796875 "/></g></g></g><g fill="#000000" fill-opacity="1"><g transform="translate(113.630856, 325.49995)"><g><path d="M 9.5 -12.703125 L 9.5 0 L 2.5 0 L 2.5 -32.34375 L 17.09375 -32.34375 L 17.09375 -26.296875 L 9.5 -26.296875 L 9.5 -18.546875 L 16.59375 -18.546875 L 16.59375 -12.703125 Z M 9.5 -12.703125 "/></g></g></g><g fill="#000000" fill-opacity="1"><g transform="translate(132.32796, 325.49995)"><g><path d="M 15.34375 -32.84375 C 19.476562 -32.84375 21.546875 -30.644531 21.546875 -26.25 L 21.546875 0 L 14.546875 0 L 14.546875 -10.84375 L 9.5 -10.84375 L 9.5 0 L 2.5 0 L 2.5 -26.25 C 2.5 -30.644531 4.566406 -32.84375 8.703125 -32.84375 Z M 9.5 -16.25 L 14.546875 -16.25 L 14.546875 -27.09375 C 14.546875 -27.363281 14.453125 -27.597656 14.265625 -27.796875 C 14.085938 -27.992188 13.863281 -28.09375 13.59375 -28.09375 L 10.453125 -28.09375 C 10.179688 -28.09375 9.953125 -27.992188 9.765625 -27.796875 C 9.585938 -27.597656 9.5 -27.363281 9.5 -27.09375 Z M 9.5 -16.25 "/></g></g></g><g fill="#000000" fill-opacity="1"><g transform="translate(156.574201, 325.49995)"><g><path d="M 9.5 -5.90625 L 17.15625 -5.90625 L 17.15625 0 L 2.5 0 L 2.5 -32.34375 L 9.5 -32.34375 Z M 9.5 -5.90625 "/></g></g></g><g fill="#000000" fill-opacity="1"><g transform="translate(174.521419, 325.49995)"><g><path d="M 9.5 -5.90625 L 17.15625 -5.90625 L 17.15625 0 L 2.5 0 L 2.5 -32.34375 L 9.5 -32.34375 Z M 9.5 -5.90625 "/></g></g></g><g fill="#000000" fill-opacity="1"><g transform="translate(192.468638, 325.49995)"><g><path d="M 15.34375 -32.84375 C 19.476562 -32.84375 21.546875 -30.644531 21.546875 -26.25 L 21.546875 0 L 14.546875 0 L 14.546875 -10.84375 L 9.5 -10.84375 L 9.5 0 L 2.5 0 L 2.5 -26.25 C 2.5 -30.644531 4.566406 -32.84375 8.703125 -32.84375 Z M 9.5 -16.25 L 14.546875 -16.25 L 14.546875 -27.09375 C 14.546875 -27.363281 14.453125 -27.597656 14.265625 -27.796875 C 14.085938 -27.992188 13.863281 -28.09375 13.59375 -28.09375 L 10.453125 -28.09375 C 10.179688 -28.09375 9.953125 -27.992188 9.765625 -27.796875 C 9.585938 -27.597656 9.5 -27.363281 9.5 -27.09375 Z M 9.5 -16.25 "/></g></g></g><g fill="#000000" fill-opacity="1"><g transform="translate(216.714878, 325.49995)"><g><path d="M 14.546875 -5.296875 L 14.546875 -10.296875 L 21.203125 -10.296875 L 21.203125 -6.09375 C 21.203125 -1.695312 19.132812 0.5 15 0.5 L 8.703125 0.5 C 4.566406 0.5 2.5 -1.695312 2.5 -6.09375 L 2.5 -26.25 C 2.5 -30.644531 4.566406 -32.84375 8.703125 -32.84375 L 15 -32.84375 C 19.132812 -32.84375 21.203125 -30.644531 21.203125 -26.25 L 21.203125 -23.203125 L 14.546875 -23.203125 L 14.546875 -27.09375 C 14.546875 -27.363281 14.453125 -27.597656 14.265625 -27.796875 C 14.085938 -27.992188 13.863281 -28.09375 13.59375 -28.09375 L 10.453125 -28.09375 C 10.179688 -28.09375 9.953125 -27.992188 9.765625 -27.796875 C 9.585938 -27.597656 9.5 -27.363281 9.5 -27.09375 L 9.5 -5.296875 C 9.5 -5.035156 9.585938 -4.800781 9.765625 -4.59375 C 9.953125 -4.394531 10.179688 -4.296875 10.453125 -4.296875 L 13.59375 -4.296875 C 13.863281 -4.296875 14.085938 -4.394531 14.265625 -4.59375 C 14.453125 -4.800781 14.546875 -5.035156 14.546875 -5.296875 Z M 14.546875 -5.296875 "/></g></g></g><g fill="#000000" fill-opacity="1"><g transform="translate(239.611334, 325.49995)"><g><path d="M 21.25 -32.34375 L 14.296875 -11.796875 L 14.296875 0 L 7.296875 0 L 7.296875 -11.796875 L 0.34375 -32.34375 L 6.953125 -32.34375 L 10.796875 -18.84375 L 14.65625 -32.34375 Z M 21.25 -32.34375 "/></g></g></g></svg>