<svg xmlns="http://www.w3.org/2000/svg" xmlns:xlink="http://www.w3.org/1999/xlink" width="500" zoomAndPan="magnify" viewBox="0 0 375 374.999991" height="500" preserveAspectRatio="xMidYMid meet" version="1.0"><defs><g/><clipPath id="99c4b0f51e"><path d="M 114.1875 81.710938 L 261 81.710938 L 261 230.210938 L 114.1875 230.210938 Z M 114.1875 81.710938 " clip-rule="nonzero"/></clipPath></defs><g clip-path="url(#99c4b0f51e)"><path fill="#ddad44" d="M 245.820312 130.554688 L 232.535156 124.582031 C 229.0625 123.035156 225.433594 122.457031 221.652344 122.839844 C 218.316406 115.726562 213.960938 109.308594 208.578125 103.582031 C 198.449219 92.75 185.816406 85.34375 173.011719 82.738281 C 159.695312 80.011719 147.71875 82.761719 139.316406 90.488281 L 125.007812 103.613281 C 118.359375 109.71875 114.640625 118.300781 114.25 128.429688 C 113.679688 143.335938 120.660156 160.0625 132.902344 173.171875 C 143.035156 184.007812 155.667969 191.414062 168.472656 194.019531 C 170.1875 194.367188 171.882812 194.625 173.546875 194.792969 C 174.050781 208.539062 179.363281 218.589844 188.429688 222.664062 L 201.71875 228.640625 C 204.511719 229.882812 207.4375 230.492188 210.496094 230.46875 C 225.597656 230.46875 243.015625 215.742188 253.308594 192.847656 C 265.664062 165.367188 262.378906 137.996094 245.820312 130.554688 Z M 238.117188 190.859375 L 243.390625 193.226562 C 241.925781 196.070312 240.296875 198.8125 238.503906 201.457031 L 233.347656 199.140625 C 235.085938 196.464844 236.675781 193.703125 238.117188 190.859375 Z M 241.71875 182.851562 C 242.890625 179.882812 243.898438 176.859375 244.742188 173.78125 L 249.898438 176.097656 C 249.113281 179.195312 248.140625 182.234375 246.980469 185.210938 Z M 246.613281 165.003906 C 247.144531 161.671875 247.417969 158.320312 247.445312 154.949219 L 251.832031 156.917969 C 252.066406 160.363281 251.972656 163.796875 251.546875 167.222656 Z M 249.300781 146.160156 L 246.570312 144.929688 C 246.308594 143.539062 245.96875 142.160156 245.5625 140.804688 C 247.167969 142.339844 248.417969 144.125 249.3125 146.160156 Z M 163.304688 90.488281 C 165.988281 90.5 168.644531 90.78125 171.273438 91.332031 C 182.308594 93.582031 193.285156 100.0625 202.179688 109.582031 C 212.871094 121.015625 218.96875 135.375 218.484375 147.984375 C 218.191406 155.71875 215.449219 162.179688 210.5625 166.664062 C 204.289062 172.429688 195.046875 174.421875 184.542969 172.28125 C 173.507812 170.03125 162.53125 163.550781 153.628906 154.035156 C 142.941406 142.597656 136.847656 128.238281 137.328125 115.632812 C 137.621094 107.894531 140.359375 101.4375 145.25 96.949219 C 149.882812 92.679688 156.128906 90.488281 163.304688 90.488281 Z M 187.289062 181.597656 C 189.039062 181.800781 190.792969 181.902344 192.554688 181.90625 C 192.921875 181.90625 193.265625 181.90625 193.621094 181.882812 C 190.242188 184.125 186.542969 185.488281 182.519531 185.972656 Z M 150.28125 163.132812 C 152.851562 165.589844 155.582031 167.859375 158.472656 169.933594 L 150.792969 176.992188 C 147.839844 174.988281 145.070312 172.765625 142.480469 170.316406 Z M 133.839844 140.089844 L 126.382812 146.929688 C 124.910156 143.210938 123.902344 139.371094 123.363281 135.40625 L 130.070312 129.253906 C 130.996094 132.980469 132.253906 136.589844 133.839844 140.085938 Z M 128.773438 112.382812 C 128.671875 113.339844 128.59375 114.308594 128.554688 115.308594 C 128.515625 116.4375 128.519531 117.578125 128.554688 118.722656 L 123.726562 123.160156 C 124.53125 119.15625 126.210938 115.5625 128.773438 112.382812 Z M 130.378906 155.175781 L 138.09375 148.09375 C 139.964844 151.113281 142.035156 153.988281 144.3125 156.714844 L 136.457031 163.90625 C 134.195312 161.160156 132.171875 158.25 130.378906 155.175781 Z M 158.769531 181.554688 L 166.171875 174.757812 C 169.574219 176.601562 173.117188 178.121094 176.800781 179.3125 L 170.175781 185.410156 C 166.21875 184.578125 162.417969 183.292969 158.769531 181.554688 Z M 192.050781 214.65625 C 186.324219 212.097656 182.8125 204.78125 182.359375 194.835938 C 190.039062 194.078125 196.847656 191.175781 202.203125 186.269531 L 216.5 173.144531 C 223.152344 167.039062 226.871094 158.457031 227.257812 148.328125 C 227.421875 142.617188 226.660156 137.035156 224.980469 131.578125 C 226.355469 131.6875 227.675781 132.023438 228.933594 132.585938 C 234.246094 134.976562 237.636719 141.265625 238.480469 150.296875 C 239.40625 160.230469 237.109375 171.945312 232.007812 183.300781 C 226.90625 194.652344 219.664062 204.144531 211.621094 210.050781 C 204.304688 215.414062 197.359375 217.054688 192.039062 214.667969 Z M 209.242188 221.652344 C 210.527344 221.054688 211.777344 220.390625 212.992188 219.660156 L 215.722656 220.890625 C 213.609375 221.574219 211.449219 221.832031 209.238281 221.65625 Z M 225.449219 215.636719 L 221.0625 213.667969 C 223.566406 211.40625 225.890625 208.976562 228.03125 206.371094 L 232.957031 208.585938 C 230.679688 211.179688 228.175781 213.53125 225.445312 215.644531 Z M 225.449219 215.636719 " fill-opacity="1" fill-rule="nonzero"/></g><g fill="#000000" fill-opacity="1"><g transform="translate(59.988282, 275.999982)"><g><path d="M 9.453125 0 L 2.453125 0 L 2.453125 -26.25 C 2.453125 -30.644531 4.519531 -32.84375 8.65625 -32.84375 L 12.34375 -32.84375 C 14.78125 -32.84375 16.515625 -32.046875 17.546875 -30.453125 C 18.515625 -32.046875 20.25 -32.84375 22.75 -32.84375 L 26.453125 -32.84375 C 30.585938 -32.84375 32.65625 -30.644531 32.65625 -26.25 L 32.65625 0 L 25.65625 0 L 25.65625 -26.84375 C 25.65625 -27.113281 25.5625 -27.347656 25.375 -27.546875 C 25.1875 -27.742188 24.960938 -27.84375 24.703125 -27.84375 L 22 -27.84375 C 21.726562 -27.84375 21.5 -27.742188 21.3125 -27.546875 C 21.132812 -27.347656 21.046875 -27.113281 21.046875 -26.84375 L 21.046875 0 L 14.046875 0 L 14.046875 -26.84375 C 14.046875 -27.113281 13.953125 -27.347656 13.765625 -27.546875 C 13.585938 -27.742188 13.363281 -27.84375 13.09375 -27.84375 L 10.40625 -27.84375 C 10.132812 -27.84375 9.90625 -27.742188 9.71875 -27.546875 C 9.539062 -27.347656 9.453125 -27.113281 9.453125 -26.84375 Z M 9.453125 0 "/></g></g></g><g fill="#000000" fill-opacity="1"><g transform="translate(94.932871, 275.999982)"><g><path d="M 21.546875 -26.25 L 21.546875 -6.09375 C 21.546875 -1.695312 19.476562 0.5 15.34375 0.5 L 8.703125 0.5 C 4.566406 0.5 2.5 -1.695312 2.5 -6.09375 L 2.5 -26.25 C 2.5 -30.644531 4.566406 -32.84375 8.703125 -32.84375 L 15.34375 -32.84375 C 19.476562 -32.84375 21.546875 -30.644531 21.546875 -26.25 Z M 14.546875 -5.296875 L 14.546875 -27.09375 C 14.546875 -27.363281 14.453125 -27.597656 14.265625 -27.796875 C 14.085938 -27.992188 13.863281 -28.09375 13.59375 -28.09375 L 10.453125 -28.09375 C 10.179688 -28.09375 9.953125 -27.992188 9.765625 -27.796875 C 9.585938 -27.597656 9.5 -27.363281 9.5 -27.09375 L 9.5 -5.296875 C 9.5 -5.035156 9.585938 -4.800781 9.765625 -4.59375 C 9.953125 -4.394531 10.179688 -4.296875 10.453125 -4.296875 L 13.59375 -4.296875 C 13.863281 -4.296875 14.085938 -4.394531 14.265625 -4.59375 C 14.453125 -4.800781 14.546875 -5.035156 14.546875 -5.296875 Z M 14.546875 -5.296875 "/></g></g></g><g fill="#000000" fill-opacity="1"><g transform="translate(119.129124, 275.999982)"><g><path d="M 21.046875 0 L 14.046875 0 L 14.046875 -26.84375 C 14.046875 -27.113281 13.953125 -27.347656 13.765625 -27.546875 C 13.585938 -27.742188 13.363281 -27.84375 13.09375 -27.84375 L 10.40625 -27.84375 C 10.132812 -27.84375 9.90625 -27.742188 9.71875 -27.546875 C 9.539062 -27.347656 9.453125 -27.113281 9.453125 -26.84375 L 9.453125 0 L 2.453125 0 L 2.453125 -26.25 C 2.453125 -30.644531 4.519531 -32.84375 8.65625 -32.84375 L 14.84375 -32.84375 C 18.976562 -32.84375 21.046875 -30.644531 21.046875 -26.25 Z M 21.046875 0 "/></g></g></g><g fill="#000000" fill-opacity="1"><g transform="translate(142.37553, 275.999982)"><g><path d="M 0.65625 -26.40625 L 0.65625 -32.34375 L 18.15625 -32.34375 L 18.15625 -26.40625 L 12.90625 -26.40625 L 12.90625 0 L 5.90625 0 L 5.90625 -26.40625 Z M 0.65625 -26.40625 "/></g></g></g><g fill="#000000" fill-opacity="1"><g transform="translate(161.222608, 275.999982)"><g><path d="M 9.5 -5.796875 L 17.25 -5.796875 L 17.25 0 L 2.5 0 L 2.5 -32.34375 L 17.25 -32.34375 L 17.25 -26.65625 L 9.5 -26.65625 L 9.5 -19.046875 L 16.75 -19.046875 L 16.75 -13.546875 L 9.5 -13.546875 Z M 9.5 -5.796875 "/></g></g></g><g fill="#000000" fill-opacity="1"><g transform="translate(180.0197, 275.999982)"><g><path d="M 19.84375 -17.296875 L 19.84375 -11.953125 L 2.796875 -11.953125 L 2.796875 -17.296875 Z M 19.84375 -17.296875 "/></g></g></g><g fill="#000000" fill-opacity="1"><g transform="translate(202.566207, 275.999982)"><g><path d="M 14.546875 -5.296875 L 14.546875 -10.296875 L 21.203125 -10.296875 L 21.203125 -6.09375 C 21.203125 -1.695312 19.132812 0.5 15 0.5 L 8.703125 0.5 C 4.566406 0.5 2.5 -1.695312 2.5 -6.09375 L 2.5 -26.25 C 2.5 -30.644531 4.566406 -32.84375 8.703125 -32.84375 L 15 -32.84375 C 19.132812 -32.84375 21.203125 -30.644531 21.203125 -26.25 L 21.203125 -23.203125 L 14.546875 -23.203125 L 14.546875 -27.09375 C 14.546875 -27.363281 14.453125 -27.597656 14.265625 -27.796875 C 14.085938 -27.992188 13.863281 -28.09375 13.59375 -28.09375 L 10.453125 -28.09375 C 10.179688 -28.09375 9.953125 -27.992188 9.765625 -27.796875 C 9.585938 -27.597656 9.5 -27.363281 9.5 -27.09375 L 9.5 -5.296875 C 9.5 -5.035156 9.585938 -4.800781 9.765625 -4.59375 C 9.953125 -4.394531 10.179688 -4.296875 10.453125 -4.296875 L 13.59375 -4.296875 C 13.863281 -4.296875 14.085938 -4.394531 14.265625 -4.59375 C 14.453125 -4.800781 14.546875 -5.035156 14.546875 -5.296875 Z M 14.546875 -5.296875 "/></g></g></g><g fill="#000000" fill-opacity="1"><g transform="translate(225.462663, 275.999982)"><g><path d="M 15.34375 -32.84375 C 19.476562 -32.84375 21.546875 -30.644531 21.546875 -26.25 L 21.546875 0 L 14.546875 0 L 14.546875 -10.84375 L 9.5 -10.84375 L 9.5 0 L 2.5 0 L 2.5 -26.25 C 2.5 -30.644531 4.566406 -32.84375 8.703125 -32.84375 Z M 9.5 -16.25 L 14.546875 -16.25 L 14.546875 -27.09375 C 14.546875 -27.363281 14.453125 -27.597656 14.265625 -27.796875 C 14.085938 -27.992188 13.863281 -28.09375 13.59375 -28.09375 L 10.453125 -28.09375 C 10.179688 -28.09375 9.953125 -27.992188 9.765625 -27.796875 C 9.585938 -27.597656 9.5 -27.363281 9.5 -27.09375 Z M 9.5 -16.25 "/></g></g></g><g fill="#000000" fill-opacity="1"><g transform="translate(249.708904, 275.999982)"><g><path d="M 9.5 -13.25 L 9.5 0 L 2.5 0 L 2.5 -32.34375 L 14.953125 -32.34375 C 19.085938 -32.34375 21.15625 -30.144531 21.15625 -25.75 L 21.15625 -22 C 21.15625 -19.332031 20.203125 -17.632812 18.296875 -16.90625 C 19.960938 -16.300781 20.796875 -14.929688 20.796875 -12.796875 L 20.796875 0 L 13.796875 0 L 13.796875 -12.25 C 13.796875 -12.914062 13.476562 -13.25 12.84375 -13.25 Z M 9.5 -27.59375 L 9.5 -18.15625 L 13.203125 -18.15625 C 13.460938 -18.15625 13.6875 -18.253906 13.875 -18.453125 C 14.0625 -18.648438 14.15625 -18.882812 14.15625 -19.15625 L 14.15625 -26.59375 C 14.15625 -26.863281 14.0625 -27.097656 13.875 -27.296875 C 13.6875 -27.492188 13.460938 -27.59375 13.203125 -27.59375 Z M 9.5 -27.59375 "/></g></g></g><g fill="#000000" fill-opacity="1"><g transform="translate(272.855333, 275.999982)"><g><path d="M 9.5 -5.90625 L 17.15625 -5.90625 L 17.15625 0 L 2.5 0 L 2.5 -32.34375 L 9.5 -32.34375 Z M 9.5 -5.90625 "/></g></g></g><g fill="#000000" fill-opacity="1"><g transform="translate(290.802552, 275.999982)"><g><path d="M 21.546875 -26.25 L 21.546875 -6.09375 C 21.546875 -1.695312 19.476562 0.5 15.34375 0.5 L 8.703125 0.5 C 4.566406 0.5 2.5 -1.695312 2.5 -6.09375 L 2.5 -26.25 C 2.5 -30.644531 4.566406 -32.84375 8.703125 -32.84375 L 15.34375 -32.84375 C 19.476562 -32.84375 21.546875 -30.644531 21.546875 -26.25 Z M 14.546875 -5.296875 L 14.546875 -27.09375 C 14.546875 -27.363281 14.453125 -27.597656 14.265625 -27.796875 C 14.085938 -27.992188 13.863281 -28.09375 13.59375 -28.09375 L 10.453125 -28.09375 C 10.179688 -28.09375 9.953125 -27.992188 9.765625 -27.796875 C 9.585938 -27.597656 9.5 -27.363281 9.5 -27.09375 L 9.5 -5.296875 C 9.5 -5.035156 9.585938 -4.800781 9.765625 -4.59375 C 9.953125 -4.394531 10.179688 -4.296875 10.453125 -4.296875 L 13.59375 -4.296875 C 13.863281 -4.296875 14.085938 -4.394531 14.265625 -4.59375 C 14.453125 -4.800781 14.546875 -5.035156 14.546875 -5.296875 Z M 14.546875 -5.296875 "/></g></g></g><g fill="#000000" fill-opacity="1"><g transform="translate(113.624997, 325.499979)"><g><path d="M 9.5 -12.703125 L 9.5 0 L 2.5 0 L 2.5 -32.34375 L 17.09375 -32.34375 L 17.09375 -26.296875 L 9.5 -26.296875 L 9.5 -18.546875 L 16.59375 -18.546875 L 16.59375 -12.703125 Z M 9.5 -12.703125 "/></g></g></g><g fill="#000000" fill-opacity="1"><g transform="translate(132.322101, 325.499979)"><g><path d="M 15.34375 -32.84375 C 19.476562 -32.84375 21.546875 -30.644531 21.546875 -26.25 L 21.546875 0 L 14.546875 0 L 14.546875 -10.84375 L 9.5 -10.84375 L 9.5 0 L 2.5 0 L 2.5 -26.25 C 2.5 -30.644531 4.566406 -32.84375 8.703125 -32.84375 Z M 9.5 -16.25 L 14.546875 -16.25 L 14.546875 -27.09375 C 14.546875 -27.363281 14.453125 -27.597656 14.265625 -27.796875 C 14.085938 -27.992188 13.863281 -28.09375 13.59375 -28.09375 L 10.453125 -28.09375 C 10.179688 -28.09375 9.953125 -27.992188 9.765625 -27.796875 C 9.585938 -27.597656 9.5 -27.363281 9.5 -27.09375 Z M 9.5 -16.25 "/></g></g></g><g fill="#000000" fill-opacity="1"><g transform="translate(156.568342, 325.499979)"><g><path d="M 9.5 -5.90625 L 17.15625 -5.90625 L 17.15625 0 L 2.5 0 L 2.5 -32.34375 L 9.5 -32.34375 Z M 9.5 -5.90625 "/></g></g></g><g fill="#000000" fill-opacity="1"><g transform="translate(174.51556, 325.499979)"><g><path d="M 9.5 -5.90625 L 17.15625 -5.90625 L 17.15625 0 L 2.5 0 L 2.5 -32.34375 L 9.5 -32.34375 Z M 9.5 -5.90625 "/></g></g></g><g fill="#000000" fill-opacity="1"><g transform="translate(192.462779, 325.499979)"><g><path d="M 15.34375 -32.84375 C 19.476562 -32.84375 21.546875 -30.644531 21.546875 -26.25 L 21.546875 0 L 14.546875 0 L 14.546875 -10.84375 L 9.5 -10.84375 L 9.5 0 L 2.5 0 L 2.5 -26.25 C 2.5 -30.644531 4.566406 -32.84375 8.703125 -32.84375 Z M 9.5 -16.25 L 14.546875 -16.25 L 14.546875 -27.09375 C 14.546875 -27.363281 14.453125 -27.597656 14.265625 -27.796875 C 14.085938 -27.992188 13.863281 -28.09375 13.59375 -28.09375 L 10.453125 -28.09375 C 10.179688 -28.09375 9.953125 -27.992188 9.765625 -27.796875 C 9.585938 -27.597656 9.5 -27.363281 9.5 -27.09375 Z M 9.5 -16.25 "/></g></g></g><g fill="#000000" fill-opacity="1"><g transform="translate(216.709019, 325.499979)"><g><path d="M 14.546875 -5.296875 L 14.546875 -10.296875 L 21.203125 -10.296875 L 21.203125 -6.09375 C 21.203125 -1.695312 19.132812 0.5 15 0.5 L 8.703125 0.5 C 4.566406 0.5 2.5 -1.695312 2.5 -6.09375 L 2.5 -26.25 C 2.5 -30.644531 4.566406 -32.84375 8.703125 -32.84375 L 15 -32.84375 C 19.132812 -32.84375 21.203125 -30.644531 21.203125 -26.25 L 21.203125 -23.203125 L 14.546875 -23.203125 L 14.546875 -27.09375 C 14.546875 -27.363281 14.453125 -27.597656 14.265625 -27.796875 C 14.085938 -27.992188 13.863281 -28.09375 13.59375 -28.09375 L 10.453125 -28.09375 C 10.179688 -28.09375 9.953125 -27.992188 9.765625 -27.796875 C 9.585938 -27.597656 9.5 -27.363281 9.5 -27.09375 L 9.5 -5.296875 C 9.5 -5.035156 9.585938 -4.800781 9.765625 -4.59375 C 9.953125 -4.394531 10.179688 -4.296875 10.453125 -4.296875 L 13.59375 -4.296875 C 13.863281 -4.296875 14.085938 -4.394531 14.265625 -4.59375 C 14.453125 -4.800781 14.546875 -5.035156 14.546875 -5.296875 Z M 14.546875 -5.296875 "/></g></g></g><g fill="#000000" fill-opacity="1"><g transform="translate(239.605475, 325.499979)"><g><path d="M 21.25 -32.34375 L 14.296875 -11.796875 L 14.296875 0 L 7.296875 0 L 7.296875 -11.796875 L 0.34375 -32.34375 L 6.953125 -32.34375 L 10.796875 -18.84375 L 14.65625 -32.34375 Z M 21.25 -32.34375 "/></g></g></g></svg>